<svg width="26" height="26" viewBox="0 0 26 26" fill="none" xmlns="http://www.w3.org/2000/svg">
<path d="M12.0344 2.43264C12.3001 1.44596 13.6999 1.44596 13.9656 2.43264L15.5534 8.32974C15.8314 9.36217 16.6378 10.1686 17.6703 10.4466L23.5674 12.0344C24.554 12.3001 24.554 13.6999 23.5674 13.9656L17.6703 15.5534C16.6378 15.8314 15.8314 16.6378 15.5534 17.6703L13.9656 23.5674C13.6999 24.554 12.3001 24.554 12.0344 23.5674L10.4466 17.6703C10.1686 16.6378 9.36217 15.8314 8.32974 15.5534L2.43264 13.9656C1.44596 13.6999 1.44596 12.3001 2.43264 12.0344L8.32974 10.4466C9.36217 10.1686 10.1686 9.36217 10.4466 8.32974L12.0344 2.43264Z" stroke="#A2C5FA" stroke-opacity="0.5" stroke-width="2"/>
</svg>
