<svg width="26" height="26" viewBox="0 0 26 26" fill="none" xmlns="http://www.w3.org/2000/svg">
<path d="M11.0688 2.17265C11.6001 0.199287 14.3999 0.199287 14.9312 2.17265L16.519 8.06975C16.7043 8.75804 17.242 9.29567 17.9303 9.48099L23.8274 11.0688C25.8007 11.6001 25.8007 14.3999 23.8274 14.9312L17.9303 16.519C17.242 16.7043 16.7043 17.242 16.519 17.9303L14.9312 23.8274C14.3999 25.8007 11.6001 25.8007 11.0688 23.8274L9.48099 17.9303C9.29567 17.242 8.75804 16.7043 8.06975 16.519L2.17265 14.9312C0.199287 14.3999 0.199287 11.6001 2.17265 11.0688L8.06975 9.48099C8.75804 9.29567 9.29567 8.75804 9.48099 8.06975L11.0688 2.17265Z" fill="#A2C5FA" fill-opacity="0.5"/>
<path d="M11.854 2.38406C12.1693 1.21303 13.8307 1.21303 14.146 2.38406L15.7338 8.28116C15.9945 9.24929 16.7507 10.0055 17.7188 10.2662L23.6159 11.854C24.787 12.1693 24.787 13.8307 23.6159 14.146L17.7188 15.7338C16.7507 15.9945 15.9945 16.7507 15.7338 17.7188L14.146 23.6159C13.8307 24.787 12.1693 24.787 11.854 23.6159L10.2662 17.7188C10.0055 16.7507 9.24929 15.9945 8.28116 15.7338L2.38406 14.146C1.21303 13.8307 1.21303 12.1693 2.38406 11.854L8.28116 10.2662C9.24929 10.0055 10.0055 9.24929 10.2662 8.28116L11.854 2.38406Z" stroke="#A2C5FA" stroke-opacity="0.5" stroke-width="1.62632"/>
</svg>
