<svg width="42" height="43" viewBox="0 0 42 43" fill="none" xmlns="http://www.w3.org/2000/svg">
<path d="M10.1504 9.29054C11.0254 9.02804 11.9004 8.94054 12.7754 8.94054C14.1754 8.94054 15.5754 9.29054 16.8004 9.90304C15.9254 7.97804 13.7379 7.10304 11.8129 7.89054C11.1129 8.24054 10.5879 8.67804 10.1504 9.29054ZM25.2004 9.90304C26.4254 9.29054 27.8254 8.94054 29.2254 8.94054C30.1004 8.94054 30.9754 9.11554 31.8504 9.29054C31.0629 8.24054 29.9254 7.62804 28.6129 7.62804C27.1254 7.62804 25.7254 8.50304 25.2004 9.90304ZM25.2004 18.128C28.7004 15.853 33.2504 15.7655 36.7504 17.953L34.0379 12.528C33.9504 12.353 33.8629 12.2655 33.6879 12.178C33.6879 12.178 32.2879 10.778 29.1379 10.778C27.1254 10.778 25.9004 11.303 24.8504 12.2655C24.6754 12.353 24.5879 12.6155 24.5004 12.7905L24.0629 15.503H23.1004C22.8379 15.328 22.6629 15.153 22.4004 15.0655C21.5254 14.7155 20.5629 14.7155 19.6879 15.0655C19.4254 15.153 19.1629 15.328 18.9879 15.503H18.0254L17.5004 12.703C17.5004 12.6155 17.4129 12.4405 17.4129 12.4405C15.7504 11.0405 14.1754 10.778 12.8629 10.778C11.3754 10.778 10.5879 10.6905 8.31289 12.178C8.13789 12.2655 8.05039 12.353 7.96289 12.528L5.33789 17.953C8.83789 15.853 13.3004 15.853 16.8004 18.128C17.4129 18.5655 21.0004 22.9405 21.0004 22.9405C21.0004 22.9405 24.5004 18.5655 25.2004 18.128Z" fill="#F5A623"/>
<path d="M10.9375 18.1279C5.8625 18.1279 1.75 22.2404 1.75 27.3154C1.75 32.3904 5.8625 36.5029 10.9375 36.5029C16.0125 36.5029 20.125 32.3904 20.125 27.3154C20.125 22.2404 16.0125 18.1279 10.9375 18.1279ZM10.9375 33.3529C7.6125 33.3529 4.8125 30.6404 4.8125 27.2279C4.8125 23.9029 7.525 21.1029 10.9375 21.1029C14.35 21.1029 17.0625 23.8154 17.0625 27.2279C17.0625 30.6404 14.2625 33.3529 10.9375 33.3529ZM31.0625 18.1279C25.9875 18.1279 21.875 22.2404 21.875 27.3154C21.875 32.3904 25.9875 36.5029 31.0625 36.5029C36.1375 36.5029 40.25 32.3904 40.25 27.3154C40.25 22.2404 36.1375 18.1279 31.0625 18.1279ZM31.0625 33.3529C27.7375 33.3529 24.9375 30.6404 24.9375 27.2279C24.9375 23.9029 27.65 21.1029 31.0625 21.1029C34.475 21.1029 37.1875 23.8154 37.1875 27.2279C37.1875 30.6404 34.3875 33.3529 31.0625 33.3529Z" fill="#F5A623"/>
</svg>
