<svg width="42" height="43" viewBox="0 0 42 43" fill="none" xmlns="http://www.w3.org/2000/svg">
<path d="M38.3086 6.8623H3.69141C1.66015 6.8623 0 8.51515 0 10.5537V32.7021C0 34.7414 1.66121 36.3936 3.69141 36.3936H38.3086C40.3399 36.3936 42 34.7407 42 32.7021V10.5537C42 8.51466 40.339 6.8623 38.3086 6.8623ZM37.7418 9.32324L21.9535 25.163C21.4725 25.6455 20.5277 25.6458 20.0465 25.163L4.25824 9.32324H37.7418ZM2.46094 32.2497V11.0061L13.0483 21.6279L2.46094 32.2497ZM4.25824 33.9326L14.7856 23.3709L18.3036 26.9003C19.7452 28.3466 22.2554 28.346 23.6965 26.9003L27.2144 23.371L37.7418 33.9326H4.25824ZM39.5391 32.2497L28.9517 21.6279L39.5391 11.0061V32.2497Z" fill="#F5A623"/>
</svg>
