<svg width="43" height="43" viewBox="0 0 43 43" fill="none" xmlns="http://www.w3.org/2000/svg">
<g clip-path="url(#clip0_379_2659)">
<g clip-path="url(#clip1_379_2659)">
<path d="M21.5706 15.2809C22.1486 15.2809 22.6168 14.8125 22.6168 14.2347C22.6168 13.657 22.1486 13.1885 21.5706 13.1885C16.9484 13.1885 13.2012 16.9357 13.2012 21.5582C13.2012 26.1805 16.9484 29.9277 21.5706 29.9277C26.1932 29.9277 29.9404 26.1805 29.9404 21.5582C29.9404 20.9802 29.4719 20.5121 28.8942 20.5121C28.3164 20.5121 27.8479 20.9802 27.8479 21.5582C27.8479 25.025 25.0377 27.8356 21.5706 27.8356C18.1039 27.8356 15.2933 25.025 15.2933 21.5582C15.2933 18.0912 18.1039 15.2809 21.5706 15.2809Z" fill="#F5A623"/>
<path d="M41.5319 15.3439C41.3502 14.795 40.7581 14.4973 40.2088 14.679C39.6724 14.8565 39.3737 15.4275 39.5337 15.9693C42.6623 25.9326 37.122 36.5457 27.1588 39.6744C17.1959 42.8031 6.58275 37.2629 3.45409 27.2996C0.325012 17.3364 5.86564 6.72326 15.8286 3.59451C19.5165 2.43646 23.4708 2.43646 27.1588 3.59451C27.7125 3.76144 28.2966 3.44808 28.4636 2.89437C28.628 2.34895 28.3265 1.77252 27.7846 1.59631C16.7216 -1.87467 4.93926 4.27996 1.46836 15.3432C-2.00262 26.4062 4.15225 38.1886 15.2153 41.6595C26.2786 45.1305 38.0606 38.9758 41.5315 27.9125C42.8151 23.8213 42.8152 19.4352 41.5319 15.3439H41.5319Z" fill="#F5A623"/>
<path d="M23.563 8.10247C23.5685 7.50676 23.1109 7.00883 22.5168 6.96429C22.2044 6.93771 21.8917 6.91113 21.5708 6.91113C13.4815 6.91113 6.92383 13.4688 6.92383 21.5581C6.92383 29.6472 13.4815 36.2049 21.5708 36.2049C29.6599 36.2049 36.2176 29.6472 36.2176 21.5582C36.2176 21.1797 36.1945 20.8016 36.1481 20.4261C36.0644 19.8519 35.5312 19.4542 34.957 19.5379C34.3828 19.6211 33.9851 20.1547 34.0685 20.729C34.0717 20.7507 34.0755 20.7721 34.0799 20.7939C34.1028 21.0474 34.1251 21.2986 34.1251 21.5576C34.1255 28.4914 28.5048 34.1121 21.5712 34.1128C14.6373 34.1131 9.01653 28.492 9.01628 21.5585C9.01595 14.6249 14.6363 9.00383 21.5703 9.00359H21.5705C21.8301 9.00359 22.0816 9.02598 22.3345 9.04838L22.5305 9.06478C23.0773 9.08816 23.5393 8.66389 23.5624 8.11724C23.5627 8.11207 23.5627 8.10731 23.563 8.10247Z" fill="#F5A623"/>
<path d="M27.847 10.0497V13.8014L20.8301 20.8183C20.4145 21.2198 20.403 21.8822 20.8045 22.2977C21.206 22.7133 21.8684 22.7249 22.2839 22.3234C22.2926 22.3151 22.3012 22.3064 22.3096 22.2977L29.3266 15.2809H33.0781C33.3556 15.2809 33.6215 15.1706 33.818 14.9742L40.095 8.69688C40.5036 8.28836 40.5036 7.62604 40.095 7.21745C39.9979 7.12032 39.8826 7.04328 39.7557 6.99073C39.6288 6.93817 39.4928 6.91113 39.3554 6.91114H36.2168V3.77246C36.2168 3.19471 35.7484 2.72623 35.1702 2.72656C34.893 2.72663 34.6271 2.8368 34.431 3.03287L28.1537 9.31023C28.0565 9.40728 27.9793 9.52255 27.9267 9.64945C27.8741 9.77634 27.847 9.91237 27.847 10.0497ZM29.9395 10.483L34.1243 6.29812V7.95737C34.1243 8.53511 34.5928 9.00359 35.1705 9.00359H36.8298L32.6449 13.1884H29.9395V10.483Z" fill="#F5A623"/>
</g>
</g>
<defs>
<clipPath id="clip0_379_2659">
<rect width="42" height="42" fill="white" transform="translate(0.5 0.62793)"/>
</clipPath>
<clipPath id="clip1_379_2659">
<rect width="42" height="42" fill="white" transform="translate(0.5 0.62793)"/>
</clipPath>
</defs>
</svg>
