<svg width="58" height="58" viewBox="0 0 58 58" fill="none" xmlns="http://www.w3.org/2000/svg">
<g clip-path="url(#clip0_94_2287)">
<g clip-path="url(#clip1_94_2287)">
<path d="M56.1156 24.1722L21.8347 4.12763C20.3447 3.25627 18.6044 3.01724 16.9346 3.45474C15.2649 3.89223 13.8653 4.95401 12.9939 6.44434L8.71439 13.7638C7.83612 15.2656 7.60197 17.0775 8.07186 18.7349C8.5354 20.3696 9.61339 21.7106 11.1085 22.5133L17.7225 26.3807L17.7358 26.3884L18.5474 26.8631L18.3326 27.2888C17.4097 28.9048 17.7717 31.0247 19.0779 32.1271L15.178 38.8372L6.8295 38.8274L6.83358 33.8189C6.83415 33.1937 6.32812 32.6863 5.70303 32.6852L2.28828 32.6786L2.29247 28.4019C2.29315 27.7762 1.78633 27.2686 1.16079 27.2679H1.15966C0.534462 27.2679 0.0274147 27.7744 0.0268483 28.3996L6.82839e-07 55.6379C-0.000679005 56.2635 0.506141 56.7711 1.13168 56.7718H1.13281C1.75801 56.7718 2.26506 56.2653 2.26563 55.6401L2.26982 51.3622L5.68502 51.3686H5.68729C5.83599 51.3687 5.98325 51.3395 6.12067 51.2827C6.25808 51.2258 6.38295 51.1425 6.48814 51.0374C6.59334 50.9323 6.6768 50.8075 6.73376 50.6701C6.79072 50.5328 6.82005 50.3855 6.8201 50.2368L6.82418 45.2292L17.0152 45.2414C18.1449 45.2414 19.2029 44.6356 19.7775 43.6581C20.3926 42.6059 21.4006 40.8698 22.4152 39.1226C23.1925 37.7841 23.9895 36.4115 24.6068 35.3516C24.9758 35.4856 25.3663 35.5516 25.7612 35.5516C27.0854 35.5516 28.4535 34.8281 29.1798 33.5874C29.1917 33.567 29.203 33.5463 29.2136 33.5252L29.3794 33.1966L37.3666 37.867C37.7266 38.1443 38.1682 38.295 38.6227 38.2954C38.7344 38.2954 38.8469 38.2862 38.9588 38.2678C39.5979 38.162 40.1574 37.7713 40.494 37.1959L41.3299 35.7663L42.4819 36.4315C43.4475 36.9906 44.5435 37.2849 45.6593 37.2845C47.8644 37.2844 50.0122 36.1408 51.1917 34.0978C52.2376 32.2861 52.3154 30.1196 51.4695 28.2671L56.0166 26.1797C56.205 26.0933 56.366 25.9567 56.4822 25.785C56.5984 25.6134 56.6652 25.4131 56.6754 25.206C56.6856 24.999 56.6388 24.7931 56.5401 24.6108C56.4414 24.4285 56.2945 24.2768 56.1156 24.1722ZM4.55527 49.1008L2.27197 49.0965L2.28579 34.9442L4.56682 34.9486L4.55527 49.1008ZM20.4559 37.9848C19.4425 39.7299 18.4355 41.4639 17.8228 42.5124C17.6523 42.8025 17.3503 42.9756 17.0164 42.9756L6.82588 42.9635L6.82746 41.0929L16.4805 41.1043L21.0105 33.3102L22.6244 34.2535C22.0096 35.3092 21.2234 36.6634 20.4559 37.9848ZM27.2088 32.469C26.7872 33.1569 25.8227 33.4991 25.2427 33.1597L20.6563 30.4788C20.0681 30.1346 19.8954 29.1046 20.3077 28.3992C20.3195 28.3791 20.3305 28.3587 20.341 28.338L20.5072 28.0088L27.4198 32.0508L27.2088 32.469ZM38.5922 35.9592L38.5834 35.954L21.2153 25.7984L28.3961 23.8744L41.2566 31.4028L38.5922 35.9592ZM49.2294 32.9648C48.0962 34.9276 45.5774 35.6023 43.6146 34.4693L42.4733 33.8104L43.6035 31.8776L49.4093 29.2125C49.952 30.4065 49.902 31.8 49.2294 32.9648ZM42.8695 29.7217L29.1323 21.6801C29.0029 21.6044 28.8598 21.5551 28.7113 21.5351C28.5627 21.515 28.4116 21.5247 28.2668 21.5635L18.4645 24.1901L12.2335 20.5466C12.2204 20.539 12.2071 20.5316 12.1937 20.5245C11.2373 20.0155 10.5474 19.1605 10.2514 18.117C9.9444 17.034 10.093 15.8943 10.67 14.9076L14.9496 7.58803C15.5155 6.62027 16.4244 5.93073 17.5087 5.64662C18.5932 5.36251 19.7232 5.5177 20.6909 6.08365L53.0921 25.0292L42.8695 29.7217ZM19.4461 9.56524L25.2861 12.9801C25.8262 13.2959 26.0079 13.9898 25.6922 14.5299C25.6171 14.6584 25.5175 14.7708 25.399 14.8607C25.2804 14.9507 25.1454 15.0164 25.0014 15.0541C24.8575 15.0918 24.7076 15.1008 24.5602 15.0805C24.4128 15.0603 24.2708 15.0112 24.1424 14.936L18.3024 11.5212C17.7623 11.2053 17.5806 10.5115 17.8963 9.97135C18.2122 9.43134 18.9058 9.2493 19.4461 9.56524ZM57.1604 11.3623C57.0623 11.3886 56.9636 11.4012 56.8665 11.4012C56.3663 11.4012 55.9086 11.0675 55.773 10.5612C55.114 8.10176 53.5366 6.04593 51.3312 4.77265C49.1259 3.49948 46.557 3.16134 44.0973 3.8203C43.4929 3.98251 42.872 3.62364 42.71 3.01928C42.548 2.41493 42.9066 1.79381 43.511 1.63181C46.5551 0.815963 49.7347 1.23465 52.4641 2.81051C55.1935 4.38636 57.1457 6.93077 57.9614 9.97487C58.1234 10.5793 57.7647 11.2005 57.1604 11.3623ZM48.7566 9.23208C47.7424 8.64653 46.561 8.49099 45.4301 8.79414C44.8256 8.95624 44.2046 8.59748 44.0426 7.99312C43.8806 7.38877 44.2393 6.76765 44.8435 6.60565C46.5593 6.14573 48.3514 6.38181 49.8894 7.26994C51.4277 8.15806 52.5281 9.59209 52.9878 11.3077C53.1497 11.912 52.7911 12.5332 52.1867 12.6951C52.0886 12.7214 51.99 12.7339 51.8929 12.7339C51.3926 12.7339 50.935 12.4002 50.7994 11.894C50.4963 10.763 49.7708 9.81763 48.7566 9.23208ZM47.2725 11.8027C47.9497 12.1936 48.1816 13.0595 47.7906 13.7366C47.3997 14.4137 46.5339 14.6457 45.8567 14.2547C45.1795 13.8638 44.9475 12.9979 45.3384 12.3208C45.7295 11.6437 46.5954 11.4117 47.2725 11.8027Z" fill="white"/>
</g>
</g>
<defs>
<clipPath id="clip0_94_2287">
<rect width="58" height="58" fill="white"/>
</clipPath>
<clipPath id="clip1_94_2287">
<rect width="58" height="58" fill="white"/>
</clipPath>
</defs>
</svg>
