<svg width="58" height="58" viewBox="0 0 58 58" fill="none" xmlns="http://www.w3.org/2000/svg">
<g clip-path="url(#clip0_96_2358)">
<g clip-path="url(#clip1_96_2358)">
<path d="M55.1002 19.3321H53.9558C53.759 18.7671 53.3912 18.2773 52.9035 17.9307C52.4157 17.5841 51.8322 17.3979 51.2339 17.3979C50.6355 17.3979 50.052 17.5841 49.5643 17.9307C49.0765 18.2773 48.7088 18.7671 48.5119 19.3321H45.4344V9.48832C45.9994 9.2915 46.4892 8.92372 46.8358 8.43598C47.1824 7.94824 47.3686 7.36472 47.3686 6.76638C47.3686 6.16804 47.1824 5.58452 46.8358 5.09678C46.4892 4.60904 45.9994 4.24125 45.4344 4.04444V2.90003C45.4344 1.29856 44.1361 0.000259754 42.5346 0.000259754H29.0022C27.4007 0.000259754 26.1024 1.29856 26.1024 2.90003V4.04444C25.5373 4.24125 25.0476 4.60904 24.701 5.09678C24.3544 5.58452 24.1682 6.16804 24.1682 6.76638C24.1682 7.36472 24.3544 7.94824 24.701 8.43598C25.0476 8.92372 25.5373 9.2915 26.1024 9.48832V19.3321H22.0581C21.8613 18.7671 21.4935 18.2773 21.0058 17.9307C20.518 17.5841 19.9345 17.3979 19.3362 17.3979C18.7378 17.3979 18.1543 17.5841 17.6666 17.9307C17.1788 18.2773 16.8111 18.7671 16.6142 19.3321H14.5032V17.0703C17.5141 15.3275 19.3586 12.1035 19.3352 8.62467C19.3119 5.14585 17.4242 1.94703 14.3901 0.244732C14.107 0.0833729 13.7866 -0.000942539 13.4607 0.000194454C13.1349 0.00133145 12.815 0.0878811 12.533 0.251212C12.251 0.414542 12.0168 0.648945 11.8537 0.931043C11.6906 1.21314 11.6043 1.53308 11.6034 1.85894V6.76638C11.6047 7.02787 11.5525 7.28687 11.4499 7.52741C11.3473 7.76795 11.1966 7.98495 11.007 8.16503C10.8158 8.34521 10.5905 8.48532 10.3443 8.57712C10.0981 8.66892 9.83608 8.71055 9.57358 8.69956C8.51209 8.58771 7.71356 7.68078 7.73702 6.61364V1.85903C7.73849 1.53753 7.65552 1.22128 7.49641 0.9419C7.3373 0.662523 7.10764 0.429814 6.83038 0.267044C6.54814 0.0983905 6.22637 0.00725346 5.89761 0.00284803C5.56885 -0.0015574 5.24476 0.080925 4.9581 0.241955C1.92016 1.93277 0.0268182 5.12728 0.00172944 8.60399C-0.0233593 12.0807 1.82402 15.3021 4.83726 17.0365V40.9597C3.35643 41.8117 2.12836 43.0416 1.27853 44.5237C0.428699 46.0058 -0.0124138 47.6869 0.00026584 49.3953C0.0129455 51.1037 0.478963 52.7781 1.3507 54.2474C2.22243 55.7167 3.46863 56.9282 4.96194 57.7582C5.24869 57.9168 5.57201 57.9975 5.89968 57.9923C6.22734 57.987 6.54791 57.896 6.82942 57.7282C7.10671 57.5656 7.33647 57.3331 7.49574 57.0539C7.65501 56.7747 7.73821 56.4586 7.73702 56.1372V51.3825C7.71203 50.319 8.50462 49.4131 9.56199 49.2966C9.82482 49.2818 10.0879 49.3209 10.3351 49.4115C10.5822 49.502 10.8083 49.6421 10.9995 49.8231C11.1906 50.0041 11.3428 50.2222 11.4466 50.4641C11.5505 50.706 11.6039 50.9665 11.6035 51.2297V56.1391C11.6016 56.4638 11.6859 56.7832 11.8478 57.0647C12.0096 57.3463 12.2432 57.5799 12.5247 57.7417C12.8059 57.9082 13.1262 57.9972 13.4531 57.9998C13.7799 58.0023 14.1016 57.9183 14.3854 57.7562C15.8772 56.9208 17.1212 55.7052 17.9909 54.2332C18.8606 52.7611 19.3251 51.085 19.337 49.3753C19.349 47.6655 18.9081 45.9831 18.0591 44.499C17.21 43.0149 15.9832 41.782 14.5032 40.9258V38.664H16.6133C16.8101 39.229 17.1779 39.7188 17.6656 40.0654C18.1534 40.412 18.7369 40.5982 19.3352 40.5982C19.9336 40.5982 20.5171 40.412 21.0048 40.0654C21.4926 39.7188 21.8603 39.229 22.0572 38.664H30.1331C30.5144 38.6653 30.8922 38.5908 31.2445 38.4448C31.5968 38.2987 31.9166 38.0841 32.1852 37.8134L33.2668 36.7308H41.393C41.5924 37.295 41.9616 37.7837 42.4498 38.1298C42.9379 38.4759 43.5213 38.6625 44.1197 38.664H48.5118C48.7087 39.229 49.0765 39.7188 49.5642 40.0654C50.0519 40.412 50.6354 40.5982 51.2338 40.5982C51.8321 40.5982 52.4156 40.412 52.9034 40.0654C53.3911 39.7188 53.7589 39.229 53.9557 38.664H55.1001C56.7016 38.664 57.9999 37.3657 57.9999 35.7642V22.2319C58 20.6304 56.7017 19.3321 55.1002 19.3321ZM28.0356 2.90003C28.0356 2.36617 28.4683 1.93344 29.0022 1.93344H42.5345C43.0683 1.93344 43.5011 2.36617 43.5011 2.90003V3.86661H28.0356V2.90003ZM27.069 5.79979H44.4677C45.0015 5.79979 45.4343 6.23253 45.4343 6.76638C45.4343 7.30023 45.0015 7.73297 44.4677 7.73297H27.069C26.5351 7.73297 26.1024 7.30023 26.1024 6.76638C26.1024 6.23262 26.5351 5.79979 27.069 5.79979ZM28.0356 9.66624H43.5011V19.3322H28.0356V9.66624ZM17.4031 49.2966C17.4038 50.6569 17.0469 51.9936 16.3684 53.1726C15.6898 54.3516 14.7133 55.3316 13.5367 56.0144V51.2297C13.5375 50.7041 13.4311 50.1839 13.224 49.7007C13.0169 49.2176 12.7135 48.7818 12.3322 48.42C11.951 48.0581 11.5 47.7778 11.0068 47.5961C10.5135 47.4144 9.98842 47.3353 9.46355 47.3634C7.37103 47.5209 5.76525 49.2844 5.80404 51.3825V56.0125C4.58985 55.3112 3.58886 54.2934 2.90792 53.0677C2.22698 51.842 1.89163 50.4544 1.93768 49.0531C1.99995 47.6617 2.43124 46.312 3.18729 45.1423C3.94335 43.9726 4.99695 43.0251 6.24003 42.397C6.39968 42.3164 6.53382 42.193 6.62751 42.0406C6.72121 41.8882 6.77078 41.7128 6.77072 41.5339V16.4623C6.77062 16.2836 6.72096 16.1084 6.62728 15.9562C6.53359 15.804 6.39955 15.6807 6.24003 15.6001C4.9971 14.9721 3.94359 14.0248 3.18754 12.8553C2.4315 11.6858 2.00013 10.3363 1.93768 8.94508C1.89154 7.54367 2.22684 6.15604 2.9078 4.93032C3.58875 3.7046 4.58978 2.68682 5.80404 1.98563V6.61566C5.76976 8.7167 7.38137 10.4793 9.47705 10.6328C10.0008 10.659 10.5244 10.5784 11.0161 10.3959C11.5077 10.2133 11.9571 9.9327 12.3368 9.57103C12.7166 9.20937 13.0188 8.77424 13.2251 8.2921C13.4314 7.80996 13.5375 7.2909 13.5368 6.76648V1.98371C14.7481 2.68537 15.7468 3.70204 16.4266 4.92571C17.1065 6.14938 17.4422 7.53436 17.3981 8.93351C17.3539 10.3327 16.9317 11.6937 16.1761 12.8722C15.4205 14.0506 14.3598 15.0023 13.1067 15.6263C12.9449 15.7067 12.8089 15.8308 12.7141 15.9845C12.6193 16.1383 12.5694 16.3156 12.5703 16.4962V41.504C12.5695 41.6847 12.6193 41.8619 12.7141 42.0157C12.8089 42.1694 12.9449 42.2936 13.1067 42.374C15.7444 43.6703 17.4121 46.3573 17.4031 49.2966ZM14.5032 21.2653H16.4364V36.7308H14.5032V21.2653ZM19.3363 38.6641C18.8024 38.6641 18.3697 38.2314 18.3697 37.6975V20.2987C18.3697 19.7649 18.8024 19.3321 19.3363 19.3321C19.8701 19.3321 20.3029 19.7649 20.3029 20.2987V37.6974C20.3029 38.2313 19.87 38.6641 19.3363 38.6641ZM36.039 31.6079L34.1861 29.1305L38.6681 25.2786V29.6592C38.668 30.0407 38.7806 30.4136 38.992 30.7311L40.6574 33.2347L40.9696 34.7976H35.1971L35.8592 34.1336C36.5333 33.451 36.6096 32.3791 36.039 31.6079ZM43.1715 35.9576L42.5538 32.8645C42.5042 32.6156 42.4057 32.379 42.2639 32.1685L40.6013 29.6592V25.0109C40.6037 24.6644 40.5054 24.3246 40.3184 24.0329C40.1313 23.7412 39.8636 23.5101 39.5477 23.3677C39.309 23.2571 39.0491 23.1994 38.786 23.1986C38.3547 23.1994 37.9382 23.3555 37.6126 23.6384L32.9265 27.6604C32.1552 28.325 32.0287 29.4727 32.6366 30.2895L34.4915 32.7678L30.8185 36.4477C30.7287 36.5379 30.6219 36.6094 30.5043 36.6581C30.3866 36.7067 30.2605 36.7314 30.1332 36.7309H22.2361V21.2653H48.3342V36.7308H44.1199C43.8969 36.7311 43.6806 36.6543 43.5077 36.5134C43.3349 36.3724 43.2161 36.1761 43.1715 35.9576ZM51.2339 38.6641C50.7 38.6641 50.2673 38.2314 50.2673 37.6975V20.2987C50.2673 19.7649 50.7 19.3321 51.2339 19.3321C51.7677 19.3321 52.2005 19.7649 52.2005 20.2987V37.6974C52.2005 38.2313 51.7676 38.6641 51.2339 38.6641ZM56.0668 35.7642C56.0668 36.2981 55.6341 36.7308 55.1002 36.7308H54.1337V21.2653H55.1002C55.6341 21.2653 56.0668 21.698 56.0668 22.2319V35.7642Z" fill="white"/>
<path fill-rule="evenodd" clip-rule="evenodd" d="M38 51.0575C39.6952 51.0575 41.0303 49.7237 41.0303 48.1258C41.0303 47.9442 40.9111 47.4499 40.4716 46.6175C40.0659 45.8489 39.503 45.0041 38.9071 44.196C38.5988 43.778 38.2893 43.3801 38 43.02C37.7107 43.3801 37.4012 43.778 37.0929 44.196C36.497 45.0041 35.9341 45.8489 35.5284 46.6175C35.0889 47.4499 34.9697 47.9442 34.9697 48.1258C34.9697 49.7237 36.3048 51.0575 38 51.0575ZM36.7135 41.4965C35.232 43.3046 33 46.3272 33 48.1258C33 50.8177 35.2386 53 38 53C40.7614 53 43 50.8177 43 48.1258C43 46.3272 40.768 43.3046 39.2865 41.4965C38.5507 40.5985 38 40 38 40C38 40 37.4493 40.5985 36.7135 41.4965Z" fill="white"/>
</g>
</g>
<defs>
<clipPath id="clip0_96_2358">
<rect width="58" height="58" fill="white"/>
</clipPath>
<clipPath id="clip1_96_2358">
<rect width="58" height="58" fill="white"/>
</clipPath>
</defs>
</svg>
