<svg width="58" height="58" viewBox="0 0 58 58" fill="none" xmlns="http://www.w3.org/2000/svg">
<g clip-path="url(#clip0_99_3675)">
<path d="M54.8865 40.0005H54.4167V39.0591C54.4167 36.4724 49.5379 35.2939 45.0036 35.2939C40.4693 35.2939 35.5904 36.4724 35.5904 39.0591V40.0005C35.2465 39.9451 34.8947 39.9641 34.5587 40.0562C34.2227 40.1483 33.9104 40.3113 33.6428 40.5343C33.3752 40.7573 33.1585 41.0351 33.0073 41.349C32.8561 41.6628 32.774 42.0055 32.7665 42.3537V43.2951C32.774 43.6433 32.8561 43.986 33.0073 44.2998C33.1585 44.6137 33.3752 44.8915 33.6428 45.1145C33.9104 45.3375 34.2227 45.5006 34.5587 45.5927C34.8947 45.6847 35.2465 45.7037 35.5904 45.6484V52.2404C35.5681 53.0013 35.7805 53.7507 36.1986 54.3869C36.6167 55.0231 37.2204 55.5153 37.9277 55.7967C42.4816 57.4382 47.4645 57.4452 52.023 55.8165C52.742 55.539 53.3578 55.0464 53.7862 54.4058C54.2147 53.7653 54.4349 53.008 54.4167 52.2376V45.6484C54.7606 45.7038 55.1124 45.6848 55.4483 45.5927C55.7842 45.5006 56.0965 45.3375 56.3641 45.1145C56.6316 44.8914 56.8482 44.6136 56.9993 44.2998C57.1503 43.9859 57.2323 43.6433 57.2398 43.2951V42.3537C57.239 41.7298 56.9908 41.1317 56.5497 40.6905C56.1085 40.2494 55.5104 40.0012 54.8865 40.0005ZM35.5895 43.7657C34.3695 43.8843 34.6896 43.2226 34.6481 42.3537C34.6632 41.8247 35.2101 41.8718 35.5895 41.8831V43.7657ZM37.473 41.4388C39.8553 42.4335 42.4232 42.906 45.0036 42.8244C47.5839 42.906 50.1518 42.4335 52.5341 41.4388V43.425C49.4353 47.5978 40.5728 47.5978 37.473 43.4268V41.4388ZM52.5341 52.2376C52.5523 52.619 52.4528 52.9968 52.249 53.3197C52.0453 53.6427 51.7472 53.8952 51.3951 54.043C47.2441 55.5198 42.7097 55.5132 38.5631 54.0242C38.2232 53.8707 37.9374 53.6184 37.7429 53.3003C37.5483 52.9822 37.454 52.6129 37.4721 52.2404V46.0654C41.3183 49.2385 48.6888 49.2376 52.5332 46.0635L52.5341 52.2376ZM45.0036 40.9418C40.0626 40.9418 37.473 39.542 37.473 39.0591C37.473 38.5762 40.0626 37.1765 45.0036 37.1765C49.9445 37.1765 52.5341 38.5753 52.5341 39.0591C52.5341 39.543 49.9455 40.9418 45.0036 40.9418ZM55.3571 43.2951C55.3421 43.8231 54.797 43.7751 54.4167 43.7657V41.8831C55.631 41.7598 55.3185 42.4319 55.3571 43.2951ZM14.3769 12.2005C14.5993 12.3138 14.8575 12.3343 15.095 12.2576C15.3325 12.1808 15.5299 12.0131 15.6439 11.7911C16.7064 9.66319 18.431 7.93784 20.5585 6.87457C20.6685 6.8182 20.7664 6.74071 20.8464 6.64653C20.9265 6.55235 20.9873 6.44332 21.0252 6.32567C21.0631 6.20802 21.0775 6.08404 21.0675 5.96083C21.0576 5.83761 21.0234 5.71757 20.967 5.60755C20.9107 5.49754 20.8332 5.3997 20.739 5.31963C20.6448 5.23955 20.5358 5.17882 20.4182 5.14088C20.1805 5.06427 19.9222 5.08518 19.7 5.19902C18.4762 5.8281 17.3569 6.64254 16.3819 7.6135C15.4082 8.58727 14.5934 9.70791 13.9674 10.9345C13.8542 11.1567 13.8337 11.4148 13.9105 11.6521C13.9872 11.8895 14.155 12.0867 14.3769 12.2005Z" fill="white"/>
<path d="M5.77612 11.6791C5.42547 11.3248 5.22878 10.8465 5.22878 10.3481C5.22878 9.8496 5.42547 9.37129 5.77612 9.01703L9.78425 5.00985C10.1428 4.66736 10.6195 4.47625 11.1153 4.47625C11.6111 4.47625 12.0878 4.66736 12.4463 5.00985L13.0873 5.64994C11.5596 7.54858 8.25085 11.4993 10.5599 13.7735L32.8503 36.062C33.2404 36.452 33.7359 36.7197 34.276 36.8323C34.8161 36.9448 35.3773 36.8973 35.8907 36.6955C38.0628 35.8396 40.035 34.5449 41.6841 32.8924C43.3332 31.2399 44.6238 29.2651 45.4752 27.0913C45.6725 26.582 45.7168 26.0263 45.6028 25.4922C45.4888 24.9581 45.2213 24.4689 44.8332 24.0847C43.7479 23.0088 35.7505 14.9944 34.4637 13.7142L22.5429 1.79525C20.2244 -0.510979 16.3641 2.77987 14.4193 4.31986L13.7773 3.67882C13.0603 2.99386 12.1069 2.61163 11.1153 2.61163C10.1237 2.61163 9.17023 2.99386 8.45323 3.67882L4.4451 7.68601C4.09544 8.03565 3.81808 8.45074 3.62884 8.90757C3.43961 9.36441 3.34221 9.85404 3.34221 10.3485C3.34221 10.843 3.43961 11.3326 3.62884 11.7895C3.81808 12.2463 4.09544 12.6614 4.4451 13.011L22.492 31.058L18.6063 34.9428C17.8826 34.4735 17.02 34.2664 16.1622 34.356C15.3044 34.4456 14.5032 34.8264 13.8922 35.4351L13.2972 36.0291C12.6839 35.897 12.0473 35.9205 11.4454 36.0974C10.8435 36.2743 10.2954 36.599 9.85108 37.0419L1.86401 45.029C1.15848 45.7356 0.762207 46.6934 0.762207 47.692C0.762207 48.6906 1.15848 49.6483 1.86401 50.355L4.52605 53.017C5.23437 53.7191 6.19129 54.1129 7.18857 54.1129C8.18585 54.1129 9.14277 53.7191 9.85108 53.017L17.8382 45.029C18.3282 44.5428 18.6729 43.9297 18.8337 43.2584C18.9945 42.5871 18.965 41.8843 18.7484 41.2289C19.4775 40.6749 19.9888 39.8825 20.1932 38.9899C20.3976 38.0974 20.282 37.1614 19.8667 36.3453L24.4886 31.7235C24.5761 31.6361 24.6455 31.5322 24.6929 31.418C24.7403 31.3037 24.7646 31.1812 24.7646 31.0575C24.7646 30.9338 24.7403 30.8113 24.6929 30.697C24.6455 30.5828 24.5761 30.4789 24.4886 30.3915L5.77612 11.6791ZM41.0087 22.9222C40.8297 23.094 40.5911 23.1899 40.343 23.1898C40.0948 23.1896 39.8564 23.0933 39.6777 22.9212C39.1472 22.3933 38.4293 22.097 37.6809 22.0972C36.9326 22.0974 36.2148 22.394 35.6846 22.9222L31.6906 26.9162C31.5141 27.0928 31.2746 27.1921 31.0249 27.1922C30.7752 27.1923 30.5357 27.0931 30.3591 26.9166C30.1825 26.7401 30.0832 26.5007 30.0831 26.251C30.083 26.0013 30.1821 25.7618 30.3586 25.5852L33.0207 22.9231C33.2864 22.6617 33.4978 22.3503 33.6426 22.0067C33.7874 21.6632 33.8628 21.2945 33.8643 20.9217C33.8659 20.5489 33.7936 20.1795 33.6517 19.8348C33.5098 19.4901 33.301 19.1769 33.0375 18.9132C32.7739 18.6496 32.4607 18.4408 32.1161 18.2988C31.7714 18.1568 31.402 18.0844 31.0292 18.0859C30.6564 18.0874 30.2877 18.1627 29.9441 18.3074C29.6006 18.4521 29.2891 18.6634 29.0276 18.9291C28.8501 19.1006 28.6123 19.1954 28.3655 19.1933C28.1187 19.1912 27.8826 19.0922 27.708 18.9176C27.5335 18.7431 27.4345 18.507 27.4324 18.2602C27.4302 18.0134 27.5251 17.7756 27.6966 17.5981L29.0276 16.2671C29.5501 15.7361 29.8417 15.0201 29.8387 14.2751C29.8358 13.5302 29.5386 12.8165 29.0119 12.2897C28.4852 11.7629 27.7716 11.4655 27.0266 11.4624C26.2817 11.4593 25.5656 11.7506 25.0345 12.273C24.8579 12.4496 24.6184 12.5487 24.3687 12.5486C24.119 12.5485 23.8795 12.4492 23.703 12.2726C23.5265 12.0959 23.4274 11.8564 23.4275 11.6067C23.4276 11.357 23.5269 11.1176 23.7035 10.9411L26.3646 8.27904L41.0087 22.9222ZM20.1924 2.91447C20.3646 2.84672 20.5529 2.83067 20.7342 2.86829C20.9154 2.90591 21.0817 2.99556 21.2128 3.12627L25.0345 6.94802L22.3725 9.61006C21.8501 10.1412 21.5587 10.8572 21.5618 11.6022C21.5649 12.3471 21.8623 13.0607 22.3891 13.5874C22.916 14.1141 23.6296 14.4113 24.3746 14.4143C25.1196 14.4172 25.8355 14.1257 26.3665 13.6031C26.4999 13.4761 26.6674 13.3907 26.8485 13.3571C27.0297 13.3235 27.2166 13.3432 27.3867 13.4139C27.5569 13.4846 27.7028 13.6032 27.8067 13.7553C27.9107 13.9074 27.9682 14.0864 27.9724 14.2705C27.9726 14.3942 27.9484 14.5166 27.901 14.6309C27.8537 14.7451 27.7842 14.8488 27.6966 14.936L26.3656 16.2671C25.8368 16.797 25.5399 17.515 25.5399 18.2636C25.5399 19.0122 25.8368 19.7302 26.3656 20.2601C26.9036 20.7733 27.6186 21.0596 28.3621 21.0596C29.1056 21.0596 29.8206 20.7733 30.3586 20.2601C30.5382 20.0891 30.7766 19.9938 31.0246 19.9938C31.2726 19.9938 31.511 20.0891 31.6906 20.2601C31.8661 20.4371 31.9646 20.6763 31.9646 20.9256C31.9646 21.1749 31.8661 21.4141 31.6906 21.5911L29.0276 24.2541C28.5052 24.7852 28.2138 25.5013 28.2169 26.2462C28.2201 26.9912 28.5174 27.7048 29.0443 28.2315C29.5711 28.7582 30.2847 29.0554 31.0297 29.0583C31.7747 29.0613 32.4906 28.7697 33.0216 28.2472L37.0147 24.2541C37.1913 24.0777 37.4308 23.9785 37.6805 23.9784C37.9301 23.9782 38.1697 24.077 38.3466 24.2532C38.8847 24.7664 39.5996 25.0527 40.3432 25.0527C41.0867 25.0527 41.8017 24.7664 42.3397 24.2532L43.5022 25.4157C43.6311 25.5412 43.7206 25.7015 43.7597 25.8771C43.7989 26.0526 43.7859 26.2358 43.7225 26.4041C42.9656 28.3369 41.8181 30.0927 40.3519 31.5619C38.8856 33.0311 37.132 34.182 35.2008 34.9428C35.0288 35.0112 34.8405 35.0276 34.6592 34.9899C34.478 34.9523 34.3118 34.8622 34.1813 34.731L11.8909 12.4415C11.7623 12.3159 11.673 12.1555 11.6341 11.98C11.5951 11.8045 11.6082 11.6214 11.6716 11.4532C12.4284 9.52063 13.5758 7.76498 15.0419 6.29595C16.508 4.82693 18.2614 3.67516 20.1924 2.91447ZM16.5071 43.698L8.52006 51.686C8.1614 52.0285 7.68453 52.2197 7.18857 52.2197C6.69261 52.2197 6.21574 52.0285 5.85708 51.686L3.19503 49.023C2.8425 48.6696 2.64452 48.1907 2.64452 47.6915C2.64452 47.1923 2.8425 46.7135 3.19503 46.36L11.1821 38.3729C11.5364 38.0223 12.0147 37.8256 12.5131 37.8256C13.0116 37.8256 13.4899 38.0223 13.8442 38.3729L16.5071 41.0369C16.8553 41.3923 17.0502 41.8699 17.0502 42.3674C17.0502 42.8649 16.8553 43.3426 16.5071 43.698ZM17.7243 39.591L15.1752 37.0419C15.1374 37.0035 15.0988 36.9658 15.0594 36.929C15.2266 36.7238 15.435 36.556 15.6711 36.4364C15.9072 36.3167 16.1658 36.248 16.4301 36.2345C16.6945 36.221 16.9587 36.2631 17.2058 36.358C17.4528 36.453 17.6772 36.5987 17.8645 36.7857C18.0518 36.9728 18.1977 37.197 18.2929 37.444C18.3881 37.691 18.4305 37.9552 18.4173 38.2195C18.4041 38.4839 18.3356 38.7425 18.2162 38.9787C18.0968 39.215 17.9292 39.4236 17.7243 39.591Z" fill="white"/>
</g>
<defs>
<clipPath id="clip0_99_3675">
<rect width="58" height="58" fill="white"/>
</clipPath>
</defs>
</svg>
