<svg width="58" height="58" viewBox="0 0 58 58" fill="none" xmlns="http://www.w3.org/2000/svg">
<g clip-path="url(#clip0_99_3199)">
<g clip-path="url(#clip1_99_3199)">
<path d="M18.4836 33.0803C17.9398 32.5366 17.2023 32.2312 16.4333 32.2312C15.6644 32.2312 14.9269 32.5366 14.383 33.0803C13.9082 33.5588 13.617 34.1892 13.5604 34.8609C13.2304 34.8233 12.8987 34.803 12.5667 34.8C10.5361 34.7973 8.55644 35.435 6.90917 36.6222C5.2619 37.8095 4.03093 39.4859 3.39132 41.4131C2.75171 43.3403 2.73604 45.42 3.34654 47.3566C3.95703 49.2932 5.16261 50.988 6.7918 52.2H2.9C2.13087 52.2 1.39325 52.5055 0.84939 53.0494C0.305535 53.5932 0 54.3309 0 55.1C0 55.8691 0.305535 56.6067 0.84939 57.1506C1.39325 57.6944 2.13087 58 2.9 58H55.1C55.8691 58 56.6068 57.6944 57.1506 57.1506C57.6945 56.6067 58 55.8691 58 55.1C58 54.3309 57.6945 53.5932 57.1506 53.0494C56.6068 52.5055 55.8691 52.2 55.1 52.2H51.4267L53.9903 38.5323C54.6572 38.3349 55.2306 37.9039 55.6055 37.3181C55.9804 36.7323 56.1317 36.0311 56.0317 35.3428C55.9316 34.6546 55.587 34.0255 55.0608 33.5707C54.5346 33.1159 53.8621 32.866 53.1667 32.8666C53.1657 32.0096 52.8805 31.177 52.3558 30.4993C51.831 29.8216 51.0963 29.3372 50.2667 29.1218V29C50.2656 27.9755 49.939 26.9778 49.334 26.151C48.7291 25.3242 47.877 24.711 46.9009 24.4C45.9248 24.0889 44.875 24.096 43.9032 24.4204C42.9314 24.7447 42.0878 25.3694 41.4942 26.2044C40.998 26.087 40.4835 26.0688 39.9802 26.1508C39.4769 26.2327 38.9948 26.4133 38.5615 26.682C38.1281 26.9507 37.7521 27.3023 37.455 27.7167C37.1579 28.131 36.9455 28.6 36.83 29.0966C35.9783 29.2946 35.2186 29.7748 34.6746 30.4593C34.1305 31.1438 33.834 31.9923 33.8333 32.8666C33.1375 32.865 32.4644 33.1143 31.9375 33.5688C31.4106 34.0232 31.0652 34.6524 30.9647 35.3409C30.8641 36.0294 31.0152 36.7311 31.3901 37.3173C31.765 37.9035 32.3387 38.3348 33.0059 38.5323L35.5733 52.2H29C28.9985 50.6622 28.3869 49.1878 27.2995 48.1005C26.2121 47.0131 24.7378 46.4015 23.2 46.4H22.0303C22.2395 45.4389 22.2876 44.4497 22.1724 43.4729C22.7199 43.4237 23.242 43.2192 23.6774 42.8836C24.1127 42.5479 24.4432 42.095 24.6301 41.578C24.817 41.0611 24.8524 40.5015 24.7323 39.9651C24.6122 39.4286 24.3415 38.9376 23.9521 38.5497L23.2686 37.8662L56.1836 4.95124C56.4566 4.68279 56.6736 4.36296 56.8223 4.0102C56.971 3.65744 57.0484 3.27873 57.05 2.89591C57.0516 2.5131 56.9774 2.13375 56.8317 1.77976C56.6859 1.42576 56.4715 1.10412 56.2009 0.833397C55.9302 0.56267 55.6086 0.348211 55.2547 0.202391C54.9007 0.05657 54.5214 -0.0177262 54.1386 -0.0162127C53.7557 -0.0146992 53.377 0.0625942 53.0242 0.211209C52.6714 0.359824 52.3515 0.576819 52.083 0.849677L19.168 33.7647L18.4836 33.0803ZM37.7 30.9333C37.9564 30.9333 38.2023 30.8315 38.3835 30.6502C38.5648 30.4689 38.6667 30.223 38.6667 29.9666C38.6665 29.6352 38.7515 29.3093 38.9136 29.0202C39.0757 28.7311 39.3093 28.4885 39.5922 28.3157C39.875 28.143 40.1975 28.0458 40.5287 28.0336C40.8599 28.0214 41.1887 28.0945 41.4835 28.246C41.5998 28.3056 41.727 28.341 41.8573 28.3501C41.9877 28.3591 42.1185 28.3417 42.242 28.2988C42.3654 28.2559 42.4788 28.1884 42.5754 28.1004C42.672 28.0124 42.7498 27.9057 42.804 27.7868C43.0822 27.1889 43.5558 26.7037 44.1468 26.4112C44.7377 26.1186 45.4107 26.0362 46.0548 26.1775C46.6989 26.3188 47.2756 26.6754 47.6898 27.1885C48.104 27.7016 48.331 28.3406 48.3333 29C48.3318 29.2502 48.2993 29.4992 48.2367 29.7414C48.1982 29.8951 48.1981 30.0558 48.2363 30.2095C48.2746 30.3632 48.35 30.5052 48.456 30.6229C48.5619 30.7406 48.6952 30.8305 48.8441 30.8846C48.9929 30.9388 49.1528 30.9555 49.3097 30.9333C49.8207 30.9359 50.31 31.1407 50.6705 31.503C51.031 31.8653 51.2333 32.3556 51.2333 32.8666H35.7667C35.7667 32.3539 35.9704 31.8621 36.3329 31.4996C36.6955 31.137 37.1872 30.9333 37.7 30.9333ZM33.8333 34.8H53.1667C53.423 34.8 53.6689 34.9018 53.8502 35.0831C54.0315 35.2644 54.1333 35.5103 54.1333 35.7666C54.1333 36.023 54.0315 36.2689 53.8502 36.4502C53.6689 36.6315 53.423 36.7333 53.1667 36.7333H33.8333C33.577 36.7333 33.3311 36.6315 33.1498 36.4502C32.9685 36.2689 32.8667 36.023 32.8667 35.7666C32.8667 35.5103 32.9685 35.2644 33.1498 35.0831C33.3311 34.9018 33.577 34.8 33.8333 34.8ZM34.9933 38.6666H52.0067L49.4643 52.2H37.5357L34.9933 38.6666ZM36.7333 54.1333H55.1C55.3564 54.1333 55.6022 54.2352 55.7835 54.4164C55.9648 54.5977 56.0667 54.8436 56.0667 55.1C56.0667 55.3564 55.9648 55.6022 55.7835 55.7835C55.6022 55.9648 55.3564 56.0667 55.1 56.0667H2.9C2.64362 56.0667 2.39775 55.9648 2.21646 55.7835C2.03518 55.6022 1.93333 55.3564 1.93333 55.1C1.93333 54.8436 2.03518 54.5977 2.21646 54.4164C2.39775 54.2352 2.64362 54.1333 2.9 54.1333H36.7333ZM18.3667 46.4C18.1103 46.4 17.8644 46.5018 17.6831 46.6831C17.5018 46.8644 17.4 47.1103 17.4 47.3666C17.4 47.623 17.5018 47.8689 17.6831 48.0502C17.8644 48.2315 18.1103 48.3333 18.3667 48.3333H23.2C24.2255 48.3333 25.209 48.7407 25.9341 49.4658C26.6593 50.191 27.0667 51.1745 27.0667 52.2H12.5667C10.5157 52.2 8.54866 51.3852 7.09837 49.9349C5.64809 48.4847 4.83333 46.5177 4.83333 44.4666C4.83333 42.4156 5.64809 40.4486 7.09837 38.9984C8.54866 37.5481 10.5157 36.7333 12.5667 36.7333C13.1033 36.7387 13.6381 36.7986 14.1626 36.9122C14.2303 37.0069 14.3038 37.0958 14.383 37.1819L19.8505 42.6503C19.9365 42.7295 20.0264 42.803 20.1212 42.8716C20.235 43.3958 20.2949 43.9303 20.3 44.4666C20.3 45.1191 20.2178 45.7687 20.0535 46.4H18.3667ZM22.5852 41.2834C22.4954 41.3733 22.3888 41.4446 22.2715 41.4932C22.1541 41.5419 22.0283 41.5669 21.9013 41.5669C21.7742 41.5669 21.6485 41.5419 21.5311 41.4932C21.4138 41.4446 21.3071 41.3733 21.2174 41.2834L15.7499 35.815C15.5738 35.6327 15.4764 35.3885 15.4786 35.135C15.4808 34.8816 15.5824 34.6391 15.7617 34.4599C15.9409 34.2807 16.1834 34.179 16.4368 34.1768C16.6903 34.1746 16.9345 34.272 17.1168 34.4481L18.4827 35.814L19.3034 36.6347L22.5842 39.9156C22.7655 40.0969 22.8673 40.3427 22.8673 40.599C22.8673 40.8553 22.7655 41.1012 22.5842 41.2825L22.5852 41.2834ZM53.4499 2.21654C53.5391 2.12422 53.6457 2.05057 53.7637 1.99991C53.8816 1.94925 54.0085 1.92258 54.1368 1.92147C54.2652 1.92035 54.3925 1.94481 54.5113 1.99342C54.6301 2.04202 54.738 2.1138 54.8287 2.20456C54.9195 2.29533 54.9913 2.40326 55.0399 2.52206C55.0885 2.64086 55.113 2.76815 55.1118 2.8965C55.1107 3.02485 55.0841 3.1517 55.0334 3.26964C54.9827 3.38757 54.9091 3.49424 54.8168 3.58341L21.9018 36.4984L21.5219 36.1195L20.5349 35.1315L53.4499 2.21654Z" fill="white"/>
<path d="M40.6 40.6H38.6667C38.4103 40.6 38.1644 40.7018 37.9831 40.8831C37.8018 41.0644 37.7 41.3103 37.7 41.5667C37.7 41.823 37.8018 42.0689 37.9831 42.2502C38.1644 42.4315 38.4103 42.5333 38.6667 42.5333H40.6C40.8564 42.5333 41.1023 42.4315 41.2835 42.2502C41.4648 42.0689 41.5667 41.823 41.5667 41.5667C41.5667 41.3103 41.4648 41.0644 41.2835 40.8831C41.1023 40.7018 40.8564 40.6 40.6 40.6ZM47.3667 40.6H44.4667C44.2103 40.6 43.9644 40.7018 43.7831 40.8831C43.6018 41.0644 43.5 41.3103 43.5 41.5667C43.5 41.823 43.6018 42.0689 43.7831 42.2502C43.9644 42.4315 44.2103 42.5333 44.4667 42.5333H47.3667C47.623 42.5333 47.8689 42.4315 48.0502 42.2502C48.2315 42.0689 48.3333 41.823 48.3333 41.5667C48.3333 41.3103 48.2315 41.0644 48.0502 40.8831C47.8689 40.7018 47.623 40.6 47.3667 40.6ZM54.1333 27.0667C54.5142 27.0667 54.8913 26.9917 55.2431 26.8459C55.595 26.7002 55.9147 26.4866 56.1839 26.2173C56.4532 25.948 56.6668 25.6283 56.8126 25.2764C56.9583 24.9246 57.0333 24.5475 57.0333 24.1667C57.0333 23.7858 56.9583 23.4087 56.8126 23.0569C56.6668 22.705 56.4532 22.3853 56.1839 22.1161C55.9147 21.8468 55.595 21.6332 55.2431 21.4874C54.8913 21.3417 54.5142 21.2667 54.1333 21.2667C53.3642 21.2667 52.6266 21.5722 52.0827 22.1161C51.5389 22.6599 51.2333 23.3975 51.2333 24.1667C51.2333 24.9358 51.5389 25.6734 52.0827 26.2173C52.6266 26.7611 53.3642 27.0667 54.1333 27.0667ZM54.1333 23.2C54.3897 23.2 54.6356 23.3018 54.8169 23.4831C54.9982 23.6644 55.1 23.9103 55.1 24.1667C55.1 24.423 54.9982 24.6689 54.8169 24.8502C54.6356 25.0315 54.3897 25.1333 54.1333 25.1333C53.877 25.1333 53.6311 25.0315 53.4498 24.8502C53.2685 24.6689 53.1667 24.423 53.1667 24.1667C53.1667 23.9103 53.2685 23.6644 53.4498 23.4831C53.6311 23.3018 53.877 23.2 54.1333 23.2ZM49.3 15.4667C48.5309 15.4667 47.7932 15.7722 47.2494 16.3161C46.7055 16.8599 46.4 17.5975 46.4 18.3667C46.4 19.1358 46.7055 19.8734 47.2494 20.4173C47.7932 20.9611 48.5309 21.2667 49.3 21.2667C50.0691 21.2667 50.8068 20.9611 51.3506 20.4173C51.8945 19.8734 52.2 19.1358 52.2 18.3667C52.2 17.5975 51.8945 16.8599 51.3506 16.3161C50.8068 15.7722 50.0691 15.4667 49.3 15.4667ZM49.3 19.3333C49.0436 19.3333 48.7977 19.2315 48.6165 19.0502C48.4352 18.8689 48.3333 18.623 48.3333 18.3667C48.3333 18.1103 48.4352 17.8644 48.6165 17.6831C48.7977 17.5018 49.0436 17.4 49.3 17.4C49.5564 17.4 49.8023 17.5018 49.9835 17.6831C50.1648 17.8644 50.2667 18.1103 50.2667 18.3667C50.2667 18.623 50.1648 18.8689 49.9835 19.0502C49.8023 19.2315 49.5564 19.3333 49.3 19.3333ZM26.0913 8.5613e-08C25.8397 -0.00010573 25.598 0.0978822 25.4175 0.273148C25.237 0.448414 25.1319 0.687147 25.1246 0.938633V0.966667C25.1246 1.3224 25.0367 9.66667 17.3816 9.66667C17.1253 9.66667 16.8794 9.76851 16.6981 9.9498C16.5168 10.1311 16.415 10.377 16.415 10.6333C16.415 10.8897 16.5168 11.1356 16.6981 11.3169C16.8794 11.4982 17.1253 11.6 17.3816 11.6C25.0067 11.6 25.1237 19.9462 25.1246 20.3C25.1212 20.5564 25.2197 20.8036 25.3985 20.9874C25.5774 21.1711 25.8219 21.2763 26.0783 21.2797C26.3346 21.2832 26.5819 21.1847 26.7656 21.0058C26.9493 20.827 27.0545 20.5825 27.058 20.3261V20.3C27.058 19.9443 27.1459 11.6 34.8 11.6C35.0564 11.6 35.3023 11.4982 35.4835 11.3169C35.6648 11.1356 35.7667 10.8897 35.7667 10.6333C35.7667 10.377 35.6648 10.1311 35.4835 9.9498C35.3023 9.76851 35.0564 9.66667 34.8 9.66667C27.1923 9.66667 27.0599 1.35333 27.058 0.966667C27.058 0.710291 26.9561 0.464415 26.7748 0.28313C26.5936 0.101845 26.3477 8.5613e-08 26.0913 8.5613e-08ZM30.3939 10.6333C28.4144 11.6775 26.8844 13.4087 26.0913 15.5015C25.2982 13.4087 23.7682 11.6775 21.7887 10.6333C23.7682 9.58912 25.2982 7.85799 26.0913 5.7652C26.8844 7.85799 28.4144 9.58912 30.3939 10.6333ZM5.8 29.0048V29.0106C5.80141 29.267 5.90461 29.5123 6.08689 29.6926C6.26917 29.8729 6.51561 29.9734 6.77198 29.972C7.02836 29.9706 7.27367 29.8674 7.45396 29.6851C7.63425 29.5028 7.73474 29.2564 7.73333 29C7.73333 28.7632 7.81453 23.2 12.5667 23.2C12.823 23.2 13.0689 23.0982 13.2502 22.9169C13.4315 22.7356 13.5333 22.4897 13.5333 22.2333C13.5333 21.977 13.4315 21.7311 13.2502 21.5498C13.0689 21.3685 12.823 21.2667 12.5667 21.2667C7.81453 21.2667 7.73333 15.7016 7.73333 15.4667V15.4609C7.73256 15.2045 7.62998 14.9589 7.44815 14.7782C7.26632 14.5974 7.02014 14.4963 6.76377 14.4971C6.50739 14.4979 6.26182 14.6005 6.08108 14.7823C5.90034 14.9641 5.79923 15.2103 5.8 15.4667C5.8 15.7035 5.7188 21.2667 0.966667 21.2667C0.710291 21.2667 0.464415 21.3685 0.28313 21.5498C0.101845 21.7311 0 21.977 0 22.2333C0 22.4897 0.101845 22.7356 0.28313 22.9169C0.464415 23.0982 0.710291 23.2 0.966667 23.2C5.7188 23.2 5.8 28.7651 5.8 29V29.0048ZM4.5008 22.2333C5.47982 21.5807 6.26303 20.6742 6.76667 19.6108C7.2703 20.6742 8.05351 21.5807 9.03253 22.2333C8.05371 22.8862 7.27055 23.7927 6.76667 24.8559C6.26278 23.7927 5.47963 22.8862 4.5008 22.2333ZM10.4332 7.93343L11.8832 9.38343C12.0655 9.55952 12.3097 9.65695 12.5632 9.65475C12.8166 9.65255 13.0591 9.55089 13.2383 9.37166C13.4176 9.19243 13.5192 8.94998 13.5214 8.69652C13.5236 8.44306 13.4262 8.19888 13.2501 8.01657L11.8001 6.56657C11.7109 6.47424 11.6043 6.4006 11.4863 6.34994C11.3684 6.29927 11.2415 6.27261 11.1132 6.27149C10.9848 6.27038 10.8575 6.29483 10.7387 6.34344C10.6199 6.39204 10.512 6.46382 10.4213 6.55458C10.3305 6.64535 10.2587 6.75328 10.2101 6.87208C10.1615 6.99088 10.137 7.11817 10.1382 7.24652C10.1393 7.37487 10.1659 7.50172 10.2166 7.61966C10.2673 7.73759 10.3409 7.84426 10.4332 7.93343ZM7.53323 5.03343C7.71555 5.20952 7.95973 5.30695 8.21319 5.30475C8.46664 5.30255 8.7091 5.20089 8.88832 5.02166C9.06755 4.84243 9.16922 4.59998 9.17142 4.34652C9.17362 4.09306 9.07619 3.84888 8.9001 3.66657L7.4501 2.21657C7.26778 2.04048 7.0236 1.94305 6.77015 1.94525C6.51669 1.94745 6.27424 2.04911 6.09501 2.22834C5.91578 2.40757 5.81412 2.65002 5.81191 2.90348C5.80971 3.15694 5.90715 3.40112 6.08323 3.58343L7.53323 5.03343ZM6.08323 9.38343C6.26451 9.56466 6.51034 9.66646 6.76667 9.66646C7.02299 9.66646 7.26882 9.56466 7.4501 9.38343L8.9001 7.93343C9.07619 7.75112 9.17362 7.50694 9.17142 7.25348C9.16922 7.00002 9.06755 6.75757 8.88832 6.57834C8.7091 6.39911 8.46664 6.29745 8.21319 6.29525C7.95973 6.29305 7.71555 6.39048 7.53323 6.56657L6.08323 8.01657C5.90201 8.19784 5.80021 8.44367 5.80021 8.7C5.80021 8.95633 5.90201 9.20216 6.08323 9.38343ZM11.1167 5.31667C11.373 5.31661 11.6189 5.21473 11.8001 5.03343L13.2501 3.58343C13.3424 3.49426 13.4161 3.38759 13.4667 3.26966C13.5174 3.15172 13.5441 3.02487 13.5452 2.89652C13.5463 2.76817 13.5218 2.64088 13.4732 2.52208C13.4246 2.40328 13.3528 2.29535 13.2621 2.20458C13.1713 2.11382 13.0634 2.04204 12.9446 1.99344C12.8258 1.94483 12.6985 1.92038 12.5701 1.92149C12.4418 1.92261 12.3149 1.94927 12.197 1.99994C12.0791 2.0506 11.9724 2.12424 11.8832 2.21657L10.4332 3.66657C10.2981 3.80176 10.2061 3.97398 10.1688 4.16147C10.1315 4.34896 10.1506 4.54329 10.2238 4.7199C10.2969 4.89651 10.4208 5.04747 10.5797 5.15369C10.7387 5.25991 10.9255 5.31663 11.1167 5.31667Z" fill="white"/>
</g>
</g>
<defs>
<clipPath id="clip0_99_3199">
<rect width="58" height="58" fill="white"/>
</clipPath>
<clipPath id="clip1_99_3199">
<rect width="58" height="58" fill="white"/>
</clipPath>
</defs>
</svg>
