<svg width="58" height="58" viewBox="0 0 58 58" fill="none" xmlns="http://www.w3.org/2000/svg">
<g clip-path="url(#clip0_94_2273)">
<path d="M55.1 4.83337H2.9C1.29843 4.83337 0 6.1318 0 7.73337V25.1334C0 25.3897 0.101841 25.6356 0.283119 25.8169C0.464397 25.9982 0.710263 26.1 0.966629 26.1C1.22299 26.1 1.46886 25.9982 1.65014 25.8169C1.83142 25.6356 1.93326 25.3897 1.93326 25.1334V7.73337C1.93326 7.47701 2.0351 7.23114 2.21638 7.04986C2.39766 6.86859 2.64352 6.76675 2.89989 6.76675H4.83326V14.5C4.83326 16.6355 6.56442 18.3666 8.69989 18.3666H49.2999C51.4354 18.3666 53.1665 16.6355 53.1665 14.5V6.76663H55.1C55.3564 6.76663 55.6022 6.86847 55.7835 7.04975C55.9648 7.23103 56.0666 7.47689 56.0666 7.73326V28.0333C56.0635 30.7013 53.9014 32.8633 51.2333 32.8666H48.3333V30.9333C48.3333 28.7978 46.6021 27.0666 44.4666 27.0666H33.698C33.4416 27.0666 33.1958 27.1685 33.0145 27.3498C32.8332 27.531 32.7314 27.7769 32.7314 28.0333C32.7314 28.2896 32.8332 28.5355 33.0145 28.7168C33.1958 28.898 33.4416 28.9999 33.698 28.9999H44.4666C45.5344 28.9999 46.4 29.8655 46.4 30.9333V32.8666H35.554C35.2976 32.8666 35.0518 32.9685 34.8705 33.1498C34.6892 33.331 34.5874 33.5769 34.5874 33.8333C34.5874 34.0896 34.6892 34.3355 34.8705 34.5168C35.0518 34.698 35.2976 34.7999 35.554 34.7999H51.2334C54.9687 34.7956 57.9958 31.7686 58 28.0333V7.73326C58 6.13169 56.7017 4.83337 55.1 4.83337ZM51.2334 14.5C51.2334 15.5678 50.3678 16.4334 49.3 16.4334H8.7C7.63221 16.4334 6.76663 15.5678 6.76663 14.5V6.76663H51.2333V14.5H51.2334Z" fill="white"/>
<path d="M9.66682 14.5H48.3335C48.8673 14.5 49.3001 14.0673 49.3001 13.5334C49.3001 12.9995 48.8673 12.5668 48.3335 12.5668H9.66682C9.41046 12.5668 9.16459 12.6686 8.98331 12.8499C8.80204 13.0312 8.7002 13.277 8.7002 13.5334C8.7002 13.7898 8.80204 14.0356 8.98331 14.2169C9.16459 14.3982 9.41046 14.5 9.66682 14.5ZM9.66682 10.6334H48.3335C48.5898 10.6334 48.8357 10.5316 49.017 10.3503C49.1982 10.169 49.3001 9.92313 49.3001 9.66676C49.3001 9.4104 49.1982 9.16453 49.017 8.98325C48.8357 8.80197 48.5898 8.70013 48.3335 8.70013H9.66682C9.41046 8.70013 9.16459 8.80197 8.98331 8.98325C8.80204 9.16453 8.7002 9.4104 8.7002 9.66676C8.7002 9.92313 8.80204 10.169 8.98331 10.3503C9.16459 10.5316 9.41046 10.6334 9.66682 10.6334Z" fill="white"/>
<path d="M48.3333 25.1333C48.8672 25.1333 49.3 24.7005 49.3 24.1666C49.3 23.6328 48.8672 23.2 48.3333 23.2C47.7995 23.2 47.3667 23.6328 47.3667 24.1666C47.3667 24.7005 47.7995 25.1333 48.3333 25.1333Z" fill="white"/>
<path d="M52.2 25.1333C52.7339 25.1333 53.1667 24.7005 53.1667 24.1666C53.1667 23.6328 52.7339 23.2 52.2 23.2C51.6662 23.2 51.2334 23.6328 51.2334 24.1666C51.2334 24.7005 51.6662 25.1333 52.2 25.1333Z" fill="white"/>
<path d="M34.8 50.2666C34.8 50.523 34.9018 50.7689 35.0831 50.9501C35.2644 51.1314 35.5103 51.2332 35.7666 51.2332C36.023 51.2332 36.2689 51.1314 36.4501 50.9501C36.6314 50.7689 36.7333 50.523 36.7333 50.2666C36.7377 49.9891 36.8038 49.716 36.9266 49.467C37.0495 49.2181 37.2261 48.9996 37.4438 48.8273C37.8287 48.4799 38.1365 48.0555 38.3471 47.5817C38.5577 47.1079 38.6666 46.5951 38.6666 46.0766C38.6666 45.558 38.5577 45.0453 38.3471 44.5714C38.1365 44.0976 37.8287 43.6733 37.4438 43.3259C37.2229 43.1569 37.0439 42.9392 36.9207 42.6899C36.7976 42.4405 36.7335 42.1661 36.7335 41.888C36.7335 41.6099 36.7976 41.3355 36.9207 41.0861C37.0439 40.8368 37.2229 40.6191 37.4438 40.4501C37.8267 40.1012 38.1331 39.6767 38.3436 39.2033C38.5541 38.7299 38.6641 38.218 38.6666 37.7C38.6666 37.1661 38.2339 36.7334 37.7 36.7334C37.1661 36.7334 36.7334 37.1661 36.7334 37.7C36.729 37.9773 36.6629 38.2501 36.54 38.4987C36.4171 38.7473 36.2405 38.9655 36.0229 39.1374C35.638 39.4846 35.3303 39.9088 35.1197 40.3825C34.9091 40.8561 34.8002 41.3687 34.8002 41.8871C34.8002 42.4055 34.9091 42.9181 35.1197 43.3917C35.3303 43.8654 35.638 44.2895 36.0229 44.6368C36.2438 44.8061 36.4228 45.024 36.546 45.2736C36.6692 45.5232 36.7332 45.7978 36.7332 46.0761C36.7332 46.3545 36.6692 46.6291 36.546 46.8787C36.4228 47.1283 36.2438 47.3462 36.0229 47.5155C35.6401 47.8648 35.3339 48.2895 35.1234 48.763C34.913 49.2365 34.8028 49.7485 34.8 50.2666ZM41.5666 50.2666C41.5666 50.523 41.6685 50.7689 41.8497 50.9501C42.031 51.1314 42.2769 51.2332 42.5333 51.2332C42.7896 51.2332 43.0355 51.1314 43.2168 50.9501C43.398 50.7689 43.4999 50.523 43.4999 50.2666C43.5043 49.9891 43.5704 49.716 43.6933 49.467C43.8161 49.2181 43.9928 48.9996 44.2104 48.8273C44.5953 48.4799 44.9031 48.0555 45.1137 47.5817C45.3244 47.1079 45.4332 46.5951 45.4332 46.0766C45.4332 45.558 45.3244 45.0453 45.1137 44.5714C44.9031 44.0976 44.5953 43.6733 44.2104 43.3259C43.9895 43.1569 43.8105 42.9392 43.6874 42.6899C43.5642 42.4405 43.5001 42.1661 43.5001 41.888C43.5001 41.6099 43.5642 41.3355 43.6874 41.0861C43.8105 40.8368 43.9895 40.6191 44.2104 40.4501C44.5934 40.1012 44.8998 39.6767 45.1103 39.2033C45.3207 38.7299 45.4307 38.218 45.4333 37.7C45.4333 37.1661 45.0005 36.7334 44.4666 36.7334C43.9327 36.7334 43.5 37.1661 43.5 37.7C43.4956 37.9773 43.4295 38.2501 43.3066 38.4987C43.1838 38.7473 43.0071 38.9655 42.7895 39.1374C42.4046 39.4846 42.0969 39.9088 41.8863 40.3825C41.6757 40.8561 41.5669 41.3687 41.5669 41.8871C41.5669 42.4055 41.6757 42.9181 41.8863 43.3917C42.0969 43.8654 42.4046 44.2895 42.7895 44.6368C43.0104 44.8061 43.1894 45.024 43.3126 45.2736C43.4358 45.5232 43.4999 45.7978 43.4999 46.0761C43.4999 46.3545 43.4358 46.6291 43.3126 46.8787C43.1894 47.1283 43.0104 47.3462 42.7895 47.5155C42.4068 47.8648 42.1006 48.2896 41.8901 48.763C41.6796 49.2365 41.5695 49.7485 41.5666 50.2666ZM47.3666 50.2666C47.3666 50.523 47.4685 50.7689 47.6497 50.9501C47.831 51.1314 48.0769 51.2332 48.3333 51.2332C48.5896 51.2332 48.8355 51.1314 49.0168 50.9501C49.198 50.7689 49.2999 50.523 49.2999 50.2666C49.3043 49.9891 49.3704 49.716 49.4933 49.467C49.6161 49.2181 49.7928 48.9996 50.0104 48.8273C50.3953 48.4799 50.7031 48.0555 50.9137 47.5817C51.1244 47.1079 51.2332 46.5951 51.2332 46.0766C51.2332 45.558 51.1244 45.0453 50.9137 44.5714C50.7031 44.0976 50.3953 43.6733 50.0104 43.3259C49.7895 43.1569 49.6105 42.9392 49.4874 42.6899C49.3642 42.4405 49.3001 42.1661 49.3001 41.888C49.3001 41.6099 49.3642 41.3355 49.4874 41.0861C49.6105 40.8368 49.7895 40.6191 50.0104 40.4501C50.3934 40.1012 50.6998 39.6767 50.9103 39.2033C51.1207 38.7299 51.2307 38.218 51.2333 37.7C51.2333 37.4436 51.1314 37.1978 50.9501 37.0165C50.7689 36.8352 50.523 36.7334 50.2666 36.7334C50.0103 36.7334 49.7644 36.8352 49.5831 37.0165C49.4018 37.1978 49.3 37.4436 49.3 37.7C49.2956 37.9773 49.2295 38.2501 49.1066 38.4987C48.9838 38.7473 48.8071 38.9655 48.5895 39.1374C48.2046 39.4846 47.8969 39.9088 47.6863 40.3825C47.4757 40.8561 47.3669 41.3687 47.3669 41.8871C47.3669 42.4055 47.4757 42.9181 47.6863 43.3917C47.8969 43.8654 48.2046 44.2895 48.5895 44.6368C48.8104 44.8061 48.9894 45.024 49.1126 45.2736C49.2358 45.5232 49.2999 45.7978 49.2999 46.0761C49.2999 46.3545 49.2358 46.6291 49.1126 46.8787C48.9894 47.1283 48.8104 47.3462 48.5895 47.5155C48.2068 47.8648 47.9006 48.2896 47.6901 48.763C47.4796 49.2365 47.3695 49.7485 47.3666 50.2666ZM16.4334 53.1666C25.5092 53.1666 32.8667 45.8091 32.8667 36.7332C32.8667 27.6574 25.5092 20.3 16.4334 20.3C7.3575 20.3 0 27.6575 0 36.7334C0.010082 45.805 7.3617 53.1565 16.4334 53.1666ZM16.4334 22.2334C24.4415 22.2334 30.9334 28.7253 30.9334 36.7334C30.9334 44.7414 24.4415 51.2334 16.4334 51.2334C8.42529 51.2334 1.93337 44.7414 1.93337 36.7334C1.94243 28.7289 8.42892 22.2424 16.4334 22.2334Z" fill="white"/>
<path d="M11.3583 36.195L14.8693 37.3347L12.7011 40.3187L7.41818 41.1559C7.29087 41.1736 7.16837 41.2165 7.05784 41.2821C6.94731 41.3478 6.85098 41.4348 6.77448 41.5381C6.69798 41.6414 6.64285 41.7589 6.61231 41.8837C6.58178 42.0086 6.57644 42.1383 6.59663 42.2652C6.61682 42.3922 6.66212 42.5138 6.72988 42.623C6.79764 42.7323 6.88651 42.8269 6.99128 42.9014C7.09605 42.9758 7.21461 43.0287 7.34005 43.0568C7.46548 43.0849 7.59525 43.0877 7.72178 43.065L11.0945 42.5334L9.28007 45.0244C8.96617 45.4564 9.06178 46.061 9.49372 46.3749C9.92566 46.6888 10.5302 46.5932 10.8441 46.1612L12.6634 43.6682L13.197 47.0399C13.2329 47.2671 13.3485 47.474 13.5232 47.6235C13.6979 47.773 13.9202 47.8554 14.1501 47.8558C14.2014 47.8559 14.2524 47.8517 14.3029 47.8432C14.556 47.8033 14.7829 47.6644 14.9337 47.4572C15.0845 47.25 15.1469 46.9914 15.1071 46.7383L14.27 41.4554L16.4334 38.4733L18.6016 41.4583L17.7645 46.7412C17.7247 46.9944 17.7871 47.253 17.9379 47.4602C18.0887 47.6674 18.3157 47.8062 18.5688 47.8462C18.6192 47.8547 18.6704 47.8588 18.7215 47.8587C18.9515 47.8583 19.1737 47.776 19.3484 47.6265C19.5231 47.4769 19.6388 47.27 19.6746 47.0429L20.2082 43.6712L22.0197 46.1642C22.1708 46.372 22.3983 46.5112 22.6521 46.5513C22.9059 46.5913 23.1653 46.5289 23.3731 46.3778C23.5809 46.2267 23.7201 45.9992 23.7602 45.7454C23.8002 45.4916 23.7378 45.2322 23.5867 45.0244L21.7723 42.5334L25.145 43.068C25.3137 43.0971 25.4871 43.081 25.6475 43.0212C25.8079 42.9615 25.9496 42.8601 26.058 42.7277C26.1664 42.5952 26.2378 42.4363 26.2647 42.2673C26.2916 42.0982 26.2731 41.925 26.2112 41.7654C26.1492 41.6059 26.0459 41.4656 25.9119 41.359C25.7779 41.2524 25.618 41.1834 25.4486 41.1588L20.1657 40.3217L17.9975 37.3376L21.5084 36.1979L26.2712 38.6252C26.4229 38.7083 26.5941 38.7491 26.7669 38.7435C26.9398 38.738 27.108 38.6861 27.254 38.5934C27.4 38.5007 27.5184 38.3706 27.597 38.2165C27.6756 38.0625 27.7114 37.8902 27.7007 37.7176C27.69 37.5449 27.6332 37.3784 27.5361 37.2352C27.4391 37.0921 27.3054 36.9775 27.1491 36.9036L24.1089 35.357L27.0428 34.4049C27.2116 34.359 27.3649 34.2681 27.4861 34.1419C27.6073 34.0158 27.692 33.859 27.7312 33.6885C27.7703 33.518 27.7625 33.34 27.7084 33.1736C27.6543 33.0072 27.5561 32.8586 27.4242 32.7436C27.2923 32.6286 27.1318 32.5516 26.9595 32.5207C26.7873 32.4898 26.61 32.5063 26.4464 32.5683L23.5077 33.5214L25.0544 30.4764C25.1679 30.2483 25.1867 29.9846 25.1069 29.7427C25.0271 29.5007 24.855 29.3001 24.628 29.1843C24.4011 29.0685 24.1376 29.047 23.8949 29.1244C23.6521 29.2018 23.4497 29.3719 23.3317 29.5977L20.9025 34.3652L17.4003 35.4962V31.8036L21.1819 28.0221C21.3444 27.8375 21.4305 27.5981 21.4227 27.3523C21.4148 27.1066 21.3137 26.873 21.1398 26.6992C20.9659 26.5254 20.7323 26.4244 20.4865 26.4168C20.2408 26.4091 20.0013 26.4954 19.8169 26.658L17.4 29.0744V25.987C17.4 25.7306 17.2981 25.4847 17.1168 25.3034C16.9356 25.1222 16.6897 25.0203 16.4333 25.0203C16.177 25.0203 15.9311 25.1222 15.7498 25.3034C15.5685 25.4847 15.4667 25.7306 15.4667 25.987V29.0725L13.05 26.6559C12.9609 26.5629 12.8543 26.4886 12.7361 26.4374C12.618 26.3862 12.4909 26.3591 12.3621 26.3576C12.2334 26.3562 12.1057 26.3805 11.9865 26.4292C11.8673 26.4778 11.759 26.5497 11.668 26.6407C11.5769 26.7318 11.505 26.8401 11.4564 26.9593C11.4078 27.0785 11.3835 27.2062 11.3849 27.3349C11.3863 27.4636 11.4134 27.5908 11.4646 27.7089C11.5158 27.827 11.5901 27.9337 11.6831 28.0227L15.4666 31.8034V35.496L11.9595 34.3573L9.53031 29.5896C9.41227 29.3639 9.2099 29.1938 8.96716 29.1164C8.72443 29.039 8.46096 29.0605 8.234 29.1763C8.00704 29.292 7.83495 29.4927 7.75511 29.7346C7.67528 29.9766 7.69416 30.2403 7.80764 30.4684L9.35915 33.5134L6.42052 32.5602C6.29807 32.5135 6.16741 32.4922 6.03648 32.4976C5.90555 32.503 5.77707 32.5349 5.65886 32.5915C5.54065 32.648 5.43518 32.728 5.34884 32.8266C5.26251 32.9252 5.19712 33.0403 5.15664 33.1649C5.11617 33.2896 5.10146 33.4211 5.1134 33.5516C5.12534 33.6821 5.16369 33.8088 5.22612 33.9241C5.28854 34.0393 5.37374 34.1406 5.47654 34.2219C5.57933 34.3032 5.69758 34.3627 5.82409 34.3968L8.75796 35.349L5.71783 36.8957C5.49705 37.0163 5.33199 37.2183 5.25773 37.4587C5.18346 37.699 5.20584 37.9589 5.32011 38.183C5.43437 38.4072 5.63153 38.5779 5.86968 38.659C6.10783 38.7401 6.36822 38.7252 6.59554 38.6174L11.3583 36.195Z" fill="white"/>
</g>
<defs>
<clipPath id="clip0_94_2273">
<rect width="58" height="58" fill="white"/>
</clipPath>
</defs>
</svg>
