<svg width="58" height="58" viewBox="0 0 58 58" fill="none" xmlns="http://www.w3.org/2000/svg">
<g clip-path="url(#clip0_94_2246)">
<g clip-path="url(#clip1_94_2246)">
<path d="M42.203 21.5963C41.9837 21.202 41.6622 20.874 41.2723 20.6467C40.8825 20.4195 40.4387 20.3014 39.9874 20.3048H34.1594L36.5306 2.05127C36.6399 1.18803 36.144 0.388599 35.3233 0.105366C34.9393 -0.031374 34.5202 -0.0327875 34.1353 0.10136C33.7504 0.235507 33.423 0.497158 33.2072 0.842933L15.8324 24.1937C15.5981 24.577 15.4712 25.0163 15.4651 25.4654C15.459 25.9146 15.5738 26.3572 15.7976 26.7467C16.0172 27.1408 16.3387 27.4687 16.7285 27.6959C17.1183 27.9231 17.562 28.0413 18.0132 28.0382H23.8412L21.9572 42.5372H23.906L25.9002 27.1962C25.9178 27.06 25.9061 26.9215 25.866 26.7901C25.826 26.6587 25.7583 26.5374 25.6677 26.4341C25.5771 26.3309 25.4655 26.2481 25.3404 26.1914C25.2154 26.1346 25.0796 26.1051 24.9422 26.1048H18.0132C17.9047 26.1062 17.7979 26.0782 17.7041 26.0237C17.6104 25.9692 17.5331 25.8904 17.4805 25.7955C17.4283 25.7037 17.3259 25.462 17.4351 25.2706L34.5519 2.27457L32.1004 21.1468C32.0827 21.2831 32.0942 21.4216 32.1342 21.553C32.1742 21.6845 32.2418 21.8059 32.3325 21.9092C32.4232 22.0125 32.5348 22.0952 32.6599 22.152C32.7851 22.2087 32.9209 22.2381 33.0584 22.2382H39.9874C40.3103 22.2382 40.4669 22.4547 40.5201 22.5465C40.5723 22.6384 40.6747 22.881 40.5655 23.0724L26.08 42.5372H28.486L42.1663 24.1483C42.4005 23.7652 42.5273 23.3261 42.5335 22.8771C42.5396 22.4281 42.4248 21.9857 42.2011 21.5963H42.203Z" fill="white"/>
<path d="M56.1599 10.6372H53.2928L54.3967 1.59692C54.4383 1.27865 54.3695 0.955732 54.2016 0.682136C54.0338 0.408539 53.7771 0.200841 53.4745 0.0937547C53.1768 -0.0192983 52.85 -0.0304295 52.5453 0.0621041C52.2406 0.154638 51.9751 0.345611 51.7906 0.605121L41.9122 12.6517C41.7126 12.9179 41.5943 13.2362 41.5716 13.5681C41.549 13.9 41.623 14.2314 41.7846 14.5222C42.1046 15.1061 42.7271 15.4696 43.4096 15.4696H46.2767L45.1718 24.5098C45.1302 24.8281 45.199 25.151 45.3669 25.4246C45.5347 25.6982 45.7914 25.9059 46.094 26.013C46.2632 26.0749 46.4362 26.1048 46.6063 26.1048C47.0665 26.1048 47.5034 25.8873 47.7779 25.5016L57.6573 13.455C57.8569 13.1889 57.9752 12.8706 57.9978 12.5387C58.0205 12.2067 57.9465 11.8753 57.7849 11.5845C57.6238 11.2954 57.388 11.0549 57.1021 10.8883C56.8162 10.7216 56.4908 10.6349 56.1599 10.6372ZM47.2985 23.0366L48.326 14.6208C48.3423 14.4851 48.3296 14.3475 48.2888 14.2171C48.2481 14.0866 48.1802 13.9662 48.0896 13.8639C47.9991 13.7615 47.8879 13.6795 47.7633 13.6232C47.6388 13.5669 47.5038 13.5376 47.3671 13.5372H43.686L52.2681 3.07109L51.2415 11.4869C51.2253 11.6226 51.2379 11.7602 51.2787 11.8907C51.3194 12.0211 51.3873 12.1415 51.4779 12.2438C51.5684 12.3462 51.6796 12.4282 51.8042 12.4845C51.9287 12.5408 52.0638 12.5701 52.2004 12.5705L55.9289 12.5116L47.2985 23.0366ZM1.84096 15.4705H4.70809L3.60319 24.5108C3.56156 24.8291 3.63042 25.152 3.79827 25.4256C3.96613 25.6992 4.2228 25.9069 4.52539 26.014C4.69456 26.0758 4.86759 26.1058 5.03772 26.1058C5.49786 26.1058 5.93479 25.8883 6.20932 25.5026L16.0887 13.456C16.2883 13.1898 16.4066 12.8716 16.4292 12.5396C16.4519 12.2077 16.3779 11.8763 16.2163 11.5855C16.0552 11.2964 15.8194 11.0559 15.5335 10.8892C15.2476 10.7226 14.9222 10.6359 14.5913 10.6382H11.7242L12.8281 1.59789C12.8697 1.27962 12.8009 0.956699 12.633 0.683102C12.4652 0.409506 12.2085 0.201808 11.9059 0.0947213C11.6082 -0.0183317 11.2814 -0.0294629 10.9767 0.0630707C10.672 0.155604 10.4065 0.346578 10.222 0.606088L0.344557 12.6527C0.144923 12.9188 0.0266386 13.2371 0.00399495 13.5691C-0.0186487 13.901 0.0553178 14.2324 0.216957 14.5232C0.536924 15.1071 1.15849 15.4705 1.84096 15.4705ZM10.7014 3.07109L9.67482 11.4869C9.65859 11.6226 9.67126 11.7602 9.712 11.8907C9.75274 12.0211 9.82063 12.1415 9.9112 12.2438C10.0018 12.3462 10.113 12.4282 10.2375 12.4845C10.362 12.5408 10.4971 12.5701 10.6338 12.5705L14.3622 12.5116L5.73082 23.0366L6.75839 14.6208C6.77462 14.4851 6.76195 14.3475 6.72121 14.2171C6.68047 14.0866 6.61259 13.9662 6.52201 13.8639C6.43144 13.7615 6.32023 13.6795 6.1957 13.6232C6.07117 13.5669 5.93613 13.5376 5.79946 13.5372H2.11839L10.7014 3.07109Z" fill="white"/>
<path d="M52.6383 47.893H40.3725M50.6817 50.5093L52.6383 50.5093M40.3724 50.5093L47.6449 50.5093M37.7562 47.239L39.9513 47.239C40.063 47.239 40.1701 47.2833 40.2491 47.3623C40.3281 47.4413 40.3724 47.5484 40.3724 47.6601V50.7423C40.3724 50.854 40.3281 50.9611 40.2491 51.04C40.1701 51.119 40.063 51.1634 39.9513 51.1634L37.7562 51.1634" stroke="white" stroke-width="1.69922" stroke-miterlimit="10" stroke-linecap="round" stroke-linejoin="round"/>
<path d="M31.2159 54.9931C31.5248 54.9325 31.8273 54.8432 32.1195 54.7263L37.2271 52.6833C37.3834 52.6208 37.5174 52.5129 37.6118 52.3735C37.7061 52.2341 37.7566 52.0696 37.7566 51.9013V46.501C37.7566 46.3327 37.7061 46.1683 37.6118 46.0289C37.5174 45.8895 37.3834 45.7816 37.2271 45.7191L32.1195 43.676C31.8273 43.5591 31.5248 43.4698 31.2159 43.4092M31.2159 54.9931C30.8954 55.0561 30.5694 55.0878 30.2427 55.0878L7.32491 55.0878C4.07382 55.0878 1.43831 52.4523 1.43831 49.2012C1.43831 45.9501 4.07382 43.3146 7.32491 43.3146L10.6375 43.3146M31.2159 54.9931V43.4091C30.8954 43.3462 30.5694 43.3145 30.2427 43.3145L13.6662 43.3145M31.2159 47.893L33.8322 47.8931M31.2159 50.5093L33.8322 50.5093M24.9275 51.1634L7.32485 51.1634M31.2159 51.1634H27.9456M7.32485 47.239L31.2159 47.239" stroke="white" stroke-width="1.69922" stroke-miterlimit="10" stroke-linecap="round" stroke-linejoin="round"/>
<path d="M8.71229 50.5887C9.47858 49.8224 9.47858 48.58 8.71229 47.8137C7.946 47.0474 6.70359 47.0474 5.9373 47.8137C5.17101 48.58 5.17101 49.8224 5.9373 50.5887C6.70359 51.355 7.946 51.355 8.71229 50.5887Z" stroke="white" stroke-width="1.69922" stroke-miterlimit="10" stroke-linecap="round" stroke-linejoin="round"/>
<path d="M57.0931 49.3601L55.2258 50.9828C55.2013 51.004 55.1723 51.0193 55.1409 51.0275C55.1096 51.0357 55.0768 51.0366 55.045 51.03L52.5308 50.5093L52.5308 47.893L55.045 47.3723C55.0768 47.3657 55.1096 47.3666 55.141 47.3748C55.1723 47.383 55.2014 47.3983 55.2258 47.4196L57.0931 49.0422C57.1159 49.062 57.1341 49.0864 57.1466 49.1138C57.1591 49.1412 57.1656 49.171 57.1656 49.2012C57.1656 49.2313 57.1591 49.2611 57.1466 49.2885C57.1341 49.3159 57.1159 49.3404 57.0931 49.3601Z" stroke="white" stroke-width="1.69922" stroke-miterlimit="10" stroke-linecap="round" stroke-linejoin="round"/>
</g>
</g>
<defs>
<clipPath id="clip0_94_2246">
<rect width="58" height="58" fill="white"/>
</clipPath>
<clipPath id="clip1_94_2246">
<rect width="59" height="56" fill="white" transform="translate(-1)"/>
</clipPath>
</defs>
</svg>
