<svg width="58" height="58" viewBox="0 0 58 58" fill="none" xmlns="http://www.w3.org/2000/svg">
<g clip-path="url(#clip0_95_2323)">
<g clip-path="url(#clip1_95_2323)">
<path d="M57.8697 46.4537L56.9321 44.4434V32.9723C56.9321 24.0605 49.9668 16.405 40.3649 16.405H39.0835V14.7977C39.0835 13.9139 38.3645 13.1949 37.4807 13.1949H36.9105V1.8151C36.9105 1.58761 36.8202 1.36943 36.6593 1.20857C36.4984 1.04771 36.2803 0.957336 36.0528 0.957336C35.8253 0.957336 35.6071 1.04771 35.4462 1.20857C35.2854 1.36943 35.195 1.58761 35.195 1.8151V13.1949H34.6249C33.741 13.1949 33.0221 13.9139 33.0221 14.7977V16.405H8.66194V14.7977C8.66194 13.9139 7.94294 13.1949 7.05912 13.1949H6.48898V1.8151C6.48898 1.58761 6.39861 1.36943 6.23774 1.20857C6.07688 1.04771 5.8587 0.957336 5.63121 0.957336C5.40372 0.957336 5.18554 1.04771 5.02468 1.20857C4.86382 1.36943 4.77345 1.58761 4.77345 1.8151V13.1949H4.2033C3.31948 13.1949 2.60048 13.9139 2.60048 14.7977V16.405H0.857766C0.630272 16.405 0.412096 16.4954 0.251234 16.6563C0.0903715 16.8171 0 17.0353 0 17.2628C0 17.4903 0.0903715 17.7085 0.251234 17.8693C0.412096 18.0302 0.630272 18.1206 0.857766 18.1206H4.77345V32.4562H0.857766C0.630272 32.4562 0.412096 32.5466 0.251234 32.7074C0.0903715 32.8683 0 33.0865 0 33.314C0 33.5415 0.0903715 33.7596 0.251234 33.9205C0.412096 34.0814 0.630272 34.1717 0.857766 34.1717H8.1473C8.37479 34.1717 8.59297 34.0814 8.75383 33.9205C8.91469 33.7596 9.00507 33.5415 9.00507 33.314C9.00507 33.0865 8.91469 32.8683 8.75383 32.7074C8.59297 32.5466 8.37479 32.4562 8.1473 32.4562H6.48898V18.1206H22.6177V32.4562H11.5782C11.3508 32.4562 11.1326 32.5466 10.9717 32.7074C10.8109 32.8683 10.7205 33.0865 10.7205 33.314C10.7205 33.5415 10.8109 33.7596 10.9717 33.9205C11.1326 34.0814 11.3508 34.1717 11.5782 34.1717H39.5072V44.3871L38.3055 46.3043C38.0389 46.7295 38.0243 47.2667 38.2674 47.7059C38.5105 48.1451 38.9734 48.4179 39.4755 48.4179H56.6185C57.0927 48.4179 57.5281 48.1791 57.7828 47.7792C57.9082 47.5836 57.9819 47.3594 57.9971 47.1276C58.0123 46.8958 57.9684 46.664 57.8697 46.4537ZM6.94641 16.405H4.31602V14.9104H6.94641V16.405ZM34.7376 14.9104H37.368V16.405H34.7376V14.9104ZM39.5071 32.4562H24.3333V18.1206H39.5071V32.4562ZM55.2067 32.4562H44.7269L54.5127 28.4528C54.9273 29.749 55.1609 31.0962 55.2067 32.4562ZM53.896 26.8517L44.0879 30.8642L51.7053 23.3937C52.5913 24.44 53.3285 25.6037 53.896 26.8517ZM41.2227 18.146C44.8104 18.3513 48.0607 19.8358 50.5241 22.1495L42.5447 29.975L45.5154 22.1201C45.5566 22.0145 45.5764 21.9017 45.5738 21.7883C45.5711 21.675 45.546 21.5633 45.4999 21.4597C45.4538 21.3561 45.3877 21.2627 45.3052 21.1848C45.2228 21.1069 45.1258 21.0462 45.0197 21.0061C44.9136 20.966 44.8007 20.9473 44.6874 20.9511C44.574 20.9549 44.4626 20.9812 44.3595 21.0283C44.2564 21.0755 44.1636 21.1426 44.0866 21.2259C44.0096 21.3091 43.9499 21.4068 43.9109 21.5132L41.2227 28.6213V18.146ZM40.0806 46.7023L40.8396 45.4914H43.5435C43.771 45.4914 43.9892 45.401 44.15 45.2401C44.3109 45.0793 44.4013 44.8611 44.4013 44.6336C44.4013 44.4061 44.3109 44.1879 44.15 44.0271C43.9892 43.8662 43.771 43.7758 43.5435 43.7758H41.2227V34.1717H55.2167V43.7758H47.0892C46.8617 43.7758 46.6435 43.8662 46.4827 44.0271C46.3218 44.1879 46.2314 44.4061 46.2314 44.6336C46.2314 44.8611 46.3218 45.0793 46.4827 45.2401C46.6435 45.401 46.8617 45.4914 47.0892 45.4914H55.5281L56.0929 46.7023H40.0806ZM43.5435 49.9518C43.4309 49.9518 43.3193 49.974 43.2152 50.0171C43.1112 50.0602 43.0166 50.1234 42.937 50.2031C42.8573 50.2827 42.7941 50.3773 42.751 50.4813C42.7079 50.5854 42.6857 50.6969 42.6857 50.8096V56.1848C42.6857 56.4123 42.7761 56.6304 42.937 56.7913C43.0978 56.9522 43.316 57.0425 43.5435 57.0425C43.771 57.0425 43.9892 56.9522 44.15 56.7913C44.3109 56.6304 44.4013 56.4123 44.4013 56.1848V50.8096C44.4013 50.6969 44.3791 50.5854 44.336 50.4813C44.2929 50.3772 44.2297 50.2827 44.1501 50.203C44.0704 50.1234 43.9758 50.0602 43.8718 50.0171C43.7677 49.974 43.6561 49.9518 43.5435 49.9518ZM48.3899 49.9518C48.2773 49.9518 48.1657 49.974 48.0616 50.0171C47.9576 50.0602 47.863 50.1234 47.7834 50.2031C47.7037 50.2827 47.6405 50.3773 47.5974 50.4813C47.5543 50.5854 47.5321 50.6969 47.5321 50.8096V56.1848C47.5321 56.4123 47.6225 56.6304 47.7834 56.7913C47.9442 56.9522 48.1624 57.0425 48.3899 57.0425C48.6174 57.0425 48.8356 56.9522 48.9964 56.7913C49.1573 56.6304 49.2477 56.4123 49.2477 56.1848V50.8096C49.2477 50.6969 49.2255 50.5854 49.1824 50.4813C49.1393 50.3772 49.0761 50.2827 48.9965 50.203C48.9168 50.1234 48.8222 50.0602 48.7182 50.0171C48.6141 49.974 48.5025 49.9518 48.3899 49.9518ZM53.0362 49.9518C52.9236 49.9518 52.8121 49.974 52.708 50.0171C52.6039 50.0602 52.5094 50.1234 52.4297 50.2031C52.3501 50.2827 52.2869 50.3773 52.2438 50.4813C52.2007 50.5854 52.1785 50.6969 52.1785 50.8096V56.1848C52.1785 56.4123 52.2688 56.6304 52.4297 56.7913C52.5906 56.9522 52.8088 57.0425 53.0362 57.0425C53.2637 57.0425 53.4819 56.9522 53.6428 56.7913C53.8036 56.6304 53.894 56.4123 53.894 56.1848V50.8096C53.894 50.6969 53.8718 50.5854 53.8287 50.4813C53.7856 50.3773 53.7224 50.2827 53.6428 50.2031C53.5631 50.1234 53.4686 50.0602 53.3645 50.0171C53.2604 49.974 53.1489 49.9518 53.0362 49.9518Z" fill="white"/>
</g>
</g>
<defs>
<clipPath id="clip0_95_2323">
<rect width="58" height="58" fill="white"/>
</clipPath>
<clipPath id="clip1_95_2323">
<rect width="58" height="58" fill="white"/>
</clipPath>
</defs>
</svg>
