<svg width="58" height="58" viewBox="0 0 58 58" fill="none" xmlns="http://www.w3.org/2000/svg">
<g clip-path="url(#clip0_97_2366)">
<path d="M57.0333 35.7667C55.4317 35.7667 54.1333 34.4683 54.1333 32.8667C54.1333 32.6103 54.0315 32.3644 53.8502 32.1831C53.6689 32.0018 53.423 31.9 53.1667 31.9C52.9103 31.9 52.6644 32.0018 52.4831 32.1831C52.3018 32.3644 52.2 32.6103 52.2 32.8667C52.1975 33.4643 52.0104 34.0466 51.6644 34.5339C51.3183 35.0211 50.8301 35.3896 50.2667 35.5888V6.76665C50.2667 6.51028 50.1648 6.2644 49.9835 6.08312C49.8022 5.90183 49.5564 5.79999 49.3 5.79999H8.7C8.44362 5.79999 8.19775 5.90183 8.01646 6.08312C7.83518 6.2644 7.73333 6.51028 7.73333 6.76665V21.0888C7.16986 20.8896 6.68169 20.5211 6.33562 20.0339C5.98955 19.5466 5.80248 18.9643 5.8 18.3667C5.8 18.1103 5.69815 17.8644 5.51687 17.6831C5.33558 17.5018 5.08971 17.4 4.83333 17.4C4.57696 17.4 4.33108 17.5018 4.1498 17.6831C3.96851 17.8644 3.86667 18.1103 3.86667 18.3667C3.86667 19.9683 2.56831 21.2667 0.966667 21.2667C0.710291 21.2667 0.464415 21.3685 0.28313 21.5498C0.101845 21.7311 0 21.9769 0 22.2333C0 22.4897 0.101845 22.7356 0.28313 22.9169C0.464415 23.0981 0.710291 23.2 0.966667 23.2C2.56831 23.2 3.86667 24.4983 3.86667 26.1C3.86667 26.3564 3.96851 26.6022 4.1498 26.7835C4.33108 26.9648 4.57696 27.0667 4.83333 27.0667C5.08971 27.0667 5.33558 26.9648 5.51687 26.7835C5.69815 26.6022 5.8 26.3564 5.8 26.1C5.80248 25.5023 5.98955 24.92 6.33562 24.4328C6.68169 23.9455 7.16986 23.5771 7.73333 23.3779V51.2333C7.73333 51.4897 7.83518 51.7356 8.01646 51.9169C8.19775 52.0981 8.44362 52.2 8.7 52.2H49.3C49.5564 52.2 49.8022 52.0981 49.9835 51.9169C50.1648 51.7356 50.2667 51.4897 50.2667 51.2333V37.8779C50.8301 38.0771 51.3183 38.4455 51.6644 38.9328C52.0104 39.42 52.1975 40.0023 52.2 40.6C52.2 40.8564 52.3018 41.1022 52.4831 41.2835C52.6644 41.4648 52.9103 41.5667 53.1667 41.5667C53.423 41.5667 53.6689 41.4648 53.8502 41.2835C54.0315 41.1022 54.1333 40.8564 54.1333 40.6C54.1333 38.9983 55.4317 37.7 57.0333 37.7C57.2897 37.7 57.5356 37.5981 57.7169 37.4169C57.8982 37.2356 58 36.9897 58 36.7333C58 36.4769 57.8982 36.2311 57.7169 36.0498C57.5356 35.8685 57.2897 35.7667 57.0333 35.7667ZM4.83333 23.2C4.55834 22.8338 4.23289 22.5083 3.86667 22.2333C4.23289 21.9583 4.55834 21.6329 4.83333 21.2667C5.10833 21.6329 5.43378 21.9583 5.8 22.2333C5.43378 22.5083 5.10833 22.8338 4.83333 23.2ZM48.3333 44.4667V50.2667H28.4335L35.4834 43.2168C35.6615 43.0324 35.7591 42.7848 35.7547 42.5284C35.7502 42.2721 35.6441 42.028 35.4597 41.8499C35.2795 41.6758 35.0387 41.5785 34.7882 41.5785C34.5376 41.5785 34.2968 41.6758 34.1166 41.8499L25.6998 50.2667H22.6335L35.4834 37.4168C35.6615 37.2324 35.7591 36.9848 35.7547 36.7284C35.7502 36.4721 35.6441 36.228 35.4597 36.0499C35.2795 35.8758 35.0387 35.7785 34.7882 35.7785C34.5376 35.7785 34.2968 35.8758 34.1166 36.0499L19.8998 50.2667H9.66667V7.73332H38.2665L31.2166 14.7832C31.0322 14.9613 30.9261 15.2054 30.9216 15.4618C30.9172 15.7181 31.0148 15.9657 31.1929 16.1501C31.283 16.2434 31.3911 16.3176 31.5105 16.3683C31.63 16.419 31.7584 16.4452 31.8882 16.4452C32.0179 16.4452 32.1464 16.419 32.2658 16.3683C32.3853 16.3176 32.4933 16.2434 32.5834 16.1501L41.0002 7.73332H44.0665L31.2166 20.5832C31.0322 20.7613 30.9261 21.0054 30.9216 21.2618C30.9172 21.5181 31.0148 21.7657 31.1929 21.9501C31.283 22.0434 31.3911 22.1176 31.5105 22.1683C31.63 22.219 31.7584 22.2452 31.8882 22.2452C32.0179 22.2452 32.1464 22.219 32.2658 22.1683C32.3853 22.1176 32.4933 22.0434 32.5834 21.9501L46.8002 7.73332H48.3333V44.4667ZM53.1667 37.7C52.8917 37.3338 52.5662 37.0083 52.2 36.7333C52.5662 36.4583 52.8917 36.1329 53.1667 35.7667C53.4417 36.1329 53.7671 36.4583 54.1333 36.7333C53.7671 37.0083 53.4417 37.3338 53.1667 37.7Z" fill="white"/>
<path d="M47.3665 43.5C45.7649 43.5 44.4665 42.2016 44.4665 40.6C44.4665 40.3436 44.3647 40.0977 44.1834 39.9164C44.0021 39.7351 43.7562 39.6333 43.4998 39.6333C43.2435 39.6333 42.9976 39.7351 42.8163 39.9164C42.635 40.0977 42.5332 40.3436 42.5332 40.6C42.5332 42.2016 41.2348 43.5 39.6332 43.5C39.3768 43.5 39.1309 43.6018 38.9496 43.7831C38.7683 43.9644 38.6665 44.2103 38.6665 44.4666C38.6665 44.723 38.7683 44.9689 38.9496 45.1502C39.1309 45.3315 39.3768 45.4333 39.6332 45.4333C41.2348 45.4333 42.5332 46.7317 42.5332 48.3333C42.5332 48.5897 42.635 48.8356 42.8163 49.0168C42.9976 49.1981 43.2435 49.3 43.4998 49.3C43.7562 49.3 44.0021 49.1981 44.1834 49.0168C44.3647 48.8356 44.4665 48.5897 44.4665 48.3333C44.4665 46.7317 45.7649 45.4333 47.3665 45.4333C47.6229 45.4333 47.8688 45.3315 48.05 45.1502C48.2313 44.9689 48.3332 44.723 48.3332 44.4666C48.3332 44.2103 48.2313 43.9644 48.05 43.7831C47.8688 43.6018 47.6229 43.5 47.3665 43.5ZM43.4998 45.4333C43.2248 45.0671 42.8994 44.7416 42.5332 44.4666C42.8994 44.1916 43.2248 43.8662 43.4998 43.5C43.7748 43.8662 44.1003 44.1916 44.4665 44.4666C44.1003 44.7416 43.7748 45.0671 43.4998 45.4333ZM18.3665 13.5333C16.7649 13.5333 15.4665 12.2349 15.4665 10.6333C15.4665 10.3769 15.3647 10.131 15.1834 9.94976C15.0021 9.76847 14.7562 9.66663 14.4998 9.66663C14.2435 9.66663 13.9976 9.76847 13.8163 9.94976C13.635 10.131 13.5332 10.3769 13.5332 10.6333C13.5332 12.2349 12.2348 13.5333 10.6332 13.5333C10.3768 13.5333 10.1309 13.6351 9.94963 13.8164C9.76835 13.9977 9.6665 14.2436 9.6665 14.5C9.6665 14.7563 9.76835 15.0022 9.94963 15.1835C10.1309 15.3648 10.3768 15.4666 10.6332 15.4666C12.2348 15.4666 13.5332 16.765 13.5332 18.3666C13.5332 18.623 13.635 18.8689 13.8163 19.0502C13.9976 19.2315 14.2435 19.3333 14.4998 19.3333C14.7562 19.3333 15.0021 19.2315 15.1834 19.0502C15.3647 18.8689 15.4665 18.623 15.4665 18.3666C15.4665 16.765 16.7649 15.4666 18.3665 15.4666C18.6229 15.4666 18.8688 15.3648 19.05 15.1835C19.2313 15.0022 19.3332 14.7563 19.3332 14.5C19.3332 14.2436 19.2313 13.9977 19.05 13.8164C18.8688 13.6351 18.6229 13.5333 18.3665 13.5333ZM14.4998 15.4666C14.2248 15.1004 13.8994 14.775 13.5332 14.5C13.8994 14.225 14.2248 13.8995 14.4998 13.5333C14.7748 13.8995 15.1003 14.225 15.4665 14.5C15.1003 14.775 14.7748 15.1004 14.4998 15.4666Z" fill="white"/>
</g>
<defs>
<clipPath id="clip0_97_2366">
<rect width="58" height="58" fill="white"/>
</clipPath>
</defs>
</svg>
