<svg width="58" height="58" viewBox="0 0 58 58" fill="none" xmlns="http://www.w3.org/2000/svg">
<path d="M12.5508 39.8266V40.7854C12.5508 41.0397 12.6509 41.2836 12.829 41.4634C13.0072 41.6432 13.2489 41.7442 13.5008 41.7442H16.3511C16.8559 41.7442 17.3519 41.8785 17.7888 42.1338C18.2257 42.389 18.5882 42.756 18.8396 43.1978C19.0911 43.6396 19.2226 44.1405 19.2209 44.6499C19.2192 45.1594 19.0844 45.6594 18.83 46.0995L15.8054 51.332H14.4509C14.1989 51.332 13.9573 51.433 13.7791 51.6129C13.6009 51.7927 13.5008 52.0365 13.5008 52.2908V56.1259C13.5008 56.3802 13.6009 56.6241 13.7791 56.8039C13.9573 56.9837 14.1989 57.0847 14.4509 57.0847H46.7538C47.0057 57.0847 47.2474 56.9837 47.4256 56.8039C47.6038 56.6241 47.7038 56.3802 47.7038 56.1259V52.2908C47.7038 52.0365 47.6038 51.7927 47.4256 51.6129C47.2474 51.433 47.0057 51.332 46.7538 51.332H44.8536V44.6205C44.8559 42.587 45.6574 40.6373 47.0823 39.1994C48.5072 37.7614 50.4391 36.9525 52.4543 36.9503C52.7062 36.9503 52.9479 36.8493 53.1261 36.6694C53.3043 36.4896 53.4044 36.2458 53.4044 35.9915V30.2388C53.4044 29.9845 53.3043 29.7406 53.1261 29.5608C52.9479 29.381 52.7062 29.28 52.4543 29.28H40.1032V26.4036C40.1032 26.1494 40.0031 25.9055 39.8249 25.7257C39.6467 25.5459 39.4051 25.4449 39.1531 25.4449H18.2513C17.9993 25.4449 17.7576 25.5459 17.5794 25.7257C17.4013 25.9055 17.3012 26.1494 17.3012 26.4036V29.28H13.5008C13.2489 29.28 13.0072 29.381 12.829 29.5608C12.6509 29.7406 12.5508 29.9845 12.5508 30.2388H4.95008C4.69811 30.2388 4.45645 30.3398 4.27827 30.5196C4.1001 30.6994 4 30.9433 4 31.1976C4.00255 33.4853 4.90424 35.6787 6.50727 37.2964C8.1103 38.9141 10.2837 39.824 12.5508 39.8266ZM45.8037 55.1672H15.401V53.2496H45.8037V55.1672ZM19.2013 27.3624H38.203V29.28H19.2013V27.3624ZM14.4509 31.1976H51.5042V35.0327H42.0033V36.9503H46.7626C45.5804 37.8419 44.6206 38.9994 43.9593 40.3309C43.2981 41.6624 42.9537 43.1312 42.9534 44.6205V51.332H18.0052L20.4712 47.0654C20.899 46.3357 21.1261 45.504 21.1289 44.6562C21.1317 43.8084 20.9103 42.9751 20.4874 42.2425C20.3887 42.0699 20.2798 41.9034 20.1613 41.7439H23.9518V39.8266H14.4509V31.1976ZM12.5508 32.1563V37.909C10.952 37.907 9.40733 37.3248 8.19875 36.2686C6.99018 35.2125 6.19835 33.7529 5.96786 32.1563H12.5508Z" fill="white"/>
<path d="M4 25.4446H15.401V27.3622H4V25.4446ZM42.0033 25.4446H53.4044V27.3622H42.0033V25.4446ZM34.2677 21.1442L36.5406 19.8199L37.4907 21.4804L35.2177 22.8047L34.2677 21.1442ZM35.645 9.62553L38.671 4.3364L40.3166 5.29518L37.2906 10.5843L35.645 9.62553ZM19.9911 3.15769L21.8266 2.66104L22.4084 4.85078L20.5729 5.34743L19.9911 3.15769ZM7.1704 21.9982L7.66255 20.1458L11.942 21.3038L11.4498 23.1561L7.1704 21.9982ZM42.106 21.3601L48.0125 19.7619L48.5046 21.6143L42.5982 23.2125L42.106 21.3601Z" fill="white"/>
<path d="M31.5642 16.8178V16.3384V14.3427V13.8633L32.0432 13.8431L51.0869 13.0423C51.5514 13.0228 52.0105 13.1465 52.4029 13.3965C52.7953 13.6464 53.1022 14.0105 53.2836 14.4397L52.823 14.6344L53.2836 14.4397C53.4649 14.8689 53.5124 15.3433 53.4199 15.8001C53.3275 16.2566 53.0996 16.6745 52.7656 16.9981M31.5642 16.8178L52.417 16.6397M31.5642 16.8178L32.0432 16.838L51.0847 17.6387L31.5642 16.8178ZM52.7656 16.9981C52.7653 16.9984 52.765 16.9987 52.7648 16.9989L52.417 16.6397M52.7656 16.9981C52.7658 16.9979 52.7661 16.9977 52.7663 16.9974L52.417 16.6397M52.7656 16.9981C52.544 17.2143 52.2808 17.3828 51.9918 17.4931C51.703 17.6033 51.3947 17.6529 51.0859 17.6387L51.0869 17.6388L51.1079 17.1392C51.3483 17.1504 51.5885 17.1118 51.8136 17.0259C52.0387 16.94 52.244 16.8086 52.417 16.6397M53.3832 13.0153L53.3846 13.0168C53.8432 13.4607 54.1604 14.0334 54.2945 14.6616C54.4287 15.2898 54.3737 15.9442 54.1366 16.5404C53.8995 17.1365 53.4916 17.6468 52.9658 18.0061C52.4401 18.3654 51.8204 18.5575 51.1864 18.5584C51.1401 18.5583 51.0948 18.5575 51.0503 18.5556L51.0498 18.5556L32.0852 17.7581L31.5642 17.7362V18.2576V22.052C31.5642 22.1129 31.5523 22.1731 31.5293 22.2291C31.5063 22.2851 31.4728 22.3357 31.4308 22.3781C31.4308 22.3781 31.4308 22.3781 31.4308 22.3781L30.4807 23.3369C30.4387 23.3792 30.3891 23.4126 30.3348 23.4353L30.5276 23.8966L30.3348 23.4353C30.2805 23.458 30.2225 23.4696 30.164 23.4696H22.5633C22.5049 23.4696 22.4469 23.458 22.3926 23.4353L22.1998 23.8966L22.3926 23.4353C22.3383 23.4126 22.2887 23.3792 22.2467 23.3369L21.2966 22.3781C21.2546 22.3357 21.221 22.2851 21.1981 22.2291L20.7355 22.419L21.198 22.2291C21.1751 22.1731 21.1632 22.1129 21.1632 22.0521V18.2169V17.7169H20.6632H19.7131C19.0913 17.7169 18.4939 17.4677 18.0528 17.0225C17.6116 16.5772 17.3628 15.9723 17.3628 15.3405C17.3628 14.7088 17.6116 14.1039 18.0528 13.6586C18.4939 13.2134 19.0913 12.9642 19.7131 12.9642H20.6632H21.1632V12.4642V8.62906C21.1632 8.56816 21.1751 8.50798 21.198 8.45199C21.221 8.39598 21.2546 8.3454 21.2966 8.30302L22.2467 7.34424C22.2887 7.30185 22.3383 7.26847 22.3926 7.24579C22.4469 7.2231 22.5049 7.21149 22.5633 7.21149H30.164C30.2225 7.21149 30.2805 7.2231 30.3348 7.24579C30.3891 7.26848 30.4387 7.30186 30.4807 7.34423L31.4308 8.303C31.4308 8.30301 31.4308 8.30301 31.4308 8.30302C31.4728 8.34542 31.5063 8.396 31.5293 8.45198C31.5523 8.50798 31.5642 8.56816 31.5642 8.62904V12.4234V12.9449L32.0852 12.923L51.0498 12.1255L51.0519 12.1254C51.4797 12.1057 51.9071 12.1743 52.3079 12.3272C52.7087 12.4802 53.0746 12.7142 53.3832 13.0153ZM29.7706 22.552H29.979L30.1257 22.404L30.5192 22.0069L30.664 21.8608V21.655V9.02611V8.82034L30.5192 8.67418L30.1257 8.27712L29.979 8.12906H29.7706H22.9568H22.7484L22.6016 8.27712L22.2082 8.67418L22.0633 8.82034V9.02611V21.655V21.8608L22.2082 22.0069L22.6016 22.404L22.7484 22.552H22.9568H29.7706ZM20.6632 16.7993H21.1632V16.2993V14.3818V13.8818H20.6632H19.7131C19.327 13.8818 18.9577 14.0366 18.6861 14.3106C18.4147 14.5846 18.263 14.9551 18.263 15.3405C18.263 15.726 18.4147 16.0965 18.6861 16.3704C18.9577 16.6445 19.327 16.7993 19.7131 16.7993H20.6632ZM25.9136 4.29392V0.5H26.8138V4.29392H25.9136ZM16.9475 11.2987L13.1209 4.61019L13.9024 4.15485L17.729 10.8434L16.9475 11.2987ZM18.1035 22.5624L5.17597 15.03L5.62939 14.2376L18.557 21.7699L18.1035 22.5624Z" fill="white" stroke="white"/>
</svg>
