<svg width="58" height="58" viewBox="0 0 58 58" fill="none" xmlns="http://www.w3.org/2000/svg">
<g clip-path="url(#clip0_94_2296)">
<path d="M57.6706 28.8811L47.4186 18.5677C47.3134 18.4618 47.1882 18.3777 47.0503 18.3204C46.9124 18.263 46.7646 18.2335 46.6152 18.2335H41.0078V12.4657C41.0078 10.5918 39.4833 9.06726 37.6094 9.06726H23.1055C22.4799 9.06726 21.9727 9.57453 21.9727 10.2001C21.9727 10.8256 22.4799 11.3329 23.1055 11.3329H37.6094C38.234 11.3329 38.7422 11.8411 38.7422 12.4657V39.9933C38.7422 40.6179 38.234 41.1261 37.6094 41.1261H17.4508C16.911 37.984 14.1688 35.585 10.875 35.585C7.58123 35.585 4.83904 37.984 4.29925 41.1261H3.39844C2.7738 41.1261 2.26562 40.6179 2.26562 39.9933V12.4657C2.26562 11.8411 2.7738 11.3329 3.39844 11.3329H23.8164C24.4419 11.3329 24.9492 10.8256 24.9492 10.2001C24.9492 9.57453 24.4419 9.06726 23.8164 9.06726H3.39844C1.52454 9.06726 0 10.5918 0 12.4657V39.9933C0 41.8672 1.52454 43.3917 3.39844 43.3917H4.29925C4.51267 44.6341 5.07002 45.7596 5.87046 46.6671H2.94531C2.31977 46.6671 1.8125 47.1744 1.8125 47.7999C1.8125 48.4255 2.31977 48.9327 2.94531 48.9327H25.5393C26.1648 48.9327 26.6721 48.4255 26.6721 47.7999C26.6721 47.1744 26.1648 46.6671 25.5393 46.6671H15.8795C16.6799 45.7596 17.2373 44.6339 17.4508 43.3917H37.6094C38.0306 43.3917 38.4338 43.3141 38.8064 43.1734C38.9894 44.5021 39.5645 45.7067 40.4115 46.6671H25.0452C24.4197 46.6671 23.9124 47.1744 23.9124 47.7999C23.9124 48.4255 24.4197 48.9327 25.0452 48.9327H53.3064C53.932 48.9327 54.4392 48.4255 54.4392 47.7999C54.4392 47.1744 53.932 46.6671 53.3064 46.6671H50.4206C51.2209 45.7596 51.7784 44.6339 51.9918 43.3917H56.8672C57.4927 43.3917 58 42.8844 58 42.2589V29.6797C58 29.3804 57.8816 29.0933 57.6706 28.8811ZM10.875 46.6671C8.44432 46.6671 6.46677 44.6896 6.46677 42.2589C6.46677 39.8282 8.44432 37.8507 10.875 37.8507C13.3057 37.8507 15.2832 39.8282 15.2832 42.2589C15.2832 44.6896 13.3057 46.6671 10.875 46.6671ZM46.7958 21.1549L55.6094 30.0213H48.1742C47.4142 30.0213 46.7958 29.4031 46.7958 28.6431V21.1549ZM45.416 46.6671C42.9854 46.6671 41.0078 44.6896 41.0078 42.2589C41.0078 39.8282 42.9854 37.8507 45.416 37.8507C47.8467 37.8507 49.8243 39.8282 49.8243 42.2589C49.8243 44.6896 47.8467 46.6671 45.416 46.6671ZM55.7344 41.1261H51.9918C51.452 37.984 48.7098 35.585 45.416 35.585C43.7275 35.585 42.1845 36.2166 41.0078 37.2544V20.4992H44.5303V28.6431C44.5303 30.6523 46.1651 32.287 48.1743 32.287H55.7344V41.1261Z" fill="white"/>
<path d="M31.0464 31.9676H30.133V23.6173H31.0621C31.2936 23.6173 31.5196 23.5464 31.7096 23.4141C31.8996 23.2817 32.0444 23.0943 32.1246 22.8771C32.2049 22.66 32.2167 22.4234 32.1584 22.1993C32.1001 21.9753 31.9745 21.7744 31.7986 21.6239L21.9774 13.2192C21.7721 13.0436 21.5109 12.9471 21.2408 12.9471C20.9707 12.9471 20.7095 13.0436 20.5042 13.2192L10.683 21.6239C10.507 21.7744 10.3814 21.9753 10.3231 22.1993C10.2648 22.4234 10.2766 22.66 10.3568 22.8772C10.4371 23.0944 10.582 23.2818 10.772 23.4141C10.962 23.5464 11.188 23.6174 11.4195 23.6173H12.3486V31.9676H11.4352C10.8096 31.9676 10.3024 32.4749 10.3024 33.1004C10.3024 33.726 10.8096 34.2332 11.4352 34.2332H31.0464C31.672 34.2332 32.1792 33.726 32.1792 33.1004C32.1792 32.4749 31.672 31.9676 31.0464 31.9676ZM22.4067 31.9676H19.7569V27.9059H22.4067V31.9676ZM27.8674 31.9676H24.6723V26.7731C24.6723 26.1476 24.165 25.6403 23.5395 25.6403H18.6241C17.9986 25.6403 17.4913 26.1476 17.4913 26.7731V31.9676H14.6142V23.6173H27.8674V31.9676ZM14.4855 21.3517L21.2408 15.5708L27.9961 21.3517H14.4855Z" fill="white"/>
</g>
<defs>
<clipPath id="clip0_94_2296">
<rect width="58" height="58" fill="white"/>
</clipPath>
</defs>
</svg>
