<svg width="9" height="17" viewBox="0 0 9 17" fill="none" xmlns="http://www.w3.org/2000/svg">
<path d="M2.5058 9.53629C2.44316 9.53629 1.06497 9.53629 0.438515 9.53629C0.104408 9.53629 0 9.411 0 9.09777C0 8.2625 0 7.40636 0 6.57109C0 6.23698 0.12529 6.13257 0.438515 6.13257H2.5058C2.5058 6.06993 2.5058 4.85879 2.5058 4.29499C2.5058 3.45972 2.65197 2.66622 3.06961 1.93536C3.50812 1.18362 4.13457 0.682457 4.92807 0.390114C5.45012 0.202179 5.97216 0.118652 6.53596 0.118652H8.58237C8.87471 0.118652 9 0.243942 9 0.536286V2.9168C9 3.20914 8.87471 3.33443 8.58237 3.33443C8.01856 3.33443 7.45476 3.33443 6.89095 3.35531C6.32715 3.35531 6.0348 3.62677 6.0348 4.21146C6.01392 4.83791 6.0348 5.44348 6.0348 6.09081H8.45708C8.79118 6.09081 8.91647 6.2161 8.91647 6.55021V9.07689C8.91647 9.411 8.81207 9.5154 8.45708 9.5154C7.70534 9.5154 6.09745 9.5154 6.0348 9.5154V16.3228C6.0348 16.6778 5.93039 16.8031 5.55452 16.8031C4.67749 16.8031 3.82135 16.8031 2.94432 16.8031C2.63109 16.8031 2.5058 16.6778 2.5058 16.3646C2.5058 14.172 2.5058 9.59893 2.5058 9.53629Z" fill="#F7F7EE"/>
</svg>
