<svg width="15" height="16" viewBox="0 0 15 16" fill="none" xmlns="http://www.w3.org/2000/svg">
<path d="M14.9963 15.9609V15.9602H15V10.4417C15 7.74199 14.4247 5.66235 11.3004 5.66235C9.79839 5.66235 8.79045 6.49496 8.37897 7.28431H8.33552V5.91439H5.37317V15.9602H8.45779V10.9859C8.45779 9.67618 8.70356 8.40971 10.3092 8.40971C11.8912 8.40971 11.9148 9.90439 11.9148 11.0699V15.9609H14.9963Z" fill="#F7F7EE"/>
<path d="M0.223877 5.88647H3.35821V15.7372H0.223877V5.88647Z" fill="#F7F7EE"/>
<path d="M1.79104 0.960938C0.802303 0.960938 0 1.7595 0 2.74363C0 3.72776 0.802303 4.54303 1.79104 4.54303C2.77979 4.54303 3.58209 3.72776 3.58209 2.74363C3.58147 1.7595 2.77916 0.960938 1.79104 0.960938V0.960938Z" fill="#F7F7EE"/>
</svg>
