<svg width="17" height="15" viewBox="0 0 17 15" fill="none" xmlns="http://www.w3.org/2000/svg">
<path d="M17 2.18988C16.3678 2.46719 15.6942 2.651 14.9919 2.74025C15.7144 2.30887 16.2658 1.631 16.5251 0.813937C15.8514 1.21556 15.1077 1.49925 14.3151 1.65756C13.6754 0.9765 12.7638 0.554688 11.7693 0.554688C9.83981 0.554688 8.28644 2.12081 8.28644 4.04075C8.28644 4.317 8.30981 4.58262 8.36719 4.8355C5.46975 4.69419 2.90594 3.3055 1.18362 1.19006C0.882937 1.71175 0.706563 2.30888 0.706563 2.95169C0.706563 4.15869 1.32812 5.22862 2.25463 5.84806C1.69469 5.83744 1.14538 5.67488 0.68 5.41881C0.68 5.42944 0.68 5.44325 0.68 5.45706C0.68 7.15069 1.88806 8.55744 3.47225 8.8815C3.18856 8.95906 2.87937 8.99625 2.5585 8.99625C2.33538 8.99625 2.11012 8.9835 1.89869 8.93675C2.35025 10.3169 3.63163 11.3316 5.15525 11.3646C3.9695 12.2921 2.46394 12.851 0.834063 12.851C0.54825 12.851 0.274125 12.8383 0 12.8032C1.54381 13.7987 3.37344 14.3672 5.3465 14.3672C11.7597 14.3672 15.266 9.05469 15.266 4.44981C15.266 4.29575 15.2607 4.147 15.2533 3.99931C15.9449 3.50844 16.5261 2.89538 17 2.18988Z" fill="#F7F7EE"/>
</svg>
