<svg width="111" height="111" viewBox="0 0 111 111" fill="none" xmlns="http://www.w3.org/2000/svg">
<path d="M103.585 58.7411C103.446 60.3259 102.694 61.7937 101.489 62.8318L78.8698 81.9099V43.4786C78.8698 41.7877 78.4172 40.1277 77.5588 38.6709C76.7004 37.214 75.4677 36.0136 73.9886 35.1943L58.1073 26.3943L53.0542 23.5755L48.6542 21.1349L52.5386 20.8255L57.7636 20.413L69.4167 19.4505C70.3709 19.3641 71.3319 19.5096 72.2177 19.8747C73.1035 20.2398 73.888 20.8137 74.5042 21.5474L102.21 54.3411C102.719 54.9475 103.102 55.6485 103.338 56.4037C103.574 57.1589 103.658 57.9533 103.585 58.7411Z" fill="#F5A623"/>
<path d="M41.9167 13.091C44.2761 13.0975 46.5732 13.8487 48.4806 15.2375C50.3879 16.6263 51.8081 18.5819 52.5386 20.8254C52.835 21.7143 53.0084 22.6395 53.0542 23.5754L58.1073 26.3942C58.2056 25.6881 58.2515 24.9758 58.2448 24.2629C58.2439 22.9646 58.0822 21.6715 57.7636 20.4129C56.8218 16.5335 54.4905 13.134 51.211 10.8577C47.9316 8.58133 43.9314 7.58614 39.9677 8.06044C36.0039 8.53474 32.3515 10.4456 29.7017 13.4314C27.0519 16.4173 25.5885 20.2709 25.5886 24.2629C25.5808 26.1642 25.9186 28.0511 26.5854 29.8317C27.3257 31.8689 28.4636 33.7385 29.933 35.3319C31.4025 36.9253 33.1741 38.2105 35.1448 39.1129C37.2696 40.0868 39.5794 40.5909 41.9167 40.5909C44.254 40.5909 46.5638 40.0868 48.6886 39.1129C50.6593 38.2105 52.4309 36.9253 53.9003 35.3319C55.3698 33.7385 56.5077 31.8689 57.2479 29.8317L52.6417 27.2879C51.9864 29.6283 50.5835 31.69 48.6471 33.1587C46.7107 34.6274 44.3471 35.4224 41.9167 35.4224C39.4863 35.4224 37.1227 34.6274 35.1863 33.1587C33.2499 31.69 31.847 29.6283 31.1917 27.2879C30.8875 26.3087 30.7368 25.2883 30.7448 24.2629C30.7503 21.3016 31.9291 18.4632 34.023 16.3692C36.117 14.2753 38.9554 13.0965 41.9167 13.091ZM39.3386 61.1404C38.4212 61.3979 37.6031 61.9266 36.9915 62.6572C36.3799 63.3878 36.0034 64.2862 35.9114 65.2345C36.0028 66.1834 36.379 67.0826 36.9906 67.8138C37.6023 68.5451 38.4207 69.0743 39.3386 69.332V61.1404ZM44.4948 83.6354C45.4122 83.378 46.2303 82.8493 46.8419 82.1187C47.4534 81.3881 47.83 80.4897 47.922 79.5414C47.8306 78.5924 47.4544 77.6933 46.8428 76.962C46.2311 76.2308 45.4127 75.7016 44.4948 75.4439V83.6354Z" fill="#F5A623"/>
<path d="M72.3386 38.2192L57.2479 29.8317L52.6417 27.2879L44.8386 22.9223C43.9428 22.4319 42.9379 22.1748 41.9167 22.1748C40.8954 22.1748 39.8906 22.4319 38.9948 22.9223L31.1917 27.2879L26.5854 29.8317L11.4948 38.2192C10.5541 38.7369 9.77028 39.4986 9.22586 40.4241C8.68143 41.3496 8.39651 42.4048 8.40105 43.4786V96.4504C8.40829 98.0436 9.0444 99.5695 10.171 100.696C11.2976 101.823 12.8235 102.459 14.4167 102.466H69.4167C71.0099 102.459 72.5358 101.823 73.6624 100.696C74.789 99.5695 75.4251 98.0436 75.4323 96.4504V43.4786C75.4372 42.4047 75.1524 41.3494 74.608 40.4238C74.0635 39.4982 73.2795 38.7366 72.3386 38.2192ZM41.9167 31.1379C42.9967 31.1347 44.0619 31.3887 45.0243 31.8788C45.9867 32.369 46.8185 33.0813 47.451 33.9567C48.3297 35.1256 48.8007 36.5506 48.7917 38.0129C48.7931 38.3821 48.7585 38.7505 48.6886 39.1129C48.4311 40.7237 47.608 42.19 46.3668 43.2485C45.1257 44.307 43.5479 44.8885 41.9167 44.8885C40.2855 44.8885 38.7077 44.307 37.4665 43.2485C36.2254 42.19 35.4022 40.7237 35.1448 39.1129C35.0748 38.7505 35.0403 38.3821 35.0417 38.0129C35.0327 36.5506 35.5036 35.1256 36.3823 33.9567C37.0148 33.0813 37.8467 32.369 38.809 31.8788C39.7714 31.3887 40.8367 31.1347 41.9167 31.1379ZM53.0886 79.5379C52.96 81.861 52.0355 84.069 50.4704 85.7906C48.9053 87.5122 46.7952 88.6424 44.4948 88.9911V90.7786C44.4948 91.4623 44.2232 92.1181 43.7397 92.6016C43.2562 93.0851 42.6004 93.3567 41.9167 93.3567C41.2329 93.3567 40.5772 93.0851 40.0937 92.6016C39.6102 92.1181 39.3386 91.4623 39.3386 90.7786V88.9911C37.0382 88.6424 34.928 87.5122 33.3629 85.7906C31.7979 84.069 30.8733 81.861 30.7448 79.5379C30.7448 78.8542 31.0164 78.1984 31.4999 77.7149C31.9834 77.2314 32.6392 76.9598 33.3229 76.9598C34.0067 76.9598 34.6624 77.2314 35.1459 77.7149C35.6294 78.1984 35.9011 78.8542 35.9011 79.5379C35.9963 80.4863 36.3753 81.384 36.9885 82.1137C37.6018 82.8434 38.4207 83.3714 39.3386 83.6286V74.6911C37.0403 74.3375 34.933 73.2059 33.3688 71.4853C31.8046 69.7647 30.8784 67.5594 30.7448 65.2379C30.8733 62.9148 31.7979 60.7068 33.3629 58.9852C34.928 57.2637 37.0382 56.1335 39.3386 55.7848V53.9973C39.3386 53.3135 39.6102 52.6578 40.0937 52.1743C40.5772 51.6908 41.2329 51.4192 41.9167 51.4192C42.6004 51.4192 43.2562 51.6908 43.7397 52.1743C44.2232 52.6578 44.4948 53.3135 44.4948 53.9973V55.7848C46.7952 56.1335 48.9053 57.2637 50.4704 58.9852C52.0355 60.7068 52.96 62.9148 53.0886 65.2379C53.0886 65.9217 52.8169 66.5774 52.3334 67.0609C51.8499 67.5444 51.1942 67.8161 50.5104 67.8161C49.8267 67.8161 49.1709 67.5444 48.6874 67.0609C48.2039 66.5774 47.9323 65.9217 47.9323 65.2379C47.837 64.2895 47.458 63.3919 46.8448 62.6621C46.2316 61.9324 45.4126 61.4045 44.4948 61.1473V70.0848C46.7931 70.4383 48.9004 71.57 50.4646 73.2906C52.0287 75.0112 52.955 77.2165 53.0886 79.5379Z" fill="#F5A623"/>
</svg>
