<svg width="111" height="111" viewBox="0 0 111 111" fill="none" xmlns="http://www.w3.org/2000/svg">
<g clip-path="url(#clip0_240_4419)">
<path d="M38.3114 85.0899C36.2073 85.0899 34.2479 84.1464 32.9363 82.5013L28.3317 76.7276L24.2806 74.7766L13.7037 96.0502C13.4431 96.5743 13.3207 97.1562 13.348 97.7409C13.3753 98.3255 13.5514 98.8935 13.8597 99.391C14.1679 99.8886 14.5981 100.299 15.1095 100.584C15.6209 100.869 16.1965 101.018 16.7817 101.018H16.7895L26.6005 100.996L32.5046 108.831C32.8572 109.299 33.3236 109.67 33.8595 109.907C34.3954 110.144 34.9829 110.24 35.5664 110.186C36.1498 110.132 36.7098 109.929 37.1932 109.598C37.6765 109.267 38.0671 108.818 38.328 108.293L49.059 86.7094L45.6963 85.0899H38.3114ZM96.9627 96.05L86.3857 74.7764L82.3346 76.7274L77.7301 82.5013C76.4185 84.1461 74.4593 85.0897 72.3549 85.0897H64.9699L61.6072 86.7092L72.3382 108.293C72.6231 108.866 73.0621 109.348 73.606 109.685C74.1498 110.022 74.7769 110.2 75.4167 110.2C76.4894 110.2 77.5086 109.698 78.1615 108.831L84.0656 100.996L93.8767 101.018H93.8844C94.4698 101.018 95.0454 100.869 95.5569 100.584C96.0683 100.299 96.4985 99.8886 96.8068 99.391C97.1151 98.8935 97.2912 98.3254 97.3185 97.7407C97.3457 97.156 97.2234 96.5741 96.9627 96.05Z" fill="#F5A623"/>
<path d="M72.3552 81.6526C73.4013 81.6526 74.3906 81.1763 75.0427 80.3584L80.1364 73.9711L87.497 70.4264C87.9622 70.2023 88.371 69.8763 88.693 69.4725C89.015 69.0688 89.2419 68.5977 89.3569 68.0943L91.1749 60.1294L96.2686 53.7421C96.5906 53.3383 96.8175 52.8672 96.9324 52.3637C97.0472 51.8603 97.0472 51.3374 96.9323 50.8339L95.1145 42.8692L96.9323 34.9043C97.0472 34.4008 97.0472 33.8779 96.9323 33.3744C96.8174 32.8709 96.5906 32.3998 96.2686 31.996L91.1749 25.6089L89.3569 17.644C89.242 17.1405 89.0151 16.6694 88.6931 16.2657C88.3711 15.8619 87.9623 15.5359 87.497 15.3119L80.1364 11.7672L75.0427 5.37987C74.7207 4.97613 74.3119 4.65012 73.8466 4.42606C73.3814 4.20201 72.8716 4.08565 72.3552 4.08565H64.1856L56.8248 0.54051C56.3595 0.316512 55.8497 0.200195 55.3332 0.200195C54.8168 0.200195 54.307 0.316512 53.8417 0.54051L46.4811 4.08522H38.3115C37.7951 4.08519 37.2853 4.20153 36.82 4.42559C36.3548 4.64965 35.946 4.97568 35.624 5.37944L30.5303 11.7667L23.1697 15.3114C22.7045 15.5355 22.2957 15.8615 21.9737 16.2653C21.6517 16.669 21.4248 17.1401 21.3098 17.6436L19.4918 25.6085L14.3981 31.9956C14.0761 32.3993 13.8492 32.8705 13.7343 33.374C13.6194 33.8775 13.6195 34.4004 13.7345 34.9039L15.5522 42.8688L13.7345 50.8335C13.6195 51.337 13.6195 51.8598 13.7344 52.3633C13.8493 52.8668 14.0761 53.3379 14.3981 53.7416L19.4918 60.1289L21.3098 68.0938C21.4248 68.5973 21.6517 69.0684 21.9736 69.4721C22.2956 69.8759 22.7045 70.2019 23.1697 70.426L30.5303 73.9707L35.624 80.358C35.946 80.7617 36.3548 81.0877 36.8201 81.3118C37.2853 81.5358 37.7951 81.6522 38.3115 81.6522H46.4811L53.8417 85.1969C54.307 85.421 54.8167 85.5373 55.3331 85.5373C55.8495 85.5373 56.3593 85.421 56.8246 85.1969L64.1851 81.6522H72.3548L72.3552 81.6526ZM55.3334 72.9472C38.7483 72.9472 25.2552 59.4541 25.2552 42.869C25.2552 26.2839 38.7483 12.7909 55.3334 12.7909C71.9184 12.7909 85.4115 26.2839 85.4115 42.869C85.4115 59.4541 71.9184 72.9472 55.3334 72.9472Z" fill="#F5A623"/>
<path d="M55.3333 16.2285C40.6435 16.2285 28.6926 28.1794 28.6926 42.8691C28.6926 57.5589 40.6435 69.5098 55.3333 69.5098C70.023 69.5098 81.9739 57.5589 81.9739 42.8691C81.9739 28.1794 70.023 16.2285 55.3333 16.2285ZM56.045 50.7561C55.726 51.0757 55.347 51.3291 54.9297 51.5019C54.5125 51.6747 54.0652 51.7635 53.6136 51.763C52.8333 51.7636 52.076 51.4979 51.4671 51.0098L42.8734 44.1348L47.1681 38.7665L53.3593 43.7195L63.215 33.8638L68.0763 38.725L56.045 50.7563V50.7561Z" fill="#F5A623"/>
</g>
<defs>
<clipPath id="clip0_240_4419">
<rect width="110" height="110" fill="white" transform="translate(0.333252 0.200195)"/>
</clipPath>
</defs>
</svg>
