<svg width="110" height="111" viewBox="0 0 110 111" fill="none" xmlns="http://www.w3.org/2000/svg">
<path d="M93.4083 39.4793L87.7709 47.9585C90.4896 53.3809 91.8206 59.3931 91.6446 65.4564C91.4686 71.5197 89.7912 77.4446 86.7625 82.7002H23.2375C19.3012 75.8715 17.6701 67.9561 18.5861 60.1276C19.502 52.299 22.9163 44.974 28.3226 39.2384C33.729 33.5028 40.8397 29.662 48.6005 28.2855C56.3613 26.9089 64.3592 28.0698 71.4084 31.596L79.8875 25.9585C71.2547 20.4228 61.0148 17.9423 50.8058 18.9136C40.5967 19.885 31.0083 24.2521 23.5744 31.3165C16.1404 38.3808 11.2904 47.7343 9.80018 57.8806C8.30993 68.0269 10.2655 78.3799 15.3542 87.2835C16.154 88.6689 17.3025 89.8209 18.6855 90.625C20.0685 91.4291 21.6378 91.8572 23.2375 91.8668H86.7167C88.3319 91.8733 89.9202 91.4527 91.3207 90.6479C92.7211 89.843 93.8841 88.6824 94.6917 87.2835C98.9147 79.9682 101.034 71.6281 100.816 63.1841C100.597 54.7402 98.0496 46.5208 93.4542 39.4335L93.4083 39.4793Z" fill="white"/>
<path d="M48.5375 70.8295C49.3888 71.6818 50.3998 72.3579 51.5126 72.8192C52.6254 73.2805 53.8182 73.518 55.0229 73.518C56.2275 73.518 57.4203 73.2805 58.5332 72.8192C59.646 72.3579 60.657 71.6818 61.5083 70.8295L87.45 31.917L48.5375 57.8587C47.6852 58.71 47.0091 59.721 46.5477 60.8338C46.0864 61.9466 45.849 63.1394 45.849 64.3441C45.849 65.5487 46.0864 66.7415 46.5477 67.8544C47.0091 68.9672 47.6852 69.9782 48.5375 70.8295Z" fill="white"/>
</svg>
