<svg width="21" height="22" viewBox="0 0 21 22" fill="none" xmlns="http://www.w3.org/2000/svg">
<path d="M5.73125 20.6055C6.72 20.6055 7.76125 20.3692 8.8375 19.9142C9.8875 19.468 10.9462 18.8555 11.9788 18.1117C13.0025 17.3592 13.9913 16.5192 14.9275 15.6005C15.855 14.6642 16.695 13.6755 17.4388 12.6605C18.1912 11.6105 18.795 10.5605 19.2238 9.54547C19.6788 8.46047 19.9062 7.41047 19.9062 6.42172C19.9062 5.73922 19.7838 5.09172 19.5475 4.48797C19.3025 3.86672 18.9088 3.28922 18.375 2.79047C17.7013 2.12547 16.9313 1.79297 16.1088 1.79297C15.7675 1.79297 15.4175 1.87172 15.12 2.01172C14.7788 2.16922 14.49 2.40547 14.28 2.72047L12.25 5.58172C12.0663 5.83547 11.9263 6.08047 11.83 6.32547C11.7163 6.58797 11.655 6.85047 11.655 7.10422C11.655 7.43672 11.7513 7.76047 11.935 8.06672C12.0663 8.30297 12.2675 8.55672 12.5213 8.81047L13.1163 9.43172C13.1075 9.45797 13.0988 9.47547 13.09 9.49297C12.985 9.67672 12.775 9.99172 12.3725 10.4642C11.9438 10.9542 11.5413 11.4005 11.1388 11.8117C10.6225 12.3192 10.1938 12.7217 9.79125 13.0542C9.2925 13.4742 8.96875 13.6842 8.77625 13.7805L8.79375 13.8242L8.155 13.1942C7.88375 12.923 7.62125 12.7217 7.3675 12.5905C6.88625 12.293 6.27375 12.2405 5.66125 12.4942C5.43375 12.5905 5.18875 12.7217 4.92625 12.9055L2.02125 14.9705C1.6975 15.1892 1.46125 15.4692 1.32125 15.8017C1.19 16.1342 1.12875 16.4405 1.12875 16.7467C1.12875 17.1667 1.225 17.5867 1.40875 17.9805C1.5925 18.3742 1.82 18.7155 2.10875 19.0305C2.6075 19.5817 3.15 19.9755 3.78 20.2292C4.38375 20.4742 5.04 20.6055 5.73125 20.6055ZM16.1088 3.10547C16.59 3.10547 17.0363 3.31547 17.465 3.73547C17.8675 4.11172 18.1475 4.52297 18.3225 4.96922C18.5063 5.42422 18.5938 5.90547 18.5938 6.42172C18.5938 7.23547 18.4013 8.11922 18.0163 9.02922C17.6225 9.95672 17.0713 10.9192 16.3713 11.8817C15.6713 12.8442 14.875 13.7805 14 14.6642C13.125 15.5305 12.18 16.3355 11.2088 17.0442C10.2638 17.7355 9.2925 18.2955 8.33 18.698C6.83375 19.3367 5.43375 19.4855 4.27875 19.0042C3.8325 18.8205 3.43875 18.5405 3.08 18.138C2.87875 17.9192 2.72125 17.683 2.59 17.403C2.485 17.1842 2.4325 16.9567 2.4325 16.7292C2.4325 16.5892 2.45875 16.4492 2.52875 16.2917C2.555 16.2392 2.6075 16.143 2.77375 16.0292L5.67875 13.9642C5.85375 13.8417 6.01125 13.7542 6.16 13.693C6.3525 13.6142 6.43125 13.5355 6.72875 13.7192C6.90375 13.8067 7.06125 13.938 7.23625 14.113L7.90125 14.7692C8.2425 15.1017 8.7675 15.1805 9.17 15.0317L9.40625 14.9267C9.765 14.7342 10.185 14.4367 10.6488 14.043C11.0688 13.6842 11.5238 13.2642 12.075 12.7217C12.5038 12.2842 12.9325 11.8205 13.3788 11.3042C13.79 10.823 14.0875 10.4117 14.2713 10.0705L14.3763 9.80797C14.4288 9.60672 14.4463 9.49297 14.4463 9.37047C14.4463 9.05547 14.3325 8.77547 14.1138 8.55672L13.4575 7.87422C13.2825 7.69922 13.1513 7.53297 13.0638 7.38422C12.9938 7.27047 12.9675 7.17422 12.9675 7.08672C12.9675 7.01672 12.9938 6.91172 13.0375 6.80672C13.0988 6.66672 13.195 6.50922 13.3175 6.34297L15.3475 3.47297C15.435 3.35047 15.54 3.26297 15.6713 3.20172C15.8113 3.14047 15.96 3.10547 16.1088 3.10547ZM8.79375 13.833L8.93375 14.428L8.6975 13.8155C8.74125 13.8067 8.77625 13.8155 8.79375 13.833Z" fill="#F5A623"/>
<path d="M4.81238 9.23047C5.17113 9.23047 5.46863 8.93297 5.46863 8.57422C5.46863 8.25922 5.78363 7.60297 6.30863 7.04297C6.82488 6.49172 7.39363 6.16797 7.87488 6.16797C8.23363 6.16797 8.53113 5.87047 8.53113 5.51172C8.53113 5.15297 8.23363 4.85547 7.87488 4.85547C7.02613 4.85547 6.13363 5.31047 5.35488 6.14172C4.62863 6.92047 4.15613 7.87422 4.15613 8.57422C4.15613 8.93297 4.45363 9.23047 4.81238 9.23047Z" fill="#F5A623"/>
<path d="M1.74988 9.23047C2.10863 9.23047 2.40613 8.93297 2.40613 8.57422C2.40613 5.55547 4.85613 3.10547 7.87488 3.10547C8.23363 3.10547 8.53113 2.80797 8.53113 2.44922C8.53113 2.09047 8.23363 1.79297 7.87488 1.79297C4.13863 1.79297 1.09363 4.83797 1.09363 8.57422C1.09363 8.93297 1.39113 9.23047 1.74988 9.23047Z" fill="#F5A623"/>
</svg>
