<svg width="22" height="22" viewBox="0 0 22 22" fill="none" xmlns="http://www.w3.org/2000/svg">
<path d="M6.23137 20.3671C7.22012 20.3671 8.26137 20.1308 9.33762 19.6758C10.3876 19.2296 11.4464 18.6171 12.4789 17.8733C13.5026 17.1208 14.4914 16.2808 15.4276 15.3621C16.3551 14.4258 17.1951 13.4371 17.9389 12.4221C18.6914 11.3721 19.2951 10.3221 19.7239 9.30707C20.1789 8.22206 20.4064 7.17207 20.4064 6.18332C20.4064 5.50082 20.2839 4.85332 20.0476 4.24957C19.8026 3.62832 19.4089 3.05082 18.8751 2.55207C18.2014 1.88707 17.4314 1.55457 16.6089 1.55457C16.2676 1.55457 15.9176 1.63332 15.6201 1.77332C15.2789 1.93082 14.9901 2.16707 14.7801 2.48207L12.7501 5.34332C12.5664 5.59707 12.4264 5.84207 12.3301 6.08707C12.2164 6.34957 12.1551 6.61207 12.1551 6.86582C12.1551 7.19832 12.2514 7.52207 12.4351 7.82832C12.5664 8.06457 12.7676 8.31832 13.0214 8.57207L13.6164 9.19332C13.6076 9.21956 13.5989 9.23707 13.5901 9.25457C13.4851 9.43832 13.2751 9.75331 12.8726 10.2258C12.4439 10.7158 12.0414 11.1621 11.6389 11.5733C11.1226 12.0808 10.6939 12.4833 10.2914 12.8158C9.79262 13.2358 9.46887 13.4458 9.27637 13.5421L9.29387 13.5858L8.65512 12.9558C8.38387 12.6846 8.12137 12.4833 7.86762 12.3521C7.38637 12.0546 6.77387 12.0021 6.16137 12.2558C5.93387 12.3521 5.68887 12.4833 5.42637 12.6671L2.52137 14.7321C2.19762 14.9508 1.96137 15.2308 1.82137 15.5633C1.69012 15.8958 1.62887 16.2021 1.62887 16.5083C1.62887 16.9283 1.72512 17.3483 1.90887 17.7421C2.09262 18.1358 2.32012 18.4771 2.60887 18.7921C3.10762 19.3433 3.65012 19.7371 4.28012 19.9908C4.88387 20.2358 5.54012 20.3671 6.23137 20.3671ZM16.6089 2.86707C17.0901 2.86707 17.5364 3.07707 17.9651 3.49707C18.3676 3.87332 18.6476 4.28457 18.8226 4.73082C19.0064 5.18582 19.0939 5.66707 19.0939 6.18332C19.0939 6.99707 18.9014 7.88082 18.5164 8.79082C18.1226 9.71832 17.5714 10.6808 16.8714 11.6433C16.1714 12.6058 15.3751 13.5421 14.5001 14.4258C13.6251 15.2921 12.6801 16.0971 11.7089 16.8058C10.7639 17.4971 9.79262 18.0571 8.83012 18.4596C7.33387 19.0983 5.93387 19.2471 4.77887 18.7658C4.33262 18.5821 3.93887 18.3021 3.58012 17.8996C3.37887 17.6808 3.22137 17.4446 3.09012 17.1646C2.98512 16.9458 2.93262 16.7183 2.93262 16.4908C2.93262 16.3508 2.95887 16.2108 3.02887 16.0533C3.05512 16.0008 3.10762 15.9046 3.27387 15.7908L6.17887 13.7258C6.35387 13.6033 6.51137 13.5158 6.66012 13.4546C6.85262 13.3758 6.93137 13.2971 7.22887 13.4808C7.40387 13.5683 7.56137 13.6996 7.73637 13.8746L8.40137 14.5308C8.74262 14.8633 9.26762 14.9421 9.67012 14.7933L9.90637 14.6883C10.2651 14.4958 10.6851 14.1983 11.1489 13.8046C11.5689 13.4458 12.0239 13.0258 12.5751 12.4833C13.0039 12.0458 13.4326 11.5821 13.8789 11.0658C14.2901 10.5846 14.5876 10.1733 14.7714 9.83207L14.8764 9.56956C14.9289 9.36832 14.9464 9.25457 14.9464 9.13207C14.9464 8.81707 14.8326 8.53707 14.6139 8.31832L13.9576 7.63582C13.7826 7.46082 13.6514 7.29457 13.5639 7.14582C13.4939 7.03207 13.4676 6.93582 13.4676 6.84832C13.4676 6.77832 13.4939 6.67332 13.5376 6.56832C13.5989 6.42832 13.6951 6.27082 13.8176 6.10457L15.8476 3.23457C15.9351 3.11207 16.0401 3.02457 16.1714 2.96332C16.3114 2.90207 16.4601 2.86707 16.6089 2.86707ZM9.29387 13.5946L9.43387 14.1896L9.19762 13.5771C9.24137 13.5683 9.27637 13.5771 9.29387 13.5946Z" fill="white"/>
<path d="M5.3125 8.99231C5.67125 8.99231 5.96875 8.69481 5.96875 8.33606C5.96875 8.02106 6.28375 7.36481 6.80875 6.80481C7.325 6.25356 7.89375 5.92981 8.375 5.92981C8.73375 5.92981 9.03125 5.63231 9.03125 5.27356C9.03125 4.91481 8.73375 4.61731 8.375 4.61731C7.52625 4.61731 6.63375 5.07231 5.855 5.90356C5.12875 6.68231 4.65625 7.63606 4.65625 8.33606C4.65625 8.69481 4.95375 8.99231 5.3125 8.99231Z" fill="white"/>
<path d="M2.25 8.99207C2.60875 8.99207 2.90625 8.69457 2.90625 8.33582C2.90625 5.31707 5.35625 2.86707 8.375 2.86707C8.73375 2.86707 9.03125 2.56957 9.03125 2.21082C9.03125 1.85207 8.73375 1.55457 8.375 1.55457C4.63875 1.55457 1.59375 4.59957 1.59375 8.33582C1.59375 8.69457 1.89125 8.99207 2.25 8.99207Z" fill="white"/>
</svg>
