<svg width="21" height="22" viewBox="0 0 21 22" fill="none" xmlns="http://www.w3.org/2000/svg">
<g clip-path="url(#clip0_74_5699)">
<path d="M17.6307 18.9279H3.36933C2.51584 18.9268 1.69762 18.5872 1.09417 17.9836C0.490713 17.3801 0.151282 16.5618 0.15033 15.7083V6.6897C0.151282 5.83626 0.490732 5.01805 1.09421 4.41458C1.69768 3.81111 2.51589 3.47166 3.36933 3.4707H17.6307C18.4842 3.47166 19.3025 3.81109 19.9061 4.41454C20.5096 5.018 20.8492 5.83621 20.8503 6.6897V15.7083C20.8494 16.5619 20.5099 17.3803 19.9063 17.9839C19.3027 18.5874 18.4843 18.927 17.6307 18.9279ZM3.36933 4.9707C2.91357 4.97118 2.47661 5.15244 2.15434 5.47471C1.83207 5.79698 1.65081 6.23394 1.65033 6.6897V15.7083C1.65065 16.1642 1.83184 16.6013 2.15413 16.9237C2.47642 17.2461 2.91346 17.4274 3.36933 17.4279H17.6307C18.0867 17.4274 18.5238 17.2461 18.8461 16.9237C19.1685 16.6013 19.3499 16.1642 19.3503 15.7083V6.6897C19.3497 6.23389 19.1683 5.79693 18.8459 5.47468C18.5236 5.15242 18.0865 4.97118 17.6307 4.9707H3.36933Z" fill="#F5A623"/>
<path d="M10.4909 13.2187C9.86167 13.2249 9.24867 13.0188 8.75095 12.6337L0.730146 6.24193C0.574596 6.11789 0.474693 5.93713 0.452414 5.73943C0.430135 5.54173 0.487304 5.34328 0.611346 5.18773C0.735388 5.03218 0.916141 4.93227 1.11384 4.90999C1.31154 4.88772 1.51 4.94488 1.66555 5.06893L9.68395 11.4607C9.92082 11.6287 10.2042 11.7186 10.4946 11.7179C10.785 11.7171 11.0679 11.6258 11.3039 11.4565L19.2233 5.07193C19.3781 4.94709 19.5761 4.88884 19.7738 4.90999C19.9715 4.93115 20.1527 5.02997 20.2775 5.18473C20.4024 5.33948 20.4606 5.53749 20.4395 5.73519C20.4183 5.93289 20.3195 6.11409 20.1647 6.23893L12.2477 12.6235C11.7466 13.0154 11.1271 13.2253 10.4909 13.2187Z" fill="#F5A623"/>
</g>
<defs>
<clipPath id="clip0_74_5699">
<rect width="21" height="21" fill="white" transform="translate(-6.10352e-05 0.699219)"/>
</clipPath>
</defs>
</svg>
