<svg width="19" height="20" viewBox="0 0 19 20" fill="none" xmlns="http://www.w3.org/2000/svg">
<path d="M9.48901 0.961792C9.14844 0.961792 8.80811 0.980101 8.46948 1.0166C8.1591 1.0483 7.85253 1.1003 7.55008 1.16338C7.49155 1.17563 7.43298 1.18855 7.37445 1.20206C5.59245 1.60778 3.96529 2.51889 2.68809 3.82614C2.56932 3.94788 2.45305 4.07322 2.33935 4.20214C-1.11075 8.16297 -0.696703 14.1707 3.26417 17.6208C7.05619 20.9239 12.7641 20.7041 16.291 17.1193C16.41 16.9975 16.5262 16.8722 16.6397 16.7433C18.1623 15.0094 19.0013 12.7803 19 10.4727C19 5.21993 14.7418 0.961752 9.48901 0.961792ZM3.11069 4.30168C3.16078 4.24969 3.21277 4.19992 3.26382 4.14951C3.32278 4.09149 3.38143 4.03316 3.44167 3.97704C3.49461 3.92759 3.54914 3.88003 3.60336 3.83184C3.66454 3.77763 3.72541 3.72342 3.78819 3.67111C3.84335 3.6245 3.9001 3.5798 3.95653 3.53478C4.01994 3.48406 4.08334 3.43333 4.14865 3.38451C4.20635 3.34108 4.265 3.29891 4.32397 3.2577C4.3896 3.21078 4.45554 3.16259 4.52243 3.11884C4.58235 3.07826 4.6429 3.03895 4.70377 2.99995C4.77162 2.95652 4.83978 2.91372 4.90858 2.87314C4.97052 2.83616 5.03285 2.79978 5.09562 2.76408C5.16581 2.72413 5.23627 2.68514 5.30709 2.64709C5.37049 2.61329 5.4339 2.5802 5.4973 2.54786C5.56959 2.5114 5.6425 2.47621 5.71574 2.44166C5.77915 2.41154 5.84509 2.38142 5.9104 2.35289C5.9849 2.32119 6.06035 2.28948 6.13581 2.25778C6.20143 2.23083 6.26674 2.20452 6.333 2.17915C6.40972 2.14999 6.48739 2.12272 6.56507 2.09546C6.63133 2.07232 6.69759 2.04917 6.7648 2.0273C6.84374 2.00193 6.92331 1.97847 7.0032 1.95533C7.0701 1.93599 7.13636 1.91602 7.20357 1.89795C7.22925 1.89129 7.25493 1.8859 7.28061 1.87924C6.34219 2.79043 5.64579 3.92128 5.25446 5.1694C4.50198 4.97094 3.77352 4.6906 3.08216 4.33339C3.09262 4.32229 3.1015 4.31119 3.11069 4.30168ZM2.6548 4.8121C3.41635 5.22472 4.22391 5.54611 5.06075 5.76954C4.65051 7.19603 4.43517 8.67145 4.42066 10.1557H0.619454C0.688528 8.19844 1.40427 6.31931 2.6548 4.8121ZM2.6548 16.1333C1.40435 14.6261 0.688607 12.7469 0.619454 10.7897H4.42066C4.43517 12.274 4.65047 13.7494 5.06075 15.1759C4.22395 15.3994 3.41639 15.7207 2.6548 16.1333ZM7.20167 19.0487C7.13763 19.0326 7.07137 19.0116 7.00542 18.9923C6.92521 18.9688 6.84469 18.9454 6.76543 18.9197C6.69854 18.8981 6.6326 18.875 6.56665 18.8519C6.48866 18.8249 6.41067 18.7973 6.33363 18.7679C6.26769 18.7428 6.2027 18.7165 6.13739 18.6899C6.06162 18.6582 5.98585 18.6265 5.91071 18.5947C5.84604 18.5662 5.78168 18.5369 5.71764 18.5066C5.64377 18.4717 5.57022 18.4362 5.49572 18.3995C5.43231 18.3678 5.36891 18.3361 5.3055 18.3015C5.23385 18.2631 5.16284 18.2238 5.09182 18.1832C5.02841 18.1481 4.96818 18.1119 4.90699 18.0751C4.83724 18.0333 4.76877 17.9902 4.70029 17.9461C4.64005 17.9077 4.57981 17.8687 4.52053 17.8288C4.453 17.7831 4.38611 17.7356 4.31985 17.688C4.26183 17.6465 4.20381 17.605 4.14675 17.5612C4.08112 17.5118 4.01677 17.4607 3.95273 17.4094C3.89661 17.3647 3.84081 17.3203 3.78597 17.2743C3.72256 17.2217 3.66137 17.1668 3.59987 17.1123C3.54597 17.0644 3.49176 17.0172 3.43913 16.9684C3.37858 16.9119 3.31993 16.8533 3.26096 16.7953C3.20992 16.7449 3.15793 16.6951 3.10784 16.6434C3.09864 16.6336 3.08977 16.6234 3.08057 16.6139C3.7719 16.2566 4.50036 15.9761 5.25287 15.7776C5.64429 17.0257 6.34065 18.1565 7.27902 19.0678C7.25334 19.0611 7.22735 19.0557 7.20167 19.0487ZM9.17202 19.3246C7.81544 19.1318 6.62625 17.7159 5.87806 15.6251C6.95977 15.3829 8.06364 15.253 9.17202 15.2374V19.3246ZM9.17202 14.6033C7.99623 14.6188 6.82539 14.7584 5.67896 15.0199C5.28089 13.6445 5.0709 12.2215 5.05473 10.7897H9.17202V14.6033ZM9.17202 10.1557H5.05473C5.07086 8.72392 5.28085 7.30092 5.67896 5.92552C6.82539 6.18695 7.99627 6.32661 9.17202 6.3421V10.1557ZM9.17202 5.70804C8.0636 5.69258 6.95977 5.56264 5.87806 5.32031C6.62625 3.22948 7.81544 1.81362 9.17202 1.62086V5.70804ZM16.3233 4.8121C17.5738 6.31935 18.2895 8.19848 18.3586 10.1557H14.5574C14.5429 8.67145 14.3276 7.19603 13.9174 5.76954C14.7542 5.54599 15.5617 5.22464 16.3233 4.8121ZM11.7739 1.89636C11.8405 1.91285 11.9067 1.93377 11.9727 1.95311C12.0529 1.97657 12.1334 2.00003 12.2127 2.02571C12.2796 2.04727 12.3455 2.07041 12.4114 2.09356C12.4894 2.1205 12.5674 2.14809 12.6445 2.17757C12.7104 2.20262 12.7754 2.22893 12.8407 2.25556C12.9165 2.28726 12.9923 2.31897 13.0674 2.35067C13.1321 2.3792 13.1964 2.40857 13.2605 2.4388C13.3343 2.47368 13.4079 2.50919 13.4824 2.54596C13.5458 2.57766 13.6092 2.60937 13.6726 2.64392C13.7443 2.68228 13.8153 2.7216 13.8863 2.76218C13.9497 2.79737 14.0099 2.83351 14.0711 2.87028C14.1409 2.91213 14.2093 2.95525 14.2778 2.99932C14.3381 3.03768 14.3983 3.07667 14.4576 3.11662C14.5251 3.16227 14.5917 3.20951 14.6579 3.25706C14.7163 3.29859 14.7743 3.34044 14.8317 3.38388C14.897 3.43302 14.961 3.48406 15.0254 3.53542C15.0812 3.5798 15.1373 3.62419 15.1921 3.67047C15.2555 3.7231 15.3167 3.77795 15.3782 3.83248C15.4321 3.88035 15.4863 3.92759 15.539 3.97641C15.5995 4.03284 15.6582 4.09149 15.7171 4.14951C15.7682 4.19992 15.8202 4.24969 15.8703 4.30137C15.8795 4.31119 15.8883 4.32134 15.8975 4.33085C15.2062 4.68822 14.4777 4.96868 13.7252 5.16718C13.3331 3.91895 12.6358 2.78821 11.6965 1.87734C11.7222 1.884 11.7482 1.88939 11.7739 1.89636ZM9.80608 1.62086C11.1627 1.81362 12.3518 3.22948 13.1 5.32031C12.0183 5.56252 10.9145 5.69246 9.80608 5.70804V1.62086ZM9.80608 6.3421C10.9819 6.32665 12.1527 6.18699 13.2991 5.92552C13.6972 7.30092 13.9072 8.72392 13.9234 10.1557H9.80608V6.3421ZM9.80608 10.7897H13.9234C13.9072 12.2215 13.6973 13.6445 13.2991 15.0199C12.1527 14.7585 10.9819 14.6188 9.80608 14.6033V10.7897ZM9.80608 19.3246V15.2374C10.9145 15.2528 12.0183 15.3828 13.1 15.6251C12.3518 17.7159 11.1627 19.1318 9.80608 19.3246ZM15.8674 16.6437C15.8173 16.6954 15.7656 16.7452 15.7146 16.7956C15.6556 16.8536 15.5967 16.9123 15.5361 16.9687C15.4835 17.0178 15.4293 17.0638 15.3754 17.1129C15.3139 17.1675 15.2527 17.222 15.1899 17.2746C15.1344 17.3209 15.078 17.3656 15.0216 17.4106C14.9582 17.4614 14.8948 17.5121 14.8295 17.5609C14.7718 17.6043 14.7131 17.6465 14.6541 17.6877C14.5885 17.7346 14.5226 17.7828 14.4557 17.8266C14.3958 17.8672 14.3352 17.9065 14.2743 17.9452C14.2065 17.9889 14.1381 18.0312 14.0692 18.072C14.0058 18.1091 13.9452 18.1452 13.8828 18.181C13.8126 18.221 13.742 18.26 13.671 18.298C13.6076 18.3318 13.5442 18.3649 13.4808 18.3972C13.4085 18.4337 13.3356 18.4689 13.2624 18.5034C13.199 18.5336 13.133 18.5637 13.0677 18.5922C12.9932 18.6239 12.9177 18.6556 12.8423 18.6873C12.7767 18.714 12.7114 18.7406 12.6454 18.7656C12.5681 18.7951 12.4904 18.8227 12.4124 18.8496C12.3465 18.8728 12.2805 18.8959 12.2136 18.9175C12.1344 18.9432 12.0551 18.9666 11.9743 18.9898C11.908 19.0094 11.8414 19.0291 11.7745 19.0472C11.7489 19.0538 11.7232 19.0592 11.6975 19.0659C12.6359 18.1547 13.3323 17.0238 13.7236 15.7757C14.4761 15.9742 15.2046 16.2545 15.8959 16.6117C15.8855 16.6231 15.8766 16.6342 15.8674 16.6437ZM16.3233 16.1333C15.5618 15.7207 14.7542 15.3993 13.9174 15.1759C14.3276 13.7494 14.5429 12.274 14.5574 10.7897H18.3586C18.2896 12.7469 17.5738 14.6261 16.3233 16.1333Z" fill="white"/>
</svg>
