<svg width="48" height="49" viewBox="0 0 48 49" fill="none" xmlns="http://www.w3.org/2000/svg">
<g clip-path="url(#clip0_1_474)">
<path d="M38 8.5H34V6.5C34 5.96957 33.7893 5.46086 33.4142 5.08579C33.0391 4.71071 32.5304 4.5 32 4.5C31.4696 4.5 30.9609 4.71071 30.5858 5.08579C30.2107 5.46086 30 5.96957 30 6.5V8.5H18V6.5C18 5.96957 17.7893 5.46086 17.4142 5.08579C17.0391 4.71071 16.5304 4.5 16 4.5C15.4696 4.5 14.9609 4.71071 14.5858 5.08579C14.2107 5.46086 14 5.96957 14 6.5V8.5H10C8.4087 8.5 6.88258 9.13214 5.75736 10.2574C4.63214 11.3826 4 12.9087 4 14.5V38.5C4 40.0913 4.63214 41.6174 5.75736 42.7426C6.88258 43.8679 8.4087 44.5 10 44.5H38C39.5913 44.5 41.1174 43.8679 42.2426 42.7426C43.3679 41.6174 44 40.0913 44 38.5V14.5C44 12.9087 43.3679 11.3826 42.2426 10.2574C41.1174 9.13214 39.5913 8.5 38 8.5ZM40 38.5C40 39.0304 39.7893 39.5391 39.4142 39.9142C39.0391 40.2893 38.5304 40.5 38 40.5H10C9.46957 40.5 8.96086 40.2893 8.58579 39.9142C8.21071 39.5391 8 39.0304 8 38.5V24.5H40V38.5ZM40 20.5H8V14.5C8 13.9696 8.21071 13.4609 8.58579 13.0858C8.96086 12.7107 9.46957 12.5 10 12.5H14V14.5C14 15.0304 14.2107 15.5391 14.5858 15.9142C14.9609 16.2893 15.4696 16.5 16 16.5C16.5304 16.5 17.0391 16.2893 17.4142 15.9142C17.7893 15.5391 18 15.0304 18 14.5V12.5H30V14.5C30 15.0304 30.2107 15.5391 30.5858 15.9142C30.9609 16.2893 31.4696 16.5 32 16.5C32.5304 16.5 33.0391 16.2893 33.4142 15.9142C33.7893 15.5391 34 15.0304 34 14.5V12.5H38C38.5304 12.5 39.0391 12.7107 39.4142 13.0858C39.7893 13.4609 40 13.9696 40 14.5V20.5Z" fill="#3674E3"/>
</g>
<defs>
<clipPath id="clip0_1_474">
<rect width="48" height="48" fill="white" transform="translate(0 0.200195)"/>
</clipPath>
</defs>
</svg>
