<svg width="48" height="49" viewBox="0 0 48 49" fill="none" xmlns="http://www.w3.org/2000/svg">
<g clip-path="url(#clip0_240_4260)">
<path d="M24 43.5C34.4934 43.5 43 34.9934 43 24.5C43 14.0066 34.4934 5.5 24 5.5C13.5066 5.5 5 14.0066 5 24.5C5 34.9934 13.5066 43.5 24 43.5Z" stroke="#3674E3" stroke-width="4" stroke-linecap="round"/>
<path d="M19.67 27C20.1097 27.759 20.7412 28.3891 21.5012 28.8272C22.2611 29.2652 23.1229 29.4958 24 29.4958C24.8772 29.4958 25.739 29.2652 26.4989 28.8272C27.2589 28.3891 27.8904 27.759 28.33 27" stroke="#3674E3" stroke-width="2" stroke-linecap="round"/>
<path d="M18 16.5H16C14.8954 16.5 14 17.3954 14 18.5C14 19.6046 14.8954 20.5 16 20.5H18C19.1046 20.5 20 19.6046 20 18.5C20 17.3954 19.1046 16.5 18 16.5Z" fill="#3674E3"/>
<path d="M32 16.5H30C28.8954 16.5 28 17.3954 28 18.5C28 19.6046 28.8954 20.5 30 20.5H32C33.1046 20.5 34 19.6046 34 18.5C34 17.3954 33.1046 16.5 32 16.5Z" fill="#3674E3"/>
</g>
<defs>
<clipPath id="clip0_240_4260">
<rect width="48" height="48" fill="white" transform="translate(0 0.200195)"/>
</clipPath>
</defs>
</svg>
