<svg width="48" height="49" viewBox="0 0 48 49" fill="none" xmlns="http://www.w3.org/2000/svg">
<path d="M24.0007 44.1995C25.5065 44.1359 33.2266 40.0635 37.1257 35.2335C43.4982 27.3397 41.8863 17.9877 42.0001 9.71702C33.0043 9.71805 27.1829 7.12527 24.0007 4.2002C20.8162 7.12835 15.0082 9.71805 6.00011 9.71805C6.00011 17.9897 4.5032 27.34 10.8756 35.2335C14.7748 40.0635 22.4949 44.2621 24.0007 44.1995Z" stroke="#3674E3" stroke-width="2" stroke-linecap="round" stroke-linejoin="round"/>
<path d="M24.0226 41.4994C25.3517 41.4438 32.1656 37.8804 35.6071 33.6541C41.2316 26.7471 39.8089 18.564 39.9093 11.3272C31.9694 11.3281 26.8314 9.05944 24.0226 6.5C21.2119 9.06214 16.0857 11.3281 8.13499 11.3281C8.13499 18.5658 6.81379 26.7473 12.4382 33.6541C15.8797 37.8804 22.6936 41.5541 24.0226 41.4994Z" fill="#3674E3"/>
<path d="M17 23.5L19 30L32.5 18" stroke="white" stroke-width="2" stroke-linecap="round" stroke-linejoin="round"/>
</svg>
