<svg width="506" height="65" viewBox="0 0 506 65" fill="none" xmlns="http://www.w3.org/2000/svg">
<path d="M32.654 34.4048C33.344 34.4584 34.041 34.4952 34.7171 34.5755C35.1562 34.6257 35.3443 34.4785 35.637 34.4015C35.7346 34.3747 35.8392 34.3211 35.9299 34.3278C36.6129 34.3814 37.2959 34.4416 37.979 34.5019C38.1881 34.6324 38.3205 34.8065 38.6411 34.8701C38.9548 34.9303 39.3242 34.9303 39.6727 34.9605C40.1327 34.9973 40.5927 35.0341 41.0527 35.0676C41.2827 35.0843 41.4709 35.1479 41.5475 35.2684C41.5615 35.2885 41.4083 35.3387 41.3246 35.3688C41.0458 35.4692 40.774 35.5831 40.4673 35.66C40.1746 35.7337 39.8121 35.6132 39.4984 35.7069C38.7944 35.9178 38.7874 35.9144 38.2508 35.8743C37.7907 35.8374 37.3307 35.7973 36.8707 35.7705C36.7801 35.7638 36.6756 35.814 36.578 35.8408C36.2853 35.9144 36.0971 36.0818 35.6649 36.0182C35.3373 35.968 34.9749 35.958 34.6334 35.9312C34.3476 36.0283 34.0828 36.1387 33.7761 36.2157C33.4903 36.2893 33.4066 36.3463 33.56 36.4433C33.6994 36.5337 33.8946 36.5705 34.1525 36.5772C34.3825 36.5806 34.6125 36.6107 34.8425 36.6274C34.961 36.6374 35.0725 36.6442 35.184 36.6542C35.6231 36.691 35.6232 36.691 36.4247 36.4768C36.7384 36.3931 37.0937 36.5103 37.3935 36.4299C37.5956 36.3764 37.7699 36.2961 37.965 36.2391C38.0487 36.2157 38.1811 36.2124 38.2856 36.219C38.6341 36.2425 38.9826 36.2592 39.3172 36.3027C39.5542 36.3329 39.6936 36.4266 39.6657 36.5203C39.6587 36.5571 39.4915 36.6107 39.3939 36.614C39.1709 36.6207 38.9339 36.5739 38.7179 36.5973C38.5088 36.6207 38.2926 36.6877 38.1393 36.7613C37.8256 36.9153 37.4702 36.7781 37.1705 36.8182C36.8569 36.8617 36.599 36.9956 36.2993 37.076C36.2226 37.096 36.0763 37.0626 35.9578 37.0525C35.6162 37.0291 35.2746 37.009 34.933 36.9856C34.6473 37.0827 34.3406 37.1697 34.0827 37.2801C33.6157 37.481 33.1139 37.5579 32.5075 37.4609C32.166 37.4073 31.8315 37.4274 31.5597 37.5579C31.2809 37.6918 30.9602 37.6785 30.6047 37.6517C30.2771 37.6249 29.9426 37.5513 29.608 37.645C28.8831 37.8525 28.8762 37.8626 28.0189 37.7822C27.761 37.7588 27.5658 37.7521 27.3707 37.8291C27.1895 37.8994 26.9943 37.9596 26.8061 38.0266C26.4645 38.0031 26.1161 37.9797 25.7745 37.9529C25.3354 37.9161 25.0916 37.963 24.987 38.1504C24.9243 38.2642 24.8963 38.368 24.743 38.445C24.5618 38.5387 24.3667 38.5353 24.1018 38.5086C23.8509 38.4851 23.6697 38.4483 23.5651 38.3278C23.5233 38.2776 23.4396 38.2308 23.3629 38.1906C23.3002 38.1605 23.2026 38.1136 23.1468 38.1203C23.0423 38.1337 22.903 38.1705 22.8681 38.214C22.5266 38.619 22.5266 38.6224 22.1781 38.7395C21.7947 38.8701 21.3974 38.9872 21.0489 39.1345C20.7352 39.265 20.4216 39.2082 20.0801 39.2082C19.8222 39.2082 19.6549 39.2952 19.6758 39.3822C19.6897 39.4324 19.7873 39.506 19.871 39.5127C20.554 39.5797 21.244 39.6366 21.9341 39.6835C22.0177 39.6901 22.1222 39.6299 22.2198 39.5998C22.4149 39.5395 22.5892 39.4458 22.7983 39.4257C23.0074 39.4056 23.2514 39.4558 23.4814 39.4726C23.7114 39.4893 23.9553 39.5329 24.1644 39.5061C24.3735 39.4793 24.5409 39.3822 24.736 39.3186C24.8266 39.2885 24.952 39.245 25.0287 39.255C25.5375 39.3354 25.9139 39.2249 26.2764 39.0776C26.353 39.0475 26.4854 39.0274 26.583 39.0341C27.3915 39.091 28.193 39.1579 29.0016 39.2215C29.3291 39.2483 29.5941 39.1312 29.6638 38.9337C29.6987 38.8232 29.7683 38.7128 29.7683 38.6023C29.7683 38.4015 30.1516 38.291 30.4304 38.3144C30.8905 38.3479 31.3574 38.3747 31.8105 38.4249C32.1799 38.465 32.4936 38.4249 32.7445 38.3044C33.0373 38.1671 33.3717 38.1939 33.7063 38.2308C33.9572 38.2575 34.0271 38.368 34.0131 38.6458C33.9992 38.8701 34.1177 38.9404 34.5707 38.9772C35.1423 39.024 35.7208 39.0709 36.2993 39.1077C36.3899 39.1144 36.4944 39.0575 36.585 39.0274C36.7802 38.9672 36.9545 38.8701 37.1636 38.85C37.3727 38.8266 37.6166 38.8768 37.8466 38.8969C38.0766 38.9136 38.3206 38.9604 38.5297 38.937C38.7388 38.9136 38.913 38.8132 39.1012 38.7496C39.1918 38.7195 39.3033 38.6759 39.3939 38.6826C39.8539 38.7094 40.314 38.7496 40.774 38.7864C41.2897 38.8266 41.2898 38.8266 42.0216 38.619C42.3562 38.5253 42.6907 38.599 43.0183 38.6257C43.3668 38.6525 43.6945 38.6659 43.9663 38.532C44.1475 38.445 44.3495 38.3914 44.5656 38.4082C45.1441 38.4483 45.7156 38.4985 46.2941 38.5387C46.3917 38.5454 46.5241 38.5287 46.6008 38.4985C46.9702 38.358 47.3327 38.2475 47.8484 38.3178C48.2945 38.378 48.7754 38.3814 49.2215 38.4383C49.4655 38.4684 49.5771 38.5755 49.5283 38.6592C49.5004 38.7027 49.354 38.7529 49.2564 38.7529C49.0334 38.7563 48.7894 38.7061 48.5803 38.7261C48.1482 38.7663 47.9321 39.0475 47.3676 38.9705C47.033 38.9236 46.6845 38.9069 46.336 38.8935C46.2454 38.8902 46.1479 38.9538 46.0503 38.9872C45.7715 39.0776 45.5275 39.1947 45.1232 39.1345C44.7887 39.0876 44.4332 39.0743 44.0917 39.0475C43.548 39.004 43.548 39.0073 42.844 39.2115C42.5095 39.3086 42.175 39.2316 41.8474 39.2082C41.6034 39.1914 41.3734 39.158 41.1783 39.2048C40.8786 39.2751 40.6625 39.4357 40.2931 39.4257C39.9446 39.4157 39.6031 39.3688 39.2546 39.3521C39.0385 39.342 38.8363 39.3956 38.662 39.486C38.4808 39.5763 38.2857 39.6165 38.0488 39.5964C37.7072 39.5696 37.3587 39.5362 37.0102 39.5194C36.9127 39.5161 36.801 39.5462 36.7104 39.573C36.5153 39.6333 36.3272 39.7035 36.139 39.7671C35.7975 39.747 35.4488 39.7404 35.1143 39.7002C34.8564 39.6701 34.6752 39.6835 34.4661 39.7504C34.2012 39.8408 33.9851 40.0015 33.553 39.9245C33.3369 39.8877 33.086 39.8977 32.8699 39.8642C32.6051 39.8207 32.4239 39.8374 32.2357 39.9378C31.8803 40.1286 31.4341 40.132 30.9741 40.0583C30.4723 39.978 30.0959 40.0718 29.7195 40.219C29.3222 40.373 29.3222 40.3697 29.0155 40.7412C28.9249 40.8483 28.6671 40.8985 28.4511 40.8784C28.0886 40.845 27.7749 40.8617 27.5101 40.9889C27.2313 41.1261 26.8968 41.1094 26.5553 41.0726C26.1022 41.0224 25.6491 40.9789 25.2797 41.173C25.0985 41.2667 24.9032 41.2901 24.6593 41.2667C23.9692 41.2064 23.2723 41.1697 22.5962 41.096C22.1849 41.0492 21.9481 41.1563 21.6693 41.2466C21.2929 41.3705 20.8816 41.4809 20.8816 41.7454C20.8816 41.7889 20.784 41.8391 20.7004 41.8726C20.5191 41.9429 20.3239 42.0031 20.1357 42.07C19.8569 42.1705 19.5852 42.2542 19.2019 42.2006C18.8673 42.1571 18.5119 42.1437 18.1703 42.1136C17.8288 42.0834 17.5151 42.0667 17.2084 42.1939C16.8529 42.3378 16.4766 42.4751 16.0724 42.5822C15.7866 42.6592 15.4101 42.5286 15.1034 42.6324C14.9152 42.696 14.7341 42.7696 14.532 42.8232C14.4484 42.8466 14.3158 42.8299 14.2043 42.8232C13.9743 42.8098 13.7373 42.7998 13.5143 42.7663C13.2564 42.7295 13.0613 42.7362 12.8661 42.8132C12.6849 42.8835 12.5036 42.9805 12.2945 43.0006C11.9809 43.0307 11.6324 42.8968 11.3188 43.0508C11.1585 43.1278 10.9563 43.2014 10.7472 43.2249C10.5381 43.2483 10.2942 43.1981 10.0711 43.2014C9.97354 43.2014 9.85513 43.255 9.79937 43.2985C9.76452 43.3219 9.8132 43.3855 9.86199 43.419C9.92472 43.4592 10.0154 43.5127 10.106 43.5194C10.796 43.5797 11.486 43.6299 12.1761 43.6868C12.5873 43.7203 12.5873 43.7203 13.4168 43.5094C13.6119 43.4592 13.8279 43.4692 14.0719 43.4926C14.3995 43.5228 14.734 43.5797 15.0755 43.5194C15.5216 43.2918 16.0723 43.2717 16.6577 43.3587C16.9017 43.3956 17.1248 43.3956 17.3061 43.332C17.6894 43.2048 18.0936 43.0876 18.4351 42.937C18.7 42.8199 18.8254 42.8098 18.9369 42.9705C18.9718 43.0207 19.0067 43.0742 18.9997 43.1211C18.9579 43.2885 18.8812 43.4525 18.8394 43.6198C18.8255 43.6667 18.8812 43.7203 18.916 43.7705C19.0275 43.9111 19.1739 43.901 19.4178 43.7838C19.6618 43.6667 19.9546 43.5897 20.3449 43.6433C20.6794 43.6901 21.0419 43.6835 21.3764 43.7337C21.8922 43.8073 22.2547 43.7002 22.6241 43.5563C22.7008 43.5261 22.8331 43.5094 22.9307 43.5161C23.9693 43.5931 25.0008 43.6801 26.0393 43.7571C26.2624 43.7738 26.4646 43.7236 26.6388 43.6332C26.82 43.5429 27.0222 43.496 27.2453 43.5127C28.1653 43.583 29.0853 43.6466 30.0054 43.7337C30.3817 43.7705 30.6813 43.7269 30.9392 43.6098C31.1344 43.5228 31.3157 43.496 31.5597 43.506C31.8245 43.5161 32.0126 43.5496 32.145 43.6466C32.2705 43.7404 32.18 43.7972 31.9012 43.8709C31.6015 43.9512 31.3227 44.055 31.0369 44.1487C30.8069 44.1353 30.5769 44.1085 30.3539 44.1119C30.2563 44.1119 30.1656 44.1721 30.068 44.2056C29.7892 44.3027 29.5314 44.3998 29.1341 44.3462C28.7996 44.2993 28.4441 44.2893 28.1026 44.2592C27.6286 44.2223 27.6286 44.2224 26.8619 44.4332C26.6667 44.4868 26.4577 44.4834 26.2068 44.4533C25.9907 44.4299 25.7676 44.4767 25.6142 44.5771C25.5515 44.6173 25.5723 44.6843 25.7048 44.9052C25.7048 45.0692 25.5585 44.9956 25.5098 44.8885C25.4331 44.7345 25.5795 44.6843 25.8583 44.768C26.0534 44.8282 26.1509 44.9152 26.1021 44.9855C26.0742 45.0224 25.9417 45.0692 25.7048 44.9052C25.0914 44.7044 24.6245 44.6809 24.1784 44.6274C23.9135 44.5972 23.7463 44.6106 23.5372 44.6976C23.2863 44.8014 23.0353 44.9119 22.6241 44.8583C22.178 44.7981 21.7041 44.7914 21.251 44.7412C20.8328 44.6943 20.6167 44.8416 20.3519 44.9286C20.0312 45.0324 19.6758 44.9152 19.3831 44.9755C19.0764 45.0357 18.8603 45.183 18.5049 45.2098C17.9891 45.1194 17.6615 45.2868 17.2712 45.3972C16.9645 45.4809 16.6021 45.4073 16.2745 45.3704C15.9051 45.3303 15.5984 45.3671 15.3405 45.4876C15.0477 45.6249 14.7201 45.5947 14.3855 45.5646C13.6049 45.4977 13.5771 45.4876 13.1241 45.6717C12.7965 45.8056 12.4827 45.7454 12.1551 45.7286C11.8694 45.819 11.5906 45.916 11.2909 45.9964C11.2142 46.0165 11.0678 45.983 10.9493 45.973C10.6078 45.9462 10.2593 45.9194 9.9178 45.8926C9.68779 45.8759 9.44386 45.8257 9.23476 45.8458C9.02566 45.8692 8.85136 45.9663 8.66317 46.0299C8.47498 46.0935 8.27978 46.1571 8.09856 46.224C7.81976 46.3244 7.55501 46.4081 7.16469 46.3579C6.83013 46.3144 6.48164 46.301 6.13314 46.2709C5.69403 46.2341 5.70795 46.2441 4.89246 46.4449C4.45336 46.5554 4.00036 46.4215 3.55428 46.4081C3.33124 46.4014 3.1151 46.4383 2.96176 46.5353C2.89903 46.5755 2.91988 46.6424 2.89897 46.6993C4.04902 46.7897 5.20617 46.8667 6.34228 46.9771C6.78139 47.0207 7.01126 46.9001 7.24824 46.7997C7.63856 46.6391 8.15439 46.8734 8.5238 46.6658C8.74684 46.542 9.06752 46.4717 9.45087 46.532C9.67391 46.5654 9.91088 46.5621 10.1409 46.5922C10.7264 46.6658 11.2631 46.6692 11.7301 46.4382C11.8904 46.3579 12.1203 46.3144 12.2875 46.2374C12.4827 46.1537 12.671 46.1068 12.901 46.1236C13.9395 46.2039 14.971 46.2842 16.0026 46.3713C16.0932 46.378 16.1839 46.4282 16.2606 46.465C16.4557 46.5587 16.393 46.6324 16.0793 46.6926C15.9748 46.7127 15.891 46.7562 15.7935 46.7897C15.6053 46.8533 15.4311 46.9537 15.222 46.9771C15.0129 47.0006 14.7688 46.9537 14.5388 46.937C14.3088 46.9202 14.0649 46.87 13.8558 46.8901C13.6467 46.9135 13.4725 47.0106 13.2774 47.0709C13.1868 47.101 13.0751 47.1512 12.9845 47.1479C12.5245 47.1278 12.0715 47.0909 11.6115 47.0608C11.3257 47.1512 11.0817 47.2817 10.7402 47.3119C10.5241 47.332 10.2942 47.2951 10.0711 47.3018C9.97354 47.3052 9.84816 47.3554 9.79937 47.3989C9.77149 47.4257 9.86206 47.4926 9.93176 47.5261C10.1966 47.6533 10.559 47.6298 10.8866 47.67C11.242 47.7135 11.5627 47.7002 11.8345 47.5696C12.0158 47.4826 12.218 47.4357 12.441 47.4525C13.0195 47.496 13.5911 47.5462 14.1696 47.583C14.2671 47.5897 14.3856 47.5596 14.4762 47.5361C15.2081 47.332 15.2081 47.3253 15.7239 47.3688C16.4836 47.4324 16.4835 47.4324 16.9923 47.2549C17.0899 47.2215 17.1945 47.1579 17.2782 47.1613C18.0867 47.2148 18.8882 47.2683 19.6897 47.3453C19.9546 47.3688 20.1358 47.3688 20.3309 47.2818C20.4982 47.2081 20.6934 47.1244 20.9025 47.1043C21.1186 47.0843 21.3556 47.1345 21.5856 47.1512C21.8156 47.1679 22.0595 47.2114 22.2616 47.1847C22.4707 47.1579 22.652 47.0642 22.8332 46.9972C23.0214 46.927 23.2235 46.9303 23.4814 46.957C24.276 47.034 24.2829 47.024 25.0706 46.8165C25.1612 46.793 25.2796 46.7663 25.3772 46.773C25.9557 46.8131 26.5272 46.8633 27.1057 46.9035C27.3288 46.9202 27.5449 46.8767 27.6983 46.7797C27.761 46.7395 27.74 46.6725 27.7818 46.542C27.8306 46.5119 27.775 46.5654 27.761 46.6157C27.6565 46.609 27.5309 46.6156 27.4542 46.5888C27.2591 46.5253 27.1616 46.4416 27.2104 46.3713C27.2383 46.3344 27.3706 46.2876 27.4542 46.2876C27.6076 46.2876 27.74 46.3612 27.7818 46.542C28.2209 46.6524 28.688 46.6759 29.1411 46.7294C29.406 46.7629 29.5732 46.7462 29.7823 46.6592C30.0332 46.5521 30.2911 46.4483 30.7024 46.5018C31.1484 46.5621 31.6224 46.5721 32.0824 46.619C32.6121 46.6726 32.8421 46.3713 33.2882 46.378C33.7482 46.3847 34.2082 46.4416 34.6682 46.4818C35.0725 46.5152 35.0725 46.5152 35.9089 46.2976C36.2156 46.2173 36.578 46.3345 36.8777 46.2508C37.0798 46.1972 37.2541 46.1169 37.4493 46.06C37.5329 46.0366 37.6653 46.0365 37.7699 46.0432C38.3484 46.0834 38.9338 46.1102 39.4914 46.1838C40.1257 46.2709 40.6066 46.1772 41.0597 45.9797C41.6312 46.0165 42.2097 46.0366 42.7743 46.1002C43.1855 46.147 43.4225 46.0366 43.7013 45.9462C43.7989 45.9161 43.8825 45.8659 43.987 45.8525C44.0916 45.8391 44.2172 45.8658 44.3287 45.8759C44.7888 45.9127 45.2627 45.9295 45.7088 45.9897C46.2594 46.0667 46.4685 45.7922 46.8936 45.7587C47.1794 45.9227 47.3327 46.147 47.8973 46.1637C48.3573 46.1771 48.8173 46.2307 49.2773 46.2675C49.5073 46.2843 49.7373 46.3044 49.9673 46.3211C50.3368 46.3512 50.511 46.4817 50.4343 46.6826C50.3925 46.793 50.3577 46.9035 50.3228 47.014C50.2531 47.2114 50.4274 47.3788 50.7202 47.4022C51.5287 47.4658 52.3302 47.5328 53.1387 47.5897C53.3548 47.6064 53.564 47.5495 53.7382 47.4591C53.9194 47.3688 54.1215 47.3286 54.3445 47.3453C55.153 47.4089 55.9546 47.4759 56.7631 47.5328C56.8537 47.5395 56.9721 47.506 57.0628 47.4792C57.2579 47.419 57.4461 47.3487 57.6343 47.2851C58.0944 47.3152 58.5474 47.3353 59.0004 47.3754C59.7323 47.4357 59.7323 47.439 60.269 47.2549C60.3666 47.2215 60.4641 47.1579 60.5547 47.1613C60.9032 47.1746 61.2447 47.2081 61.5932 47.2382C62.6178 47.3253 62.6179 47.3253 62.9176 47.2248C63.1895 47.1311 63.4335 47.0173 63.8447 47.0709C64.2908 47.1311 64.7647 47.1512 65.2248 47.1847C65.5663 47.2081 65.9078 47.2349 66.2493 47.2416C66.3399 47.2449 66.4375 47.1813 66.535 47.1479C66.8138 47.0441 67.0857 46.9604 67.4691 47.0173C67.6921 47.0508 67.9291 47.0575 68.1591 47.0742C68.7585 47.1211 68.7585 47.1211 69.7413 46.9202C69.8389 46.9001 69.9573 46.8767 70.0549 46.8868C70.8634 46.947 71.665 47.014 72.4735 47.0709C72.5711 47.0776 72.6895 47.0575 72.7871 47.0407C73.8884 46.8466 73.8884 46.8466 75.0593 46.9403C75.5054 46.9738 75.5194 46.9872 75.9864 46.8098C76.1955 46.7328 76.3697 46.696 76.6136 46.7194C77.5337 46.7997 78.4606 46.8533 79.3737 46.947C79.7849 46.9872 80.022 46.8868 80.3008 46.7964C80.3983 46.7663 80.5028 46.6993 80.5865 46.7027C81.5065 46.7663 82.4267 46.8433 83.3467 46.9069C83.4304 46.9136 83.5349 46.8466 83.6324 46.8165C83.8206 46.7562 84.0019 46.6658 84.211 46.6458C84.4271 46.6257 84.664 46.6759 84.901 46.6926C85.4795 46.7361 85.4796 46.7328 86.1487 46.5353C86.2393 46.5085 86.3577 46.4717 86.4483 46.4784C87.3684 46.5453 88.2954 46.6023 89.2084 46.6993C89.7312 46.7529 90.0867 46.6558 90.4561 46.5152C90.5328 46.4851 90.6652 46.4717 90.7627 46.4784C91.8013 46.5554 92.8328 46.6424 93.8713 46.7194C94.0874 46.7361 94.2966 46.6792 94.4708 46.5922C94.7496 46.455 95.0771 46.4717 95.4256 46.5018C96.2272 46.5721 96.2342 46.5688 96.7082 46.4081C96.8057 46.3747 96.8893 46.3311 96.9939 46.3144C97.0914 46.2977 97.2169 46.3077 97.3214 46.3144C97.7815 46.3479 98.2415 46.3847 98.7015 46.4215C99.1615 46.4583 99.6286 46.4784 100.082 46.5353C100.639 46.6056 100.904 46.388 101.294 46.2876C101.866 46.3311 102.451 46.3579 103.016 46.4282C103.448 46.4817 103.65 46.3345 103.936 46.2575C104.034 46.2307 104.138 46.1738 104.229 46.1805C105.267 46.2541 106.306 46.3345 107.337 46.4248C107.588 46.4449 107.756 46.4181 107.965 46.3378C108.432 46.1571 108.453 46.1638 109.233 46.2307C109.575 46.2608 109.902 46.2876 110.195 46.1504C110.453 46.0265 110.767 45.9964 111.136 46.0365C111.589 46.0868 112.056 46.1136 112.516 46.147C112.976 46.1838 113.436 46.234 113.896 46.2508C114.266 46.2675 114.489 46.1102 114.781 46.0299C114.872 46.0065 114.997 46.0031 115.102 46.0098C115.562 46.0399 116.036 46.0633 116.482 46.1202C117.026 46.1905 117.325 46.0064 117.709 45.8993C117.792 45.8759 117.932 45.8893 118.036 45.8993C118.845 45.9596 119.646 46.0265 120.455 46.0901C120.741 45.9997 121.033 45.9127 121.319 45.8224C121.779 45.8558 122.239 45.8926 122.699 45.9261C123.048 45.9529 123.403 45.9629 123.731 46.0131C124.156 46.0801 124.365 45.9228 124.651 45.8458C124.748 45.819 124.853 45.7621 124.944 45.7688C125.522 45.8056 126.101 45.8458 126.672 45.9027C127.216 45.9596 127.432 45.6583 127.878 45.6617C128.338 45.665 128.812 45.7085 129.258 45.7688C129.774 45.8391 130.136 45.732 130.506 45.588C130.582 45.5579 130.715 45.5412 130.812 45.5479C131.391 45.588 131.962 45.6382 132.541 45.6784C132.638 45.6851 132.757 45.6684 132.854 45.6483C133.956 45.4508 133.956 45.4475 134.437 45.4876C134.778 45.5144 135.127 45.5479 135.475 45.5646C135.573 45.5713 135.691 45.5412 135.782 45.5144C136.507 45.3102 136.507 45.3069 137.03 45.347C137.49 45.3838 137.95 45.4207 138.41 45.4575C138.695 45.3671 138.988 45.2801 139.274 45.1897C139.845 45.2332 140.431 45.2667 140.996 45.3269C141.26 45.3537 141.435 45.3437 141.637 45.26C141.888 45.1596 142.139 45.0424 142.557 45.0993C143.003 45.1596 143.477 45.1663 143.93 45.2165C144.474 45.2767 144.697 44.9721 145.136 44.9755C145.596 44.9788 146.07 45.0223 146.516 45.0826C147.031 45.1529 147.394 45.0458 147.763 44.9019C147.84 44.8717 147.972 44.855 148.07 44.8617C149.339 44.9588 150.6 45.0558 151.869 45.1596C152.649 45.2232 152.649 45.2265 154.134 45.0424C154.238 45.029 154.35 45.0157 154.455 45.0224C154.915 45.0525 155.389 45.0759 155.835 45.1328C156.378 45.2031 156.678 45.0223 157.061 44.9119C157.145 44.8884 157.277 44.9018 157.389 44.9085C157.737 44.9319 158.079 44.9621 158.427 44.9889C158.887 45.0257 159.347 45.0625 159.808 45.0993C160.093 45.0123 160.386 44.9219 160.672 44.8349C161.243 44.8784 161.829 44.9018 162.393 44.9721C162.825 45.0257 163.028 44.8851 163.313 44.8048C163.411 44.778 163.516 44.7211 163.606 44.7244C164.645 44.7981 165.683 44.8751 166.715 44.9688C167.14 45.009 167.335 44.8583 167.621 44.7813C167.718 44.7579 167.83 44.7144 167.921 44.7211C168.611 44.768 169.301 44.8249 169.991 44.8818C170.381 44.9152 170.381 44.9152 171.231 44.7077C171.329 44.6843 171.44 44.6608 171.538 44.6675C173.726 44.8349 175.908 45.0123 178.097 45.1797C178.32 45.1964 178.522 45.1462 178.696 45.0558C178.877 44.9654 179.08 44.9186 179.303 44.9353C180.223 45.0056 181.15 45.0692 182.063 45.1563C182.439 45.1931 182.739 45.1495 182.997 45.0324C183.192 44.9453 183.373 44.9119 183.617 44.932C184.077 44.9721 184.537 45.0056 184.997 45.0424C185.457 45.0792 185.917 45.1161 186.377 45.1529C186.837 45.1897 187.304 45.2098 187.757 45.2667C188.315 45.337 188.586 45.1295 188.97 45.0257C189.66 45.0759 190.35 45.1261 191.033 45.1797C191.953 45.25 192.873 45.3269 193.793 45.3939C193.877 45.4006 193.981 45.3403 194.079 45.3102C194.365 45.2265 194.574 45.1094 194.999 45.1462C197.062 45.3236 199.139 45.4742 201.209 45.6483C201.641 45.6851 201.83 45.5412 202.122 45.4642C202.22 45.4407 202.331 45.3939 202.422 45.4006C203.572 45.4843 204.722 45.578 205.872 45.6684C206.339 45.7052 206.339 45.7052 207.12 45.4976C207.21 45.4742 207.329 45.4441 207.427 45.4508C208.925 45.5646 210.417 45.6851 211.915 45.8023C212.138 45.819 212.34 45.7721 212.521 45.6818C212.696 45.5914 212.905 45.5412 213.121 45.5579C214.501 45.665 215.888 45.7688 217.261 45.8859C217.631 45.9194 217.937 45.8893 218.202 45.7688C218.39 45.6818 218.578 45.6449 218.815 45.665C220.885 45.829 222.956 45.9864 225.026 46.1604C225.423 46.1939 225.702 46.1303 225.953 46.0198C226.155 45.9328 226.329 45.9161 226.58 45.9294C226.845 45.9462 227.005 45.983 227.151 46.0834C227.34 46.214 227.458 46.378 227.904 46.388C228.364 46.3981 228.831 46.4383 229.284 46.4952C229.716 46.5521 229.919 46.4014 230.19 46.311C230.393 46.2474 230.581 46.2374 230.839 46.2675C231.076 46.2943 231.222 46.3512 231.361 46.4583C231.668 46.6859 231.696 46.6859 232.072 46.542C232.274 46.465 232.456 46.4047 232.679 46.4181C233.599 46.4851 234.519 46.5587 235.439 46.6357C235.969 46.6792 235.975 46.6859 236.373 46.5186C236.568 46.4349 236.756 46.3947 236.986 46.4148C239.516 46.6156 242.046 46.8098 244.576 47.0207C244.967 47.0541 245.232 46.9838 245.511 46.8834C245.601 46.8499 245.692 46.8031 245.796 46.7897C245.901 46.7763 246.019 46.7897 246.131 46.7964C247.971 46.9403 249.818 47.0776 251.651 47.2382C252.069 47.2751 252.292 47.168 252.578 47.0809C252.676 47.0508 252.759 47.0039 252.864 46.9905C252.968 46.9805 253.094 47.0039 253.205 47.014C255.045 47.1579 256.892 47.2951 258.726 47.4558C259.165 47.4926 259.353 47.352 259.639 47.2784C259.736 47.2516 259.841 47.2014 259.931 47.2081C260.51 47.2449 261.081 47.2951 261.66 47.3386C263.04 47.4491 264.42 47.5529 265.8 47.6667C266.33 47.7102 266.56 47.4123 267.006 47.4257C267.585 47.4424 268.156 47.5093 268.735 47.5562C269.195 47.593 269.655 47.6265 270.115 47.6667C270.568 47.7035 270.568 47.7035 271.697 47.5093C271.794 47.4926 271.913 47.4692 272.01 47.4759C273.62 47.5997 275.237 47.7236 276.841 47.8575C277.21 47.8876 277.517 47.8709 277.782 47.747C277.97 47.66 278.165 47.6165 278.395 47.6365C280.813 47.8273 283.225 48.0182 285.644 48.2056C285.734 48.2123 285.853 48.1788 285.943 48.152C286.139 48.0918 286.327 48.0215 286.515 47.9579C286.654 48.0349 286.836 48.1052 286.926 48.1922C287.052 48.3094 287.219 48.3428 287.484 48.3629C287.749 48.383 287.916 48.3763 288.125 48.2893C288.376 48.1822 288.634 48.0985 289.045 48.1319C291.575 48.3428 294.105 48.5336 296.635 48.7412C297.054 48.7746 297.249 48.6273 297.541 48.5503C297.639 48.5269 297.751 48.4901 297.841 48.4968C298.88 48.5738 299.911 48.6575 300.95 48.7378C303.828 48.9654 306.707 49.183 309.579 49.424C310.101 49.4675 310.457 49.3838 310.826 49.2399C310.903 49.2098 311.035 49.193 311.133 49.1997C315.162 49.5144 319.19 49.8323 323.212 50.1503C323.428 50.1671 323.637 50.1135 323.811 50.0265C323.993 49.9361 324.195 49.8926 324.418 49.9093C326.258 50.0533 328.098 50.1972 329.938 50.3445C330.398 50.3813 330.405 50.3846 330.879 50.224C330.977 50.1905 331.081 50.1269 331.158 50.1336C331.318 50.1504 331.471 50.234 331.583 50.3478C331.694 50.4683 331.869 50.5018 332.127 50.5252C332.391 50.5487 332.566 50.5386 332.768 50.4583C333.026 50.3579 333.263 50.2608 333.681 50.2943C338.971 50.7227 344.261 51.1344 349.552 51.5595C349.977 51.593 350.172 51.4524 350.465 51.3754C350.562 51.352 350.66 51.3185 350.764 51.3118C350.876 51.3051 350.994 51.3252 351.106 51.3353C359.735 52.0148 368.364 52.6976 376.992 53.3771C377.508 53.4173 377.501 53.4173 378.066 53.7252C378.135 53.762 378.226 53.8122 378.324 53.8189C380.965 54.0331 383.614 54.2407 386.262 54.4482C387.413 54.5386 388.563 54.6323 389.713 54.7194C390.124 54.7495 390.124 54.7495 391.107 55.111C391.19 55.1411 391.288 55.1813 391.385 55.188C395.986 55.5528 400.586 55.9177 405.193 56.2758C405.556 56.3026 405.848 56.3629 406.015 56.5235C406.134 56.6373 406.287 56.7043 406.517 56.7244C409.737 56.9788 412.958 57.2365 416.185 57.4842C416.568 57.5143 416.798 57.6081 416.986 57.7486C417.049 57.7955 417.105 57.849 417.195 57.8825C417.279 57.9126 417.404 57.9227 417.509 57.9327C420.269 58.1503 423.029 58.3746 425.796 58.5821C426.207 58.6122 426.375 58.7361 426.577 58.8666C426.647 58.9101 426.695 58.9704 426.786 59.0005C426.877 59.0273 427.009 59.0273 427.121 59.034C429.421 59.2147 431.721 59.3988 434.021 59.5796C434.467 59.5628 434.565 59.757 434.781 59.8741C434.857 59.9143 434.913 59.9679 435.004 59.9946C435.101 60.0214 435.227 60.0181 435.345 60.0248C437.185 60.1687 439.025 60.3227 440.872 60.4566C441.298 60.4867 441.381 60.6574 441.611 60.7745C441.688 60.8114 441.765 60.8683 441.855 60.8783C443.005 60.9754 444.155 61.0657 445.305 61.1528C445.689 61.1829 445.689 61.1796 446.365 61.511C446.441 61.5478 446.532 61.5879 446.63 61.598C448.351 61.7386 450.08 61.8725 451.808 62.0097C452.031 62.0264 452.185 62.1068 452.296 62.2206C452.408 62.3344 452.568 62.408 452.791 62.4248C454.171 62.5352 455.551 62.649 456.931 62.7494C457.315 62.7762 457.566 62.8599 457.733 63.0105C457.858 63.1243 458.012 63.1812 458.256 63.2013C459.636 63.3084 461.016 63.4256 462.403 63.5193C462.807 63.5461 463.016 63.6599 463.183 63.8005C463.316 63.9143 463.469 63.9544 463.727 63.9745C466.257 64.1687 468.794 64.3628 471.317 64.577C471.742 64.6138 471.959 64.4967 472.237 64.413C472.635 64.2958 473.004 64.1686 473.004 63.9076C473.004 63.8674 473.123 63.8205 473.206 63.7871C473.826 63.536 473.827 63.536 473.924 63.2683C473.98 63.1043 474.043 62.9369 474.091 62.7695C474.182 62.4951 474.405 62.4248 475.046 62.475C475.276 62.4917 475.506 62.5151 475.736 62.5285C476.078 62.5519 476.336 62.4415 476.398 62.2406C476.433 62.1302 476.475 62.0197 476.51 61.9093C476.161 61.8825 476.168 61.8792 475.555 61.4741C475.297 61.3034 475.297 61.3034 475.792 61.1327C475.98 61.0691 476.161 60.9988 476.364 60.9385C476.454 60.9118 476.573 60.895 476.67 60.9017C477.249 60.9419 477.82 60.9888 478.392 61.0356C479.312 61.1093 479.312 61.1093 480.246 60.7678C480.323 60.7411 480.441 60.6909 480.427 60.6641C480.35 60.5402 480.162 60.4867 479.925 60.4733C479.577 60.4532 479.235 60.4197 478.894 60.3929C478.664 60.3762 478.434 60.3562 478.204 60.3394C477.988 60.2122 477.765 60.0884 477.562 59.9578C477.242 59.757 477.242 59.7503 477.681 59.6097C477.96 59.516 478.26 59.4323 478.545 59.3452C478.887 59.372 479.235 59.4021 479.577 59.4256C480.009 59.4557 480.183 59.3921 480.295 59.1745C480.392 58.9837 480.274 58.8197 479.939 58.7796C479.598 58.7394 479.277 58.7126 479.103 58.5419C478.935 58.3779 478.643 58.3143 478.28 58.3009C478.05 58.2909 477.82 58.2675 477.59 58.2474C477.291 58.2206 477.13 58.0499 477.193 57.8591C477.228 57.7352 477.298 57.6315 477.569 57.6047C478.775 57.4875 478.789 57.4909 479.389 57.2633C479.444 57.2432 479.486 57.1829 479.465 57.1528C479.43 57.1026 479.354 57.029 479.27 57.0189C478.468 56.9453 477.667 56.8784 476.865 56.8281C476.601 56.8114 476.405 56.7879 476.315 56.6641C476.189 56.4934 476.245 56.3361 476.489 56.2189C476.566 56.1821 476.691 56.1352 476.775 56.1386C477.695 56.1988 478.608 56.2758 479.528 56.3361C479.612 56.3428 479.765 56.2859 479.8 56.2424C479.869 56.162 479.765 56.0549 479.521 56.0181C479.2 55.9679 478.873 55.9645 478.657 55.7972C478.357 55.5595 477.988 55.342 477.653 55.1143C477.597 55.0742 477.507 54.9972 477.528 54.9905C477.702 54.9168 477.904 54.8599 478.085 54.7896C478.392 54.6725 478.392 54.5085 478.322 54.3512C478.266 54.224 478.057 54.1737 477.799 54.1737C477.688 54.1737 477.549 54.1738 477.458 54.1436C477.221 54.07 477.144 53.9762 477.263 53.906C477.332 53.8658 477.458 53.8089 477.541 53.8156C479.033 53.9261 480.532 54.0332 482.016 54.1704C482.455 54.2106 482.657 54.0834 482.922 53.993C483.124 53.9227 483.313 53.8959 483.564 53.9461C483.801 53.993 484.031 53.9662 484.177 53.8558C484.295 53.7654 484.086 53.6884 483.522 53.6014C483.417 53.5846 483.299 53.5746 483.222 53.5411C482.414 53.1796 482.414 53.1763 481.856 53.1294C481.312 53.0859 481.312 53.0826 481.026 52.8884C480.894 52.798 480.748 52.7076 480.622 52.6139C480.574 52.5771 480.49 52.5102 480.518 52.4901C480.671 52.3863 480.88 52.3629 481.124 52.3863C481.668 52.4432 482.309 52.3964 482.595 52.7143C482.706 52.8348 482.88 52.8683 483.131 52.8884C485.655 53.0826 488.178 53.2901 490.708 53.4775C491.119 53.5077 491.307 53.6315 491.467 53.7687C491.607 53.8826 491.76 53.916 492.025 53.9361C492.29 53.9562 492.499 53.9662 492.653 53.8558C492.743 53.7888 492.666 53.6951 492.457 53.6014C492.158 53.4675 492.213 53.3001 492.311 53.1428C492.381 53.039 492.597 52.9654 492.827 52.9721C493.168 52.9855 493.496 53.0223 493.782 52.8884C493.949 52.8114 494.158 52.7578 494.346 52.6909C494.709 52.5537 495.071 52.4131 495.58 52.5035C495.928 52.47 496.172 52.3495 496.451 52.2558C496.918 52.1018 496.96 52.0784 496.625 51.9143C496.249 51.7302 496.542 51.4892 496.333 51.3085C496.11 51.1143 495.803 50.9437 495.531 50.7629C495.461 50.716 495.399 50.6725 495.329 50.6257C495.489 50.5587 495.636 50.475 495.824 50.4282C496.068 50.3679 496.193 50.2943 496.179 50.0868C496.228 50.0566 496.207 50.1336 496.151 50.1537C496.089 50.1738 495.935 50.1571 495.859 50.1336C495.663 50.07 495.566 49.9863 495.615 49.916C495.643 49.8792 495.775 49.8324 495.859 49.8324C496.012 49.8324 496.144 49.906 496.186 50.0868C496.967 50.224 497.775 50.2909 498.584 50.3445C498.668 50.3512 498.772 50.2842 498.87 50.2508C499.19 50.137 499.19 50.1403 500.131 50.1068C500.229 50.1035 500.361 50.0566 500.41 50.0098C500.612 49.8056 500.605 49.5813 500.703 49.3637C500.522 49.2232 500.34 49.0859 500.152 48.9487C499.776 48.6709 499.288 48.4265 498.995 48.1219C499.058 47.9579 499.142 47.7939 498.835 47.66C497.964 47.4926 497.97 47.4926 497.734 47.332C497.057 46.8767 496.388 46.4181 495.684 45.9696C495.496 45.8525 495.496 45.7889 495.831 45.7387C495.935 45.7253 496.047 45.7219 496.158 45.7286C496.507 45.7521 496.855 45.8123 497.197 45.7989C497.539 45.7889 497.789 45.6416 498.068 45.5512C498.354 45.4575 498.64 45.3604 498.926 45.2633C499.253 45.2734 499.581 45.3671 499.908 45.2165C500.159 45.0993 500.473 45.0156 500.759 44.9186C500.542 44.6642 500.138 44.47 499.825 44.2458C499.539 44.0416 499.532 44.0449 498.765 43.8876C498.403 43.814 498.277 43.4357 498.584 43.3253C498.953 43.1914 499.344 43.0675 499.72 42.9403C500.048 42.9504 500.382 43.0408 500.696 42.8902C500.94 42.7763 501.219 42.6993 501.623 42.7429C502.306 42.8165 503.003 42.8533 503.693 42.9136C503.93 42.9336 504.188 42.9203 504.292 42.8065C504.362 42.7261 504.16 42.6157 503.93 42.5922C503.581 42.5588 503.268 42.5186 503.094 42.3512C502.926 42.1839 502.62 42.1336 502.257 42.1102C502.16 42.1035 502.048 42.0633 501.999 42.0232C501.748 41.829 501.469 41.6617 500.933 41.6684C500.71 41.6014 500.591 41.5177 500.661 41.4374C500.703 41.3939 500.849 41.337 500.933 41.3437C501.511 41.3772 502.09 41.4107 502.654 41.4709C502.919 41.4977 503.121 41.5044 503.289 41.4039C503.407 41.337 503.345 41.2466 503.121 41.1496C502.926 41.0659 502.87 40.9688 502.884 40.855C502.919 40.5906 503.128 40.5136 503.798 40.5303C504.278 40.5437 504.397 40.5002 504.502 40.2726C504.529 40.219 504.599 40.1454 504.55 40.1086C504.25 39.8809 504.055 39.5998 503.491 39.4927C503.268 39.4525 503.031 39.4525 502.891 39.3655C502.752 39.2784 502.626 39.178 502.48 39.0943C502.299 38.9939 502.174 38.9002 502.257 38.8366C502.397 38.7228 502.62 38.7128 502.877 38.7529C503.1 38.7864 503.337 38.7897 503.567 38.8098C503.979 38.8466 504.313 38.7596 504.362 38.6123C504.494 38.2241 504.634 37.8391 504.752 37.4509C504.766 37.404 504.732 37.3437 504.676 37.3036C504.481 37.163 504.271 37.0291 504.069 36.8918C503.832 36.7345 503.456 36.7647 503.135 36.7345C502.682 36.691 502.682 36.6943 502.076 36.373C501.839 36.2458 501.428 36.296 501.184 36.1822C501.107 36.1454 500.989 36.0852 501.01 36.0517C501.037 36.0082 501.177 35.9747 501.281 35.9546C501.379 35.9345 501.497 35.9245 501.602 35.9345C502.87 36.0316 504.132 36.1354 505.401 36.2291C505.617 36.2458 505.854 36.1722 505.93 36.0684C506.007 35.9714 505.986 35.8542 506 35.7437C505.798 35.6065 505.568 35.4793 505.394 35.332C505.261 35.2182 505.108 35.168 504.843 35.1613C504.495 35.1513 504.153 35.1111 503.763 35.081C503.038 34.5923 502.327 34.0802 501.546 33.5915C501.233 33.394 501.309 33.1931 501.246 32.9822C501.184 32.7881 500.717 32.8182 500.403 32.7613C500.152 32.7145 500.069 32.6073 500.166 32.5337C500.222 32.4902 500.347 32.44 500.445 32.44C500.675 32.44 500.905 32.4701 501.135 32.4868C501.365 32.5036 501.63 32.4936 501.818 32.5505C501.999 32.604 502.118 32.7178 502.236 32.8149C502.369 32.922 502.543 32.9588 502.808 32.9655C503.149 32.9722 503.491 33.0023 503.832 33.0257C504.209 32.8952 504.599 32.768 504.961 32.6308C505.031 32.604 505.045 32.527 505.038 32.4768C505.024 32.3463 505.129 32.2659 505.359 32.2023C505.554 32.1488 505.714 32.0718 505.896 32.0049C505.756 31.9145 505.603 31.8274 505.491 31.7304C505.247 31.5262 504.941 31.3789 504.411 31.3856C504.202 31.2551 504.034 31.0944 503.763 31.004C503.505 30.917 503.066 31.004 502.87 30.8065C502.773 30.7094 502.626 30.599 502.438 30.5588C502.139 30.4952 501.748 30.5287 501.574 30.3413C501.469 30.2342 501.316 30.1371 501.114 30.1103C500.884 30.0802 500.647 30.0735 500.48 30.0099C500.389 29.9764 500.292 29.9229 500.292 29.876C500.292 29.8459 500.431 29.799 500.528 29.7789C500.619 29.7555 500.738 29.7388 500.842 29.7455C501.191 29.7655 501.532 29.8024 501.881 29.8224C501.978 29.8291 502.09 29.8057 502.194 29.7856C502.501 29.7321 502.48 29.6651 502.236 29.5446C501.992 29.4275 501.818 29.2768 501.616 29.1396C501.393 29.1162 501.114 29.1262 500.961 29.0626C500.703 28.9588 500.522 28.8082 500.313 28.6777C500.083 28.6576 499.846 28.6509 499.63 28.6141C499.539 28.6007 499.497 28.527 499.42 28.4835C499.281 28.3999 499.162 28.2794 498.974 28.2392C498.668 28.1789 498.291 28.2024 498.11 28.0183C498.005 27.9111 497.845 27.7974 497.65 27.7907C497.106 27.7773 496.876 27.5931 496.597 27.4191C496.388 27.2885 495.942 27.3555 495.712 27.225C495.559 27.1413 495.447 27.0375 495.294 26.9572C495.231 26.9237 495.099 26.907 494.994 26.8969C494.423 26.8467 493.844 26.8099 493.273 26.7563C493.182 26.7463 493.098 26.6961 493.029 26.6559C492.882 26.5689 492.792 26.4484 492.611 26.3915C492.429 26.3346 492.172 26.3346 491.949 26.3179C491.231 26.2677 491.175 26.281 490.847 25.9965C490.582 25.7655 489.934 25.9296 489.718 25.6752C489.593 25.5279 489.363 25.4074 488.951 25.3907C488.373 25.3672 487.801 25.3036 487.223 25.2601C486.707 25.22 486.714 25.2199 486.156 24.9086C485.906 24.7681 485.536 24.7882 485.208 24.7614C484.86 24.7346 484.539 24.6945 484.372 24.5271C484.205 24.3631 483.898 24.3095 483.543 24.2861C483.215 24.2626 482.846 24.2794 482.588 24.1455C481.96 23.8242 481.967 23.8208 481.528 23.7873C480.838 23.7338 480.148 23.6802 479.458 23.6233C478.998 23.5865 478.517 23.5798 478.085 23.5062C477.771 23.4526 477.632 23.2652 477.43 23.1346C476.858 23.0844 476.287 23.0342 475.715 22.9873C474.914 22.9204 474.105 22.8601 473.297 22.7965C472.948 22.6693 472.899 22.3882 472.314 22.3748C471.965 22.3681 471.624 22.3246 471.275 22.2978C470.697 22.2509 470.125 22.1907 469.547 22.1673C469.108 22.1505 469.031 21.9698 468.801 21.8559C468.725 21.8158 468.655 21.7589 468.564 21.7489C467.658 21.6551 466.724 21.635 465.839 21.4978C465.748 21.4844 465.665 21.4141 465.644 21.3639C465.63 21.3371 465.748 21.2869 465.825 21.2635C465.916 21.2367 466.034 21.21 466.132 21.2166C469.01 21.4409 471.889 21.6685 474.767 21.8928C475.172 21.9263 475.172 21.9229 476.154 22.2911C476.238 22.3212 476.336 22.3547 476.44 22.3647C476.9 22.4049 477.367 22.4284 477.82 22.4786C478.19 22.5187 478.496 22.4785 478.761 22.358C478.949 22.271 479.145 22.2442 479.382 22.2509C479.647 22.261 479.821 22.2978 479.974 22.3882C480.176 22.512 480.281 22.6727 480.706 22.7062C482.664 22.8501 484.623 23.0108 486.575 23.1647C486.847 23.1179 486.979 23.0476 486.909 22.9639C486.867 22.9137 486.784 22.8468 486.7 22.8401C485.899 22.7698 485.09 22.7095 484.289 22.6426C484.177 22.6325 484.024 22.6392 483.961 22.6057C483.654 22.4551 483.543 22.2108 482.964 22.194C482.63 22.184 482.288 22.1338 481.967 22.0869C481.877 22.0735 481.793 22.0032 481.772 21.953C481.765 21.9263 481.877 21.876 481.961 21.8526C482.267 21.7555 482.623 21.8727 482.929 21.8058C483.034 21.7823 483.18 21.7489 483.201 21.7087C483.215 21.6719 483.097 21.6116 483.013 21.5748C482.936 21.5413 482.832 21.5112 482.727 21.5012C481.807 21.4242 480.887 21.3438 479.967 21.2836C479.591 21.2601 479.326 21.1765 479.159 21.0225C479.033 20.9087 478.88 20.8484 478.643 20.8317C477.033 20.7079 475.423 20.5706 473.806 20.4568C473.401 20.43 473.192 20.3196 473.025 20.1757C472.892 20.0618 472.739 20.0217 472.481 20.0016C470.174 19.8275 467.881 19.6334 465.574 19.466C465.149 19.4359 465.023 19.292 464.807 19.1681C464.731 19.1246 464.682 19.0711 464.584 19.0443C464.487 19.0175 464.361 19.0208 464.243 19.0141C462.403 18.8702 460.563 18.7162 458.716 18.5824C458.283 18.5522 458.2 18.3848 457.977 18.2677C457.9 18.2309 457.83 18.1706 457.74 18.1606C456.36 18.0468 454.98 17.9397 453.6 17.8292C452.68 17.7556 451.76 17.6819 450.84 17.6116C450.387 17.5782 450.386 17.5748 449.773 17.2568C449.703 17.22 449.606 17.1765 449.515 17.1664C446.867 16.9522 444.225 16.7481 441.576 16.5372C441.353 16.5205 441.193 16.4434 441.082 16.3296C440.97 16.2158 440.81 16.1388 440.594 16.1221C438.523 15.9547 436.453 15.7907 434.376 15.6334C434 15.6066 433.735 15.5263 433.568 15.3757C433.442 15.2619 433.289 15.2016 433.052 15.1849C430.982 15.0242 428.912 14.8535 426.835 14.6995C426.437 14.6694 426.242 14.5556 426.047 14.4217C425.978 14.3748 425.922 14.2978 425.838 14.2911C424.807 14.1974 423.782 14.1004 422.743 14.0368C422.311 14.01 422.165 13.8694 421.991 13.7355C421.851 13.6284 421.691 13.5916 421.426 13.5782C420.848 13.5481 420.276 13.4912 419.711 13.4343C419.628 13.4242 419.523 13.3506 419.516 13.3037C419.502 13.2167 419.663 13.1564 419.928 13.1263C422.688 13.3439 425.455 13.5614 428.215 13.779C428.668 13.8158 428.668 13.8158 429.281 14.1338C429.351 14.1707 429.449 14.2142 429.546 14.2242C432.195 14.4351 434.836 14.6426 437.485 14.8535C437.708 14.8702 437.868 14.9472 437.98 15.061C438.091 15.1748 438.252 15.2518 438.468 15.2686C440.998 15.4694 443.528 15.6736 446.065 15.8644C446.441 15.8912 446.706 15.9681 446.874 16.1221C446.999 16.2359 447.152 16.2962 447.389 16.3129C449.808 16.5004 452.22 16.6978 454.645 16.8786C454.889 16.8953 455.07 16.7982 455.056 16.7079C455.049 16.661 454.945 16.584 454.861 16.5774C453.6 16.4669 452.345 16.3531 451.076 16.2694C450.651 16.2426 450.526 16.0953 450.31 15.9715C450.24 15.928 450.184 15.8711 450.094 15.8476C449.996 15.8209 449.871 15.8242 449.752 15.8175C446.762 15.5799 443.772 15.3389 440.775 15.1146C440.343 15.0811 440.259 14.9171 440.036 14.7999C439.959 14.7598 439.89 14.6995 439.799 14.6928C438.879 14.6125 437.959 14.5422 437.039 14.4719C435.429 14.3447 433.819 14.2175 432.202 14.0903C431.735 14.0535 431.735 14.0535 431.135 13.7388C431.066 13.702 430.968 13.6552 430.877 13.6485C426.619 13.3104 422.36 12.9723 418.101 12.6376C417.878 12.6209 417.718 12.5439 417.607 12.4301C417.495 12.3196 417.335 12.2393 417.119 12.2192C411.361 11.764 405.611 11.3087 399.854 10.8602C399.478 10.8301 399.213 10.7598 399.046 10.6025C398.927 10.4887 398.767 10.4284 398.53 10.4083C392.201 9.90959 385.872 9.41086 379.537 8.90877C375.278 8.57404 371.019 8.23262 366.76 7.90459C366.37 7.87447 366.161 7.77068 365.966 7.63345C365.903 7.58658 365.84 7.50959 365.757 7.5029C364.844 7.41922 363.931 7.34224 363.018 7.26526C362.732 7.35563 362.446 7.44268 362.16 7.53305C361.944 7.40586 361.735 7.27531 361.519 7.14811C360.139 7.05104 358.78 6.90041 357.386 6.85355C357.295 6.8502 357.198 6.91381 357.1 6.94728C356.452 7.15816 356.082 7.14142 355.671 6.86025C355.525 6.75983 355.399 6.66946 355.176 6.65272C354.486 6.59247 353.789 6.5523 353.106 6.48201C352.737 6.44519 352.43 6.47865 352.165 6.59915C351.977 6.68618 351.782 6.72302 351.552 6.70294C350.283 6.60252 349.022 6.50544 347.753 6.39833C347.663 6.39163 347.579 6.33471 347.509 6.29454C347.363 6.20751 347.238 6.11381 347.098 6.02344C346.91 6.08034 346.701 6.12386 346.547 6.1975C346.352 6.28453 346.171 6.28451 345.906 6.26108C340.846 5.85606 335.779 5.46109 330.719 5.05272C330.287 5.01925 330.098 5.15985 329.806 5.23349C329.708 5.26026 329.61 5.29372 329.506 5.30042C329.394 5.30711 329.276 5.28704 329.164 5.277C325.366 4.97575 321.567 4.67782 317.768 4.37657C317.267 4.3364 317.266 4.3364 316.521 4.54393C316.43 4.57071 316.312 4.60084 316.214 4.5908C314.486 4.46026 312.757 4.31968 311.035 4.18579C310.812 4.16906 310.624 4.2226 310.422 4.29959C310.025 4.45022 309.997 4.45023 309.704 4.22931C309.565 4.12554 309.418 4.06192 309.188 4.03179C308.938 3.99832 308.735 4.0084 308.54 4.06865C308.261 4.15233 308.059 4.29289 307.634 4.25607C305.794 4.09875 303.947 3.96822 302.114 3.80755C301.696 3.77073 301.472 3.88453 301.194 3.96821C301.096 3.99834 301.006 4.0452 300.901 4.05524C300.796 4.06529 300.671 4.04183 300.559 4.03179C298.259 3.85104 295.952 3.67367 293.659 3.47953C293.227 3.44271 293.039 3.58661 292.746 3.66025C292.649 3.68703 292.537 3.73391 292.446 3.72722C291.066 3.62346 289.679 3.51296 288.299 3.4025C287.804 3.36234 287.804 3.36569 287.052 3.56987C286.961 3.59665 286.842 3.62343 286.745 3.61673C285.135 3.49289 283.518 3.36569 281.908 3.23849C281.413 3.19833 281.413 3.19833 279.984 3.37239C279.88 3.38578 279.768 3.40589 279.663 3.3992C277.823 3.25526 275.976 3.11466 274.136 2.96068C273.767 2.93056 273.46 2.95733 273.195 3.07783C273.007 3.16486 272.812 3.2017 272.582 3.18162C270.512 3.0176 268.435 2.86028 266.372 2.68623C265.974 2.65275 265.717 2.72637 265.438 2.82344C265.347 2.85691 265.256 2.90378 265.152 2.91717C265.047 2.93056 264.929 2.91716 264.817 2.90712C262.747 2.7431 260.67 2.58913 258.607 2.41173C258.189 2.37491 257.966 2.48871 257.687 2.57239C257.589 2.60252 257.485 2.66277 257.401 2.65942C256.593 2.60252 255.784 2.55233 254.983 2.46865C254.551 2.42179 254.362 2.57573 254.07 2.64937C253.972 2.6728 253.861 2.72304 253.77 2.71634C252.041 2.5858 250.313 2.44857 248.591 2.30799C248.347 2.2879 248.166 2.318 247.971 2.40503C247.713 2.52218 247.413 2.56905 247.037 2.53223C246.235 2.45524 245.427 2.4017 244.618 2.3381C244.144 2.30128 244.144 2.30129 242.695 2.47535C242.59 2.48874 242.479 2.50881 242.374 2.50211C240.994 2.395 239.607 2.29124 238.234 2.17409C237.864 2.14061 237.558 2.17073 237.293 2.29123C237.105 2.37826 236.917 2.4151 236.68 2.39502C235.411 2.2946 234.149 2.19417 232.881 2.09376C232.421 2.05694 231.961 1.99332 231.501 1.99332C231.166 1.99667 230.922 2.15733 230.623 2.23767C230.539 2.2611 230.4 2.23435 230.288 2.22765C228.678 2.10046 227.061 1.98329 225.458 1.83936C225.04 1.80254 224.817 1.91634 224.538 2.00002C224.44 2.03015 224.336 2.0904 224.252 2.08705C223.674 2.05024 223.102 2.00002 222.523 1.95651C221.833 1.90295 221.136 1.86278 220.453 1.78914C219.896 1.72889 219.687 2.0201 219.241 2.03014C218.899 2.04018 218.551 1.98329 218.209 1.95651C217.519 1.90295 216.829 1.84271 216.139 1.79584C215.895 1.77911 215.707 1.72553 215.63 1.60503C215.616 1.5816 215.735 1.53141 215.811 1.50128C216.738 1.15986 216.738 1.15985 217.672 1.23349C218.251 1.28035 218.822 1.32722 219.401 1.36739C219.499 1.37408 219.61 1.3473 219.708 1.32722C219.986 1.27032 219.959 1.20338 219.722 1.08288C219.485 0.962376 219.303 0.815109 219.101 0.677872C218.816 0.764901 218.537 0.851898 218.251 0.938927C218.021 0.922191 217.791 0.902137 217.561 0.8854C216.411 0.798372 215.261 0.707989 214.111 0.627655C214.027 0.62096 213.923 0.687915 213.825 0.721388C213.546 0.818458 213.295 0.902117 212.891 0.865297C211.859 0.768227 210.821 0.697934 209.789 0.614253C209.336 0.577433 209.336 0.577436 208.542 0.784966C208.451 0.808397 208.333 0.835177 208.235 0.828482C207.196 0.751495 206.165 0.667824 205.126 0.587489C204.903 0.570753 204.687 0.614266 204.527 0.711336C204.464 0.751503 204.478 0.818436 204.213 1.36739C203.391 1.81257 202.826 1.76573 202.255 1.72557C202.011 1.70883 201.795 1.69208 201.634 1.62513C201.551 1.58831 201.446 1.53475 201.446 1.49123C201.446 1.45776 201.599 1.40419 201.697 1.3975C202.387 1.33055 203.042 1.47116 203.718 1.50128C204.032 1.51467 204.304 1.39752 204.36 1.20672C204.374 1.15317 204.395 1.09627 204.415 1.04271C204.436 0.989156 204.45 0.932255 204.471 0.878699C204.743 0.861963 204.903 0.922204 205.022 1.03601C205.119 1.12973 205.259 1.23685 205.447 1.28706C205.635 1.34061 205.893 1.33059 206.123 1.34732C206.346 1.36406 206.59 1.40757 206.799 1.38414C207.008 1.35736 207.176 1.26027 207.371 1.20002C207.461 1.1699 207.573 1.1264 207.663 1.13309C208.465 1.19 209.259 1.24688 210.054 1.32052C210.472 1.36069 210.681 1.22012 210.946 1.13309C211.155 1.06615 211.365 1.08286 211.399 1.23684C211.49 1.60504 211.169 1.759 210.458 1.68871C209.873 1.62846 209.343 1.61845 208.883 1.84606C208.82 1.87619 208.674 1.88957 208.584 1.88288C208.012 1.84271 207.447 1.7925 206.876 1.75233C206.771 1.74563 206.66 1.759 206.562 1.77239C205.14 1.95314 205.14 1.95651 204.659 1.91634C204.429 1.89626 204.206 1.87952 204.227 1.37074C203.788 0.825133 203.091 0.78832 202.415 0.707986C201.976 0.657777 201.788 0.805063 201.502 0.88205C201.404 0.908828 201.3 0.962374 201.209 0.95568C199.711 0.84522 198.219 0.72805 196.728 0.604201C196.477 0.584118 196.295 0.604204 196.1 0.691233C195.849 0.801693 195.571 0.872 195.173 0.831833C194.379 0.751499 193.57 0.701301 192.762 0.634356C192.35 0.600883 192.35 0.600849 191.521 0.808379C191.43 0.83181 191.312 0.85859 191.214 0.851895C190.406 0.794992 189.604 0.72472 188.803 0.66447C188.58 0.647733 188.378 0.69459 188.203 0.784966C188.029 0.875342 187.82 0.922199 187.604 0.905463C186.795 0.845212 185.994 0.778288 185.192 0.718037C185.095 0.711343 184.976 0.734772 184.886 0.758203C184.035 0.965733 184.035 0.965699 183.645 0.932226C183.073 0.882017 182.488 0.858612 181.923 0.791667C181.373 0.724722 181.087 0.918847 180.711 1.02596C179.679 0.948972 178.64 0.885391 177.616 0.791667C177.198 0.7515 176.975 0.86195 176.696 0.948979C176.598 0.979104 176.501 1.04271 176.41 1.03936C176.062 1.02597 175.72 0.989159 175.378 0.962381C175.037 0.935603 174.688 0.908828 174.347 0.88205C173.957 0.97912 173.699 1.20673 173.141 1.12974C172.806 1.08288 172.451 1.07284 172.109 1.04606C171.768 1.01928 171.419 0.992509 171.078 0.965731C170.848 0.948995 170.611 0.938938 170.388 0.908813C169.977 0.858604 169.775 1.02264 169.482 1.09628C169.384 1.11971 169.273 1.15985 169.182 1.15316C168.492 1.10629 167.795 1.06613 167.119 0.989144C166.596 0.928893 166.241 1.02932 165.871 1.16991C165.795 1.20003 165.662 1.21677 165.565 1.21007C164.756 1.15317 163.955 1.08286 163.153 1.02261C162.937 1.00587 162.728 1.05943 162.554 1.14646C162.372 1.23683 162.17 1.28038 161.947 1.26364C161.146 1.20339 160.337 1.13643 159.536 1.07618C159.438 1.06948 159.32 1.09626 159.229 1.12304C158.448 1.33057 158.448 1.33392 157.988 1.29376C157.877 1.28371 157.758 1.27699 157.647 1.26695C157.075 1.22009 156.483 1.20338 155.925 1.12304C155.284 1.03267 154.817 1.14648 154.364 1.33727C153.792 1.29711 153.207 1.27367 152.649 1.20672C152.231 1.15652 152.008 1.2837 151.729 1.36739C151.632 1.39751 151.527 1.45776 151.444 1.45107C150.635 1.39416 149.827 1.34397 149.032 1.26029C148.6 1.21343 148.412 1.36403 148.119 1.44102C148.021 1.46779 147.917 1.51468 147.826 1.50799C147.366 1.48121 146.906 1.44102 146.446 1.4042C145.909 1.36069 145.909 1.36403 145.198 1.56821C144.864 1.66528 144.529 1.58829 144.202 1.56486C143.853 1.53808 143.526 1.51801 143.247 1.65525C143.073 1.74227 142.863 1.79583 142.647 1.78244C142.187 1.75232 141.72 1.72221 141.267 1.672C140.905 1.63183 140.591 1.65859 140.326 1.78244C140.138 1.86947 139.943 1.91301 139.713 1.89293C138.681 1.81259 137.643 1.72888 136.611 1.65189C136.521 1.6452 136.395 1.67534 136.312 1.70546C136.117 1.76571 135.928 1.83264 135.74 1.89959C135.287 1.86946 134.82 1.85611 134.374 1.80925C133.9 1.76239 133.468 1.74564 133.098 1.92974C133.022 1.96991 132.91 2.02678 132.82 2.02344C132.471 2.01005 132.13 1.97658 131.788 1.94981C131.447 1.92303 131.098 1.89625 130.757 1.86947C130.359 1.95316 130.108 2.19416 129.551 2.11717C129.216 2.07031 128.861 2.06027 128.519 2.03349C128.178 2.00671 127.829 1.97659 127.488 1.95316C127.376 1.94646 127.251 1.92972 127.153 1.9431C127.048 1.95649 126.958 2.00337 126.867 2.03684C126.589 2.13391 126.331 2.23099 125.933 2.17409C125.599 2.12723 125.243 2.11718 124.902 2.08705C124.435 2.05024 124.435 2.05024 123.661 2.26112C123.347 2.34815 122.992 2.23435 122.692 2.30799C122.49 2.35819 122.316 2.44186 122.121 2.49876C122.037 2.52219 121.905 2.53222 121.807 2.52552C121.347 2.4954 120.88 2.46529 120.427 2.41508C120.058 2.37491 119.751 2.41507 119.493 2.53558C119.305 2.6226 119.117 2.65944 118.88 2.63936C117.73 2.54564 116.58 2.46528 115.436 2.36151C115.046 2.32469 114.733 2.38161 114.517 2.50211C114.147 2.70964 113.624 2.4653 113.241 2.63266C113.004 2.73642 112.767 2.85693 112.335 2.80672C111.54 2.7197 110.732 2.67281 109.93 2.61256C109.644 2.70293 109.359 2.79333 109.066 2.8837C108.606 2.84688 108.146 2.81004 107.686 2.77657C107.344 2.74979 106.996 2.71967 106.654 2.69624C106.543 2.68954 106.424 2.67615 106.32 2.69289C106.215 2.70962 106.132 2.75315 106.034 2.78662C105.553 2.95064 105.553 2.954 104.759 2.88705C104.417 2.85693 104.089 2.83685 103.804 2.97074C103.539 3.09458 103.225 3.118 102.863 3.08118C102.18 3.01424 101.489 2.96403 100.792 2.91717C100.576 2.90043 100.374 2.95734 100.193 3.04437C99.9213 3.1816 99.5867 3.16822 99.2452 3.1314C98.7921 3.08454 98.3461 3.03768 97.9628 3.22513C97.8861 3.2653 97.7675 3.32217 97.6839 3.31882C97.1123 3.29205 96.5339 3.27198 95.9763 3.20838C95.4187 3.14478 95.1468 3.3523 94.7635 3.45272C94.192 3.40921 93.6135 3.36569 93.0419 3.32217C92.9304 3.31213 92.798 3.28202 92.7004 3.29876C92.2892 3.36905 92.0522 3.62009 91.4876 3.5431C91.16 3.49959 90.8046 3.48622 90.4631 3.47618C90.3725 3.47283 90.2539 3.5297 90.1911 3.57322C90.1563 3.59665 90.1912 3.66024 90.233 3.69371C90.3585 3.78744 90.5118 3.87449 90.6234 3.97156C90.6373 3.98495 90.5049 4.04518 90.4282 4.07196C90.24 4.13221 90.024 4.12219 89.773 4.09541C89.557 4.07198 89.3339 4.11884 89.1805 4.21926C89.1178 4.25942 89.1388 4.32636 89.2712 4.54728C89.2712 4.7113 89.1248 4.63764 89.076 4.53053C88.9994 4.37656 89.1457 4.32635 89.4245 4.41003C89.6197 4.47028 89.7172 4.55732 89.6684 4.62761C89.6405 4.66443 89.5082 4.7113 89.2712 4.54728C88.6579 4.34645 88.1977 4.30964 87.7377 4.27283C87.6192 4.26278 87.4798 4.22929 87.3962 4.24937C87.0965 4.32971 86.8177 4.42679 86.5249 4.51717C86.1904 4.49708 85.8768 4.44685 85.5492 4.5774C85.0892 4.7615 85.0682 4.74476 84.6221 4.70794C84.3921 4.68786 84.1621 4.67115 83.9321 4.65442C83.7021 4.63768 83.521 4.68788 83.3188 4.76486C82.9076 4.92218 82.8727 4.92217 82.6009 4.70794C82.4406 4.5774 82.3291 4.5339 82.127 4.59415C81.4579 4.79833 81.4509 4.81171 80.8793 4.75146C80.4054 4.70125 79.9592 4.68786 79.6107 4.87866C79.3738 5.01255 79.2971 4.98243 79.1089 4.84184C78.6071 4.4703 78.3771 4.47698 77.4362 4.74476C76.9971 4.87195 76.5439 4.73473 76.0978 4.718C75.7215 4.70461 75.4566 4.78493 75.4287 4.9958C75.4078 5.12635 75.3451 5.22009 75.0942 5.2636C74.9966 5.28034 74.8782 5.30376 74.7806 5.29707C74.2021 5.2569 73.6306 5.21003 73.052 5.16317C72.7593 5.13974 72.5989 4.98244 72.6547 4.77491C72.7174 4.55399 72.606 4.47363 72.1878 4.41003C71.9369 4.37321 71.7346 4.37994 71.5325 4.44019C71.3094 4.50713 71.3722 4.56738 71.5673 4.68788C72.0343 4.98244 71.9786 5.16316 71.3791 5.36734C71.17 5.43764 71.0029 5.50126 70.9541 5.60503C70.9262 5.65858 70.954 5.72887 70.8913 5.76904C70.5497 5.99331 70.0758 6.13725 69.5461 6.24437C69.0373 6.15399 68.6888 6.30459 68.2985 6.42509C67.9918 6.51881 67.6294 6.4385 67.3018 6.40503C66.9324 6.36821 66.6256 6.39497 66.3608 6.51882C66.1726 6.60585 65.9775 6.646 65.7475 6.62927C65.2875 6.59245 64.8205 6.56903 64.3675 6.51547C63.9771 6.46861 63.6843 6.53556 63.4404 6.64937C63.1337 6.7933 62.7921 6.69622 62.4715 6.7163C62.0393 6.73973 61.8233 7.03763 61.2587 6.95729C60.9241 6.91043 60.5757 6.8937 60.2272 6.88031C60.1365 6.87696 60.0251 6.93388 59.9484 6.97405C59.579 7.15814 59.1468 7.1481 58.6729 7.09454C58.3453 7.05772 58.0247 7.02426 57.7041 7.15146C57.1744 7.36568 56.5888 7.55314 56.0312 7.75063C55.9545 7.90461 56.0104 8.08532 55.6131 8.1757C55.404 8.22256 55.2088 8.29288 55.0485 8.36987C54.8533 8.46024 54.6722 8.48368 54.4213 8.46025C53.9682 8.41339 53.4941 8.40331 53.048 8.34306C52.6368 8.28951 52.379 8.4 52.1281 8.50377C51.926 8.58745 51.7377 8.62759 51.4937 8.56734C51.2428 8.51044 51.0617 8.54725 50.8595 8.63762C50.5738 8.76147 50.5528 8.7481 49.6049 8.78492C49.5073 8.78827 49.3889 8.83845 49.3331 8.88197C49.3053 8.9054 49.3679 8.97238 49.4167 9.00585C49.4794 9.04602 49.5771 9.09286 49.6677 9.1029C50.6992 9.18993 51.7377 9.26691 52.7693 9.35394C52.8738 9.36398 52.9853 9.38744 53.062 9.42091C53.1456 9.45773 53.2502 9.50791 53.2502 9.55477C53.2502 9.58824 53.1109 9.62842 53.0133 9.65185C52.7066 9.72884 52.3441 9.61169 52.0444 9.69872C51.8423 9.75562 51.6751 9.83594 51.473 9.88949C51.3893 9.91293 51.2568 9.90959 51.1522 9.9029C50.8037 9.87947 50.4622 9.846 50.1137 9.82592C50.0161 9.82257 49.9046 9.85606 49.814 9.88283C49.1449 10.0837 49.1449 10.0837 48.5664 10.0401C48.3364 10.0234 48.0924 9.9732 47.8764 9.99328C47.6673 10.0134 47.486 10.1037 47.2978 10.1606C46.9075 10.2811 46.5381 10.3983 46.5103 10.6594C46.4963 10.7598 46.2664 10.8468 46.0363 10.8535C45.8133 10.8602 45.5763 10.8234 45.3463 10.8033C44.8027 10.7632 44.8026 10.7632 44.0987 10.9673C43.9035 11.0242 43.6945 11.0309 43.4435 10.9975C43.346 10.9841 43.2273 10.9975 43.1228 11.0142C42.7812 11.0644 42.7813 11.128 43.0043 11.2485C43.318 11.4259 43.2902 11.4427 42.412 11.5933C42.0774 11.6502 41.8195 11.7573 41.5407 11.851C41.0877 12.0017 41.0945 12.0016 41.3942 12.1991C41.4639 12.2426 41.5267 12.2895 41.5964 12.3364C41.7985 12.4669 41.9589 12.6075 42.3771 12.6209C42.8371 12.6343 43.2971 12.6878 43.7571 12.7247C44.2032 12.7615 44.3217 12.8418 44.2799 13.0694C44.2311 13.3439 44.1404 13.374 43.3389 13.3707C43.1089 13.3707 42.9068 13.3974 42.7326 13.4878C42.8162 13.5949 42.9695 13.6786 43.1925 13.6987C43.7641 13.7489 44.3426 13.7924 44.9141 13.8359C45.3741 13.8727 45.8341 13.9096 46.2941 13.9464C46.5799 13.9698 46.7612 14.1439 46.6845 14.338C46.6427 14.4485 46.6079 14.5589 46.5731 14.6694C46.4964 14.8903 46.35 14.9472 45.883 14.9372C45.7645 14.9338 45.653 14.907 45.5415 14.9137C45.0885 14.9372 44.8724 15.215 44.3287 15.1581C43.8757 15.1112 43.4016 15.1012 42.9555 15.0409C42.5443 14.9874 42.3144 15.1079 42.0286 15.1983C41.931 15.2284 41.8264 15.292 41.7427 15.2886C41.1642 15.2518 40.5857 15.215 40.0212 15.1514C39.7563 15.1246 39.596 15.1447 39.3869 15.225C38.8851 15.4192 38.8711 15.4091 38.1253 15.3489C37.5817 15.302 37.5747 15.3087 36.8777 15.5129C36.6825 15.5698 36.4735 15.5698 36.2225 15.543C35.895 15.5095 35.5535 15.456 35.2119 15.5062C35.1074 15.5196 34.9749 15.5598 34.94 15.6033C34.9191 15.6334 35.0167 15.7071 35.1003 15.7305C35.7137 15.9045 36.4317 15.8744 37.1008 15.9447C37.3099 15.9648 37.519 15.9012 37.6933 15.8108C37.8745 15.7204 38.0696 15.6836 38.3066 15.7004C38.7666 15.7372 39.2336 15.7606 39.6866 15.8142C40.0769 15.861 40.3488 15.784 40.6207 15.6803C40.7113 15.6468 40.8157 15.5832 40.9064 15.5865C41.9379 15.6535 42.9764 15.7204 44.001 15.8142C44.4122 15.8543 44.6493 15.7472 44.9281 15.6569C45.0256 15.6267 45.1232 15.5631 45.2138 15.5665C45.5623 15.5799 45.9038 15.6167 46.2523 15.6435C47.5208 15.7439 48.7825 15.8443 50.0511 15.938C50.1347 15.9447 50.2392 15.8744 50.3368 15.8443C50.525 15.784 50.7202 15.7271 50.9153 15.6702C51.2638 15.697 51.6054 15.7305 51.9539 15.7505C52.2048 15.7639 52.4278 15.8108 52.4627 15.938C52.4836 16.0217 52.2535 16.0987 52.0095 16.092C51.7725 16.0853 51.5356 16.0451 51.3404 16.0886C50.3716 16.3028 50.3716 16.3062 49.7652 16.2627C49.2355 16.2225 49.2913 16.189 48.8243 16.3731C48.6222 16.4535 48.4409 16.5004 48.2109 16.4803C47.6394 16.4334 47.0609 16.3865 46.4824 16.3464C46.3917 16.3397 46.2733 16.3732 46.1827 16.3999C45.4996 16.6008 45.4996 16.6075 44.935 16.5572C44.1962 16.497 44.1683 16.4803 43.6734 16.6844C43.3319 16.825 43.0183 16.728 42.6907 16.7213C42.3143 16.8518 41.903 16.969 41.5615 17.1163C41.1572 17.2903 40.7322 17.2602 40.2722 17.2099C39.9306 17.1731 39.596 17.1597 39.3172 17.297C39.0523 17.4242 38.7318 17.4376 38.3694 17.4041C38.0418 17.374 37.7071 17.3104 37.3655 17.384C37.2749 17.4041 37.1357 17.4543 37.1426 17.4844C37.1496 17.5313 37.2402 17.5983 37.3308 17.6183C37.9721 17.7556 38.676 17.7522 39.3521 17.8158C39.4427 17.8259 39.5611 17.789 39.6517 17.7623C39.8469 17.702 40.0351 17.6317 40.2233 17.5681C40.5648 17.5882 40.9133 17.5949 41.2479 17.6351C41.5058 17.6652 41.701 17.6619 41.8892 17.5815C42.0635 17.5079 42.2516 17.4175 42.4607 17.3941C42.6698 17.3706 42.9137 17.4208 43.1437 17.4409C43.3737 17.461 43.6385 17.451 43.8198 17.5045C44.001 17.5581 44.1126 17.6752 44.2311 17.769C44.3635 17.8727 44.5448 17.9062 44.8096 17.9163C45.0536 17.9263 45.2487 17.9129 45.4299 17.8192C45.5065 17.779 45.6112 17.7489 45.7158 17.7221C45.8133 17.6987 45.9248 17.6618 46.0154 17.6685C47.0539 17.7455 48.0855 17.8292 49.124 17.9096C49.6398 17.9497 49.6328 17.9497 50.7062 17.7522C50.8038 17.7355 50.9222 17.712 51.0198 17.7187C51.5983 17.7589 52.1699 17.8058 52.7484 17.8526C53.3338 17.8995 53.3269 17.8928 54.3236 17.6819C54.5048 17.6418 54.7696 17.6953 54.9857 17.6886C55.4388 17.6719 55.6618 17.3907 56.1915 17.4443C56.6446 17.4911 57.1187 17.5012 57.5717 17.5614C57.9829 17.615 58.2198 17.4978 58.4986 17.4075C58.5962 17.3773 58.7009 17.3104 58.7845 17.3171C59.823 17.3907 60.8545 17.4744 62.2346 17.4844C62.5761 17.4844 62.4228 17.5547 62.1997 17.5782C61.8791 17.615 61.7745 17.5447 61.9487 17.4108C62.0742 17.3171 62.2555 17.2702 62.4019 17.2936C62.4785 17.307 62.5761 17.3706 62.2346 17.4844C61.8722 17.6116 61.893 17.6819 61.8303 17.7221C61.6769 17.8192 61.4608 17.8593 61.2378 17.8459C60.8893 17.8225 60.5477 17.789 60.1992 17.769C60.1017 17.7623 59.9832 17.7857 59.8926 17.8125C59.1259 18.02 59.1189 18.0334 58.3034 17.9531C58.0455 17.9296 57.8574 17.9296 57.6553 17.9932C57.3765 18.0803 57.1743 18.2275 56.7491 18.1807C56.1846 18.1171 55.6061 18.0803 55.0276 18.0435C54.937 18.0368 54.8394 18.097 54.7349 18.1238C54.4491 18.2041 54.24 18.3547 53.8148 18.2911C53.4872 18.2409 53.1318 18.2275 52.7833 18.2175C52.6926 18.2141 52.5533 18.2677 52.5115 18.3112C52.4279 18.3882 52.5323 18.4786 52.7693 18.5422C52.8669 18.569 52.9993 18.5623 53.1108 18.5723C53.5708 18.6091 54.0308 18.6493 54.4909 18.6794C54.7348 18.6961 54.9648 18.7464 54.9927 18.8702C55.0136 18.9539 54.7627 19.0275 54.5258 19.0208C54.1773 19.0108 53.8288 18.984 53.4942 18.9405C52.9018 18.8669 52.386 18.8869 51.905 19.0978C51.5635 19.2451 51.5844 19.1916 51.222 19.6267C51.1314 19.7372 50.8595 19.7472 50.6225 19.7405C50.0509 19.7238 49.7862 19.774 49.835 19.8777C49.8977 20.0049 50.0998 20.0451 50.3577 20.0618C50.8177 20.0886 51.2777 20.1321 51.7378 20.169C51.8493 20.179 51.9747 20.1991 52.0793 20.1924C52.1838 20.1857 52.2814 20.1455 52.372 20.1154C52.5671 20.0518 52.7344 19.9547 52.9435 19.9313C53.1526 19.9078 53.3966 19.9581 53.6266 19.9781C53.8566 19.9949 54.1005 20.0451 54.3096 20.0217C54.5187 19.9982 54.693 19.8978 54.8812 19.8376C54.9718 19.8075 55.0833 19.7606 55.1739 19.7639C55.6339 19.7907 56.0939 19.8342 56.554 19.8677C57.1185 19.9112 57.1186 19.9112 57.8016 19.7037C57.9968 19.6434 58.1989 19.6468 58.4568 19.6736C59.0143 19.7271 59.0213 19.7171 60.039 19.5229C60.1365 19.5028 60.2552 19.4794 60.3527 19.4895C61.3913 19.5664 62.4228 19.6501 63.4544 19.7304C64.3395 19.8007 64.3395 19.8008 64.8274 20.1355C65.1899 20.3832 65.1968 20.3832 64.8414 20.497C64.5556 20.5907 64.2977 20.7279 63.9841 20.7781C63.6913 20.825 63.3288 20.6744 63.0082 20.8284C62.8479 20.9053 62.6389 20.989 62.4368 21.0024C62.1161 21.0192 61.7745 20.9221 61.4678 21.0693C61.3145 21.143 61.0844 21.22 60.8893 21.2234C60.5477 21.23 60.1993 21.1765 59.8577 21.153C59.7532 21.1463 59.6347 21.1463 59.5371 21.1631C59.4326 21.1832 59.342 21.2233 59.2514 21.2568C58.9726 21.3706 58.6728 21.4242 58.3104 21.3673C57.718 21.2735 57.1882 21.3204 56.7282 21.5346C56.6655 21.5647 56.5122 21.5681 56.4146 21.5547C56.1637 21.5213 55.9476 21.5179 55.7595 21.5815C55.6828 21.6083 55.5713 21.6551 55.5852 21.6852C55.6061 21.7354 55.6898 21.8024 55.7804 21.8191C56.4356 21.9329 57.1395 21.9463 57.8156 22.0066C57.9062 22.0133 58.0176 21.9698 58.1083 21.9396C58.3034 21.8794 58.4707 21.779 58.6798 21.7556C58.8889 21.7321 59.1329 21.7756 59.3629 21.7924C59.5929 21.8091 59.8368 21.8593 60.0459 21.8392C60.255 21.8158 60.4502 21.7321 60.6175 21.6585C60.8127 21.5748 61.0008 21.5648 61.2587 21.5982C61.5933 21.6418 61.9417 21.6484 62.2833 21.6719C62.4715 21.6083 62.6597 21.538 62.8549 21.4777C62.9455 21.4476 63.0569 21.4108 63.1545 21.4141C63.6145 21.4409 64.0747 21.4811 64.5347 21.5179C64.9948 21.5547 64.9946 21.5547 65.7752 21.3472C65.8659 21.3238 65.9845 21.297 66.0821 21.3037C66.6606 21.3438 67.2321 21.394 67.8106 21.4342C68.0336 21.4509 68.2357 21.4041 68.4169 21.3137C68.5911 21.2233 68.8003 21.1731 69.0164 21.1898C69.9364 21.2601 70.8564 21.3271 71.7765 21.4108C72.1459 21.4442 72.4596 21.4141 72.7105 21.2936C73.0033 21.1564 73.3308 21.1899 73.6723 21.2166C74.446 21.2836 74.453 21.2802 74.9479 21.1095C75.0454 21.076 75.143 21.0124 75.2336 21.0158C76.0351 21.066 76.8436 21.1129 77.6382 21.1932C78.0564 21.2367 78.2795 21.1196 78.5583 21.0325C78.6558 21.0024 78.7603 20.9388 78.844 20.9455C79.4225 20.9823 80.0011 21.0158 80.5657 21.0828C81.1303 21.1497 81.3463 20.8384 81.7715 20.8418C82.35 20.8451 82.9215 20.9221 83.4931 20.969C83.9531 21.0058 84.4131 21.0426 84.8731 21.0794C85.3331 21.1162 85.7931 21.1463 86.2532 21.1898C86.4971 21.2133 86.6783 21.1831 86.8804 21.0995C87.1383 20.989 87.4449 20.902 87.7237 20.8016C88.1489 20.6577 88.149 20.6576 88.6648 20.6978C88.7763 20.7078 88.8948 20.7145 89.0063 20.7246C89.8496 20.7982 89.8496 20.7915 90.923 20.5807C90.9718 20.5706 91.0973 20.6075 91.1461 20.6342C91.2925 20.7213 91.4248 20.815 91.5572 20.9053C91.7454 20.8518 91.9755 20.8217 92.1009 20.7447C92.4564 20.5271 93.014 20.825 93.3765 20.6108C93.5089 20.5304 93.739 20.4601 93.9481 20.4401C94.1641 20.42 94.4081 20.4668 94.6311 20.4869C95.2096 20.5371 95.2096 20.5338 95.7045 20.8317C95.9554 20.979 96.3178 20.9522 96.6454 20.9857C96.9869 21.0225 97.3146 21.0426 97.6003 20.9053C97.8582 20.7815 98.1718 20.7514 98.5412 20.7915C98.9942 20.8417 99.4612 20.8719 99.9212 20.902C100.019 20.9087 100.137 20.892 100.235 20.8719C101.301 20.6744 101.301 20.671 101.817 20.7146C102.047 20.7346 102.284 20.7413 102.507 20.7714C102.884 20.825 103.169 20.7547 103.441 20.6476C103.532 20.6141 103.636 20.5506 103.727 20.5539C104.187 20.5706 104.64 20.6008 105.093 20.6309C105.442 20.6543 105.79 20.6677 106.125 20.7146C106.682 20.7915 106.954 20.5739 107.337 20.4735C107.909 20.517 108.487 20.5472 109.059 20.6074C109.324 20.6342 109.498 20.6242 109.7 20.5438C109.958 20.4434 110.195 20.3296 110.613 20.3798C111.171 20.4468 111.756 20.4702 112.328 20.5104C112.711 20.4066 112.99 20.1957 113.541 20.2727C113.875 20.3196 114.231 20.3296 114.572 20.3564C115.032 20.3932 115.492 20.4267 115.952 20.4669C116.447 20.507 116.44 20.497 117.2 20.2995C117.639 20.1823 118.092 20.3129 118.538 20.333C118.887 20.3497 119.061 20.5037 118.977 20.7012C118.894 20.8986 119.082 21.0526 119.402 21.0794C120.204 21.143 121.013 21.2099 121.814 21.2668C121.912 21.2735 122.03 21.2501 122.121 21.2267C122.978 21.0158 122.978 21.0192 123.361 21.0493C123.933 21.0995 124.518 21.1262 125.083 21.1898C125.473 21.2334 125.759 21.1631 126.01 21.0493C126.205 20.9623 126.386 20.9422 126.637 20.9623C129.397 21.1865 132.158 21.394 134.911 21.625C135.322 21.6585 135.559 21.5614 135.838 21.471C135.935 21.4409 136.026 21.3773 136.123 21.3773C136.354 21.3773 136.584 21.4074 136.814 21.4275C137.845 21.5079 138.877 21.6049 139.915 21.6652C140.354 21.6919 140.473 21.8459 140.661 21.9731C140.807 22.0702 140.974 22.1104 141.232 22.1237C141.483 22.1371 141.665 22.1204 141.86 22.0334C142.111 21.9196 142.396 21.8493 142.787 21.8961C143.24 21.9497 143.7 21.9731 144.167 22.0099C144.404 22.0267 144.585 22.0869 144.662 22.2074C144.676 22.2275 144.529 22.2777 144.446 22.3079C144.167 22.4083 143.902 22.5254 143.588 22.5957C143.268 22.666 142.919 22.5856 142.585 22.5656C142.466 22.5589 142.355 22.5388 142.243 22.5421C142.139 22.5455 142.013 22.5622 141.936 22.5924C141.574 22.743 141.191 22.8468 140.689 22.7564C140.257 22.7999 140.034 23.0777 139.483 23.0041C139.148 22.9606 138.8 22.9405 138.451 22.9237C138.361 22.9204 138.263 22.9806 138.166 23.0108C137.887 23.0945 137.664 23.2283 137.246 23.1714C136.799 23.1112 136.326 23.1012 135.872 23.0543C135.622 23.0275 135.44 23.0509 135.245 23.138C134.994 23.2484 134.709 23.3321 134.318 23.2785C133.984 23.2317 133.628 23.2216 133.287 23.1915C132.841 23.1547 132.841 23.158 132.046 23.3656C131.955 23.389 131.837 23.4158 131.739 23.4091C131.161 23.3689 130.589 23.3187 130.011 23.2785C129.788 23.2618 129.572 23.3053 129.418 23.4024C129.356 23.4425 129.377 23.5095 129.356 23.5664C130.506 23.6568 131.656 23.7338 132.799 23.8442C133.231 23.8878 133.426 23.7505 133.712 23.6735C133.809 23.6467 133.914 23.5898 134.005 23.5965C134.813 23.6534 135.615 23.7137 136.416 23.7873C136.667 23.8108 136.855 23.7974 137.043 23.7003C137.524 23.4425 138.11 23.5831 138.654 23.62C139.072 23.6467 139.204 23.7505 139.155 23.9714C139.093 24.2325 138.842 24.3129 138.201 24.266C137.971 24.2493 137.741 24.2258 137.511 24.2124C137.287 24.199 137.085 24.2425 136.904 24.3329C136.73 24.4233 136.521 24.4702 136.305 24.4568C135.845 24.4266 135.378 24.3965 134.932 24.3463C134.562 24.3062 134.256 24.3396 133.998 24.4635C133.712 24.6007 133.377 24.5706 133.043 24.5405C132.262 24.4735 132.255 24.4769 131.767 24.6442C131.67 24.6777 131.572 24.7413 131.481 24.738C130.68 24.6878 129.871 24.6442 129.084 24.5639C128.673 24.5237 128.435 24.6308 128.164 24.7179C128.066 24.748 127.969 24.8149 127.878 24.8083C127.299 24.7714 126.721 24.7346 126.156 24.671C125.892 24.6409 125.731 24.6609 125.515 24.7413C124.999 24.9388 124.985 24.9321 124.254 24.8685C124.031 24.8484 123.787 24.8116 123.578 24.8384C123.368 24.8651 123.201 24.9622 123.006 25.0225C122.915 25.0493 122.804 25.0861 122.706 25.0794C122.246 25.0526 121.786 25.0124 121.326 24.9756C120.894 24.9388 120.894 24.9421 120.086 25.1497C119.758 25.2367 119.416 25.1631 119.089 25.1363C118.733 25.1062 118.413 25.1062 118.141 25.2367C117.869 25.3673 117.541 25.3605 117.193 25.3338C116.865 25.307 116.531 25.2334 116.196 25.3237C115.43 25.5313 115.43 25.5346 114.956 25.4944C114.266 25.4375 113.582 25.384 112.885 25.3338C112.795 25.3271 112.676 25.3672 112.586 25.394C112.391 25.4543 112.223 25.5547 112.014 25.5781C111.805 25.6049 111.561 25.5647 111.338 25.5446C110.62 25.481 110.571 25.4576 110.091 25.6785C109.686 25.8593 109.184 25.5982 108.808 25.8057C108.592 25.9229 108.299 26.0166 107.895 25.9597C107.56 25.9128 107.212 25.8994 106.863 25.8727C106.313 25.8291 106.313 25.8325 105.616 26.0334C105.525 26.0601 105.407 26.0936 105.316 26.0869C104.856 26.0601 104.389 26.0367 103.943 25.9764C103.42 25.9061 103.086 26.0334 102.695 26.1572C102.389 26.2543 102.026 26.1739 101.699 26.1405C101.343 26.107 101.023 26.117 100.758 26.2475C100.479 26.3814 100.151 26.3647 99.8028 26.3379C99.4752 26.3145 99.1407 26.2375 98.8061 26.3312C98.0882 26.5388 98.0882 26.5388 97.5655 26.4986C97.1054 26.4618 96.6454 26.4216 96.1854 26.3948C96.0948 26.3882 95.9833 26.4317 95.8927 26.4618C95.6976 26.522 95.5302 26.6225 95.3211 26.6459C95.112 26.6693 94.8681 26.6258 94.6381 26.6091C94.4081 26.5923 94.1641 26.5421 93.955 26.5622C93.7459 26.5823 93.5507 26.666 93.3835 26.7396C93.1883 26.8267 93.0071 26.8367 92.7423 26.8032C92.4077 26.7597 92.0592 26.7497 91.7177 26.7262C91.5295 26.7898 91.3343 26.8534 91.1531 26.9237C90.9649 26.9973 90.7628 26.9906 90.5049 26.9672C89.6476 26.8869 89.6406 26.8969 88.9227 27.1045C88.5951 27.1982 88.2535 27.1212 87.9259 27.0978C87.5774 27.071 87.2499 27.0576 86.9781 27.1915C86.7132 27.3187 86.3856 27.3354 86.0371 27.2952C85.814 27.2685 85.577 27.2518 85.347 27.2417C85.2425 27.2384 85.1171 27.2518 85.0404 27.2785C84.671 27.4191 84.3085 27.5463 83.7997 27.4559C83.3536 27.4827 83.1306 27.7572 82.5939 27.7036C82.1409 27.6568 81.6669 27.6467 81.2209 27.5865C80.8096 27.5329 80.5168 27.6266 80.3077 27.7438C79.9314 27.9513 79.4016 27.6702 79.0252 27.8744C78.8091 27.9915 78.5305 28.0852 78.1123 28.035C77.6522 27.9815 77.5058 28.0517 77.3734 28.2626C77.2967 28.3831 77.3106 28.4802 77.45 28.5739C77.5894 28.671 77.7427 28.6543 77.9658 28.5438C78.2236 28.42 78.5304 28.3965 78.8998 28.4233C79.2622 28.45 79.4853 28.276 79.785 28.2091C80.0847 28.1388 80.4401 28.2559 80.7537 28.1656C81.4926 27.9547 81.4926 27.9547 81.9944 27.9948C82.336 28.0216 82.6914 28.035 83.026 28.0819C83.4233 28.1388 83.6812 28.035 83.953 27.9413C84.0506 27.9078 84.1483 27.8442 84.2319 27.8475C85.0335 27.8978 85.842 27.9446 86.6366 28.0283C87.0547 28.0718 87.2777 27.9513 87.5565 27.8677C87.654 27.8375 87.7587 27.7773 87.8423 27.784C88.5324 27.8308 89.2154 27.8911 89.9054 27.948C90.0379 28.0384 90.1843 28.1254 90.3097 28.2224C90.4422 28.3229 90.6233 28.3664 90.8881 28.363C91.3273 28.363 91.7595 28.5036 92.1986 28.3262C92.6516 28.1455 92.6864 28.1555 93.1255 28.199C93.6831 28.2559 94.2756 28.2425 94.7984 28.3731C94.889 28.3965 94.9866 28.4601 94.9866 28.5069C94.9936 28.5371 94.8471 28.5806 94.7565 28.6074C94.4498 28.6877 94.0944 28.5706 93.7878 28.6542C93.5856 28.7078 93.4183 28.7881 93.2162 28.845C93.1325 28.8685 93.0071 28.8651 92.8956 28.8618C92.7771 28.8584 92.6656 28.835 92.5541 28.8384C92.4495 28.8417 92.3379 28.8618 92.2542 28.8919C91.8709 29.0191 91.4667 29.1363 91.1252 29.2869C90.7906 29.4342 90.477 29.3337 90.1425 29.3271C88.8042 29.5614 88.8041 29.5647 87.905 29.4911C87.6819 29.4743 87.4519 29.4543 87.2219 29.4576C87.1243 29.4576 87.0338 29.5178 86.9362 29.5513C86.6574 29.6517 86.3925 29.7421 86.0022 29.6885C85.6676 29.6417 85.3122 29.6316 84.9706 29.6015C84.5106 29.5647 84.5106 29.5647 83.7299 29.7756C83.5348 29.8291 83.3257 29.8225 83.0748 29.7957C82.8587 29.7722 82.6358 29.8225 82.4825 29.9195C82.4197 29.9597 82.4406 30.0266 82.4197 30.0835C83.1097 30.1371 83.8067 30.1739 84.4758 30.2542C84.9079 30.3045 85.1031 30.1605 85.3889 30.0835C85.4865 30.0568 85.591 29.9999 85.6816 30.0066C86.3646 30.0568 87.0477 30.1136 87.7307 30.1806C87.8144 30.1873 87.9189 30.2643 87.9259 30.3111C87.9398 30.3982 87.7657 30.4818 87.5148 30.4785C87.1802 30.4751 86.8525 30.4182 86.5528 30.5555C86.3019 30.676 85.9884 30.7296 85.619 30.676C85.3959 30.6459 85.1588 30.6459 84.9357 30.6191C84.3433 30.5388 83.8068 30.5555 83.3607 30.7831C83.0192 30.8434 82.6845 30.7865 82.3569 30.7563C82.1129 30.7329 81.876 30.7095 81.7017 30.773C81.3323 30.9069 80.9699 31.0408 80.4611 30.9505C79.9104 31.0442 79.4922 31.2417 79.0322 31.4023C78.8161 31.4793 78.6489 31.5229 78.398 31.4727C78.2934 31.4526 78.168 31.4525 78.0564 31.4425C77.8264 31.4258 77.5825 31.3756 77.3734 31.3956C77.1643 31.4191 76.99 31.5161 76.8018 31.5764C76.7112 31.6065 76.6067 31.6567 76.5161 31.6534C76.1676 31.6366 75.8261 31.6032 75.4846 31.5764C75.143 31.553 74.8015 31.5296 74.46 31.5061C74.1742 31.5931 73.8815 31.6802 73.5957 31.7672C73.1357 31.7304 72.6755 31.6936 72.2225 31.6601C71.7137 31.6199 71.7138 31.6233 70.982 31.8308C70.6544 31.9245 70.3058 31.8643 69.9921 31.8207C69.4694 31.7504 69.1209 31.8777 68.7514 32.0116C68.6748 32.0383 68.5354 32.0551 68.4448 32.0417C68.0824 31.9948 67.7688 32.0316 67.504 32.1555C67.3158 32.2425 67.1275 32.2827 66.8975 32.266C66.0959 32.2024 65.2944 32.1354 64.4929 32.0785C64.3953 32.0718 64.2838 32.1019 64.1932 32.1287C63.4823 32.3329 63.4753 32.3429 62.9525 32.2894C62.4855 32.2425 62.0534 32.2224 61.6839 32.4065C61.6073 32.4467 61.4889 32.5036 61.4052 32.5002C60.8337 32.4668 60.255 32.43 59.6905 32.373C59.4326 32.3463 59.2514 32.3563 59.0493 32.4333C58.7914 32.5304 58.5613 32.6475 58.1362 32.604C56.9582 32.4802 56.9513 32.5002 55.5573 32.7312C55.4597 32.7479 55.3273 32.7212 55.2158 32.7078C54.9788 32.6743 54.8046 32.7212 54.5955 32.7982C54.1285 32.9722 54.1145 32.9622 53.6685 32.9254C53.3269 32.8952 52.9715 32.8885 52.6369 32.8383C52.1211 32.7647 51.7796 32.8952 51.3962 33.0191C51.0896 33.1162 50.7341 33.0358 50.4065 33.0057C50.0511 32.9722 49.7304 32.9822 49.4655 33.1094C49.2843 33.1965 49.0892 33.2434 48.8592 33.2266C48.0577 33.1664 47.256 33.0994 46.4544 33.0391C46.3569 33.0325 46.2384 33.0592 46.1478 33.0827C45.3532 33.2902 45.3532 33.3003 44.5656 33.2233C44.3147 33.1998 44.1056 33.1931 43.9174 33.2634C43.7362 33.3304 43.541 33.394 43.3528 33.4576C43.0113 33.4341 42.6628 33.4274 42.3283 33.3873C42.0704 33.3572 41.8892 33.3706 41.6871 33.4408C41.4222 33.5312 41.1991 33.6885 40.7809 33.6115C40.5649 33.5747 40.314 33.5848 40.0979 33.5513C39.84 33.5078 39.6657 33.5345 39.4635 33.6216C39.2126 33.7253 38.9548 33.8324 38.5506 33.7789C38.1045 33.7186 37.6306 33.7086 37.1775 33.6617C36.9266 33.635 36.7522 33.6617 36.5501 33.7488C36.2992 33.8592 36.0134 33.9295 35.6231 33.886C34.8285 33.8023 34.8217 33.819 34.048 34.0299C33.8528 34.0835 33.6436 34.0768 33.3927 34.05C33.1766 34.0266 32.9537 34.0768 32.8003 34.1739C32.654 34.281 32.6679 34.3479 32.654 34.4048ZM94.7635 4.21591C94.9935 4.23264 95.2236 4.25272 95.5582 3.96151C95.5791 3.9113 95.565 3.85107 95.6138 3.80755C95.7253 3.71718 95.8996 3.65358 96.1087 3.64354C96.485 3.63015 96.9382 3.74394 96.9312 3.83096C96.9243 3.9046 96.8058 3.96819 96.5758 4.02844C96.4782 4.05187 96.4014 4.09205 96.3108 4.11882C96.046 4.19581 95.8369 4.34646 95.4535 4.26947C95.4884 4.16571 95.5232 4.06194 95.4535 4.26947C95.4884 4.39667 95.3838 4.48705 95.1329 4.52387C95.0632 4.53391 94.9586 4.5272 94.9029 4.50712C94.6868 4.43348 94.652 4.33308 94.8123 4.06865C94.8402 4.11216 94.8193 4.18912 94.7565 4.20921C94.6938 4.22929 94.5405 4.21257 94.4638 4.18914C94.2687 4.12555 94.171 4.04186 94.2198 3.97156C94.2477 3.93474 94.3802 3.88788 94.4638 3.88788C94.6102 3.88788 94.7426 3.96152 94.7635 4.21591ZM38.4042 43.0341C38.913 43.0977 39.4984 43.0742 40.0072 43.2048C40.0978 43.2282 40.1884 43.2885 40.1954 43.3353C40.2024 43.3654 40.0629 43.409 39.9793 43.4324C39.7911 43.486 39.5821 43.4692 39.3381 43.4525C38.9687 43.429 38.7526 43.583 38.4669 43.66C38.3763 43.6834 38.2578 43.7002 38.1602 43.6935C37.5957 43.6533 37.0381 43.6098 36.4735 43.563C36.376 43.5529 36.2713 43.5295 36.1877 43.4993C35.9089 43.4023 35.9368 43.3387 36.2086 43.265C36.5083 43.1847 36.7453 43.0508 37.0519 42.9872C37.491 42.8968 37.9373 43.0173 38.4042 43.0341ZM77.9867 45.4776C78.3282 45.5044 78.6629 45.5311 79.0044 45.5579C79.116 45.5679 79.2344 45.5713 79.339 45.5847C79.5551 45.6081 79.7153 45.6784 79.8199 45.7888C79.6596 45.8759 79.4644 45.9261 79.2483 45.916C78.9068 45.896 78.5722 45.8525 78.2307 45.8424C77.8613 45.829 77.6452 45.9797 77.3595 46.0566C77.2688 46.0801 77.1574 46.0834 77.0528 46.0868C76.537 46.1001 76.2233 45.9261 76.3209 45.6818C76.3906 45.491 76.6554 45.3772 76.9761 45.4006C77.3106 45.424 77.6521 45.4508 77.9867 45.4776ZM36.0204 38.0868C35.9367 38.0299 35.8461 37.9898 35.8043 37.9395C35.6788 37.7688 35.7278 37.6416 35.9578 37.5077C36.2366 37.3437 36.578 37.4542 36.8916 37.4709C36.9683 37.4743 37.052 37.5445 37.0938 37.5881C37.1217 37.6182 37.1217 37.6818 37.0798 37.6985C36.7383 37.8324 36.3759 37.9563 36.0204 38.0868ZM96.4851 28.199C96.8196 28.2258 97.1611 28.2459 97.4957 28.2827C97.5793 28.2927 97.656 28.3563 97.7048 28.3999C97.7954 28.4802 97.6979 28.5906 97.4121 28.6007C97.0845 28.6141 96.743 28.5572 96.4015 28.5304C95.9694 28.4969 95.7115 28.3731 95.8718 28.266C96.0251 28.1622 96.2341 28.1421 96.4851 28.199ZM463.379 21.0459C463.156 21.0292 462.926 21.0158 462.702 20.9924C462.493 20.9689 462.333 20.8953 462.228 20.7848C462.403 20.6978 462.598 20.651 462.814 20.661C463.155 20.6811 463.49 20.7079 463.825 20.7413C464.034 20.7614 464.236 20.835 464.285 20.9489C464.333 21.0359 463.866 21.0861 463.379 21.0459ZM125.961 20.5304C125.871 20.5606 125.78 20.6208 125.689 20.6208C125.466 20.6208 125.236 20.6007 125.027 20.5673C124.937 20.5539 124.867 20.4936 124.825 20.4468C124.797 20.4166 124.804 20.3631 124.846 20.3363C125.048 20.1757 125.857 20.2326 125.989 20.4166C126.003 20.4501 125.968 20.4936 125.961 20.5304ZM147.952 2.20085C147.931 2.25441 147.924 2.30796 147.896 2.36151C147.84 2.46193 147.687 2.53558 147.464 2.58579C147.289 2.50211 147.199 2.4084 147.206 2.30799C147.213 2.25443 147.234 2.20084 147.262 2.14728C147.317 2.04686 147.471 1.97325 147.694 1.92304C147.868 2.00338 147.952 2.09709 147.952 2.20085ZM19.9128 46.06C19.9756 46.1035 20.0383 46.147 20.108 46.1872C19.9198 46.2843 19.7454 46.3144 19.613 46.2608C19.5294 46.2274 19.4805 46.1771 19.4178 46.1336C19.606 46.0366 19.7734 46.0098 19.9128 46.06ZM24.2481 46.5152C24.1575 46.5453 24.0738 46.5855 23.9762 46.6056C23.8159 46.6391 23.6696 46.5822 23.5581 46.4617C23.6487 46.4315 23.7323 46.3914 23.8299 46.3713C23.9902 46.3378 24.1366 46.3947 24.2481 46.5152ZM21.502 45.9027C21.5508 45.983 21.4531 46.05 21.1952 46.1069C21.1325 46.0633 21.0488 46.0232 21.007 45.9763C20.9373 45.8993 21.0559 45.829 21.3068 45.7755C21.3765 45.8157 21.4393 45.8592 21.502 45.9027ZM36.2156 42.2943C36.2644 42.3747 36.1668 42.4416 35.9089 42.4985C35.8462 42.455 35.7625 42.4148 35.7207 42.368C35.651 42.291 35.7695 42.2207 36.0204 42.1671C36.0901 42.2073 36.1528 42.2508 36.2156 42.2943ZM56.2613 18.6091C56.324 18.6526 56.3868 18.6962 56.4565 18.7363C56.2683 18.8334 56.094 18.8635 55.9616 18.8099C55.878 18.7765 55.8292 18.7263 55.7664 18.6828C55.9546 18.5857 56.1219 18.5589 56.2613 18.6091ZM75.4636 6.0435C75.2964 6.06693 75.1569 6.02009 75.0384 5.89624C75.129 5.86611 75.2127 5.82594 75.3103 5.80586C75.4706 5.77238 75.6169 5.8293 75.7284 5.94981C75.6378 5.98328 75.5473 6.01337 75.4636 6.0435ZM85.6606 5.2569C85.7234 5.30041 85.7861 5.34393 85.8558 5.3841C85.6676 5.48117 85.4934 5.51128 85.361 5.45773C85.2773 5.42425 85.2285 5.37404 85.1658 5.33053C85.354 5.23346 85.5212 5.21004 85.6606 5.2569ZM154.81 2.1975C154.873 2.24101 154.935 2.28453 155.005 2.3247C154.817 2.42177 154.643 2.45188 154.51 2.39833C154.427 2.36485 154.378 2.31464 154.315 2.27113C154.503 2.17406 154.671 2.15064 154.81 2.1975ZM499.121 29.4308C499.211 29.4007 499.302 29.3706 499.385 29.3371C499.588 29.4275 499.65 29.5111 499.539 29.5747C499.469 29.6149 499.365 29.6384 499.274 29.6685C499.065 29.5781 499.016 29.4977 499.121 29.4308Z" fill="#FFE492"/>
<path d="M458.696 17.6216C459.497 17.6856 460.292 17.7664 461.093 17.8069C461.518 17.8271 461.672 17.972 461.846 18.1067C461.985 18.2146 462.146 18.2483 462.404 18.2685C464.578 18.4336 466.746 18.6088 468.914 18.7806C469.185 18.7368 469.318 18.6661 469.255 18.5818C469.22 18.5313 469.137 18.4605 469.053 18.4538C467.568 18.3291 466.091 18.2011 464.599 18.1034C464.174 18.0764 464.056 17.9282 463.839 17.8069C463.77 17.7664 463.714 17.7058 463.623 17.6822C463.533 17.6552 463.4 17.6586 463.282 17.6519C460.884 17.4598 458.486 17.2712 456.089 17.0791C455.817 17.1229 455.684 17.1936 455.747 17.2779C455.782 17.3284 455.866 17.3992 455.949 17.4059C456.869 17.4767 457.783 17.5474 458.696 17.6216Z" fill="#FFE492"/>
<path d="M19.8218 35.4296C20.1843 35.4697 20.6443 35.5265 21.0206 35.3327C21.2019 35.2391 21.3971 35.2091 21.6341 35.2291C21.9756 35.2626 22.3241 35.2893 22.6726 35.3093C22.7632 35.3127 22.8817 35.2759 22.9723 35.2458C23.1674 35.1857 23.3348 35.0854 23.5439 35.0587C23.753 35.032 24.0039 35.1055 24.2199 35.0888C24.5057 35.0654 24.6242 34.9752 24.5475 34.8916C24.5057 34.8448 24.422 34.778 24.3314 34.768C23.0419 34.6443 23.0351 34.6443 22.6726 34.7646C22.3938 34.8582 22.1359 34.9618 21.7386 34.905C21.404 34.8582 21.0486 34.8481 20.707 34.8181C20.2331 34.778 20.2331 34.7813 19.4664 34.9918C19.2712 35.0453 19.0621 35.042 18.8112 35.0119C18.5951 34.9885 18.386 35.042 18.2117 35.1322C18.3232 35.2458 18.4837 35.3194 18.6998 35.3394C19.0483 35.3728 19.3897 35.3962 19.8218 35.4296Z" fill="#FFE492"/>
<path d="M32.6533 34.405C31.7751 34.3348 30.8899 34.2747 30.0117 34.1945C29.6492 34.161 29.3634 34.1978 29.1125 34.3114C28.8407 34.4351 28.534 34.4251 28.1994 34.4017C27.9903 34.3883 27.7881 34.4417 27.6487 34.5353C27.593 34.5721 27.607 34.6389 27.5861 34.6924C28.3528 34.7526 29.1264 34.816 29.9 34.8695C29.9906 34.8762 30.1023 34.8428 30.1859 34.816C30.3741 34.7592 30.5344 34.659 30.7366 34.6389C31.1687 34.5921 31.6008 34.6823 32.0399 34.699C32.249 34.7057 32.4511 34.6556 32.5905 34.5654C32.6463 34.522 32.6324 34.4584 32.6533 34.405Z" fill="#FFE492"/>
<path d="M350.03 5.64297C349.117 5.56945 348.204 5.4993 347.291 5.42578C347.019 5.47257 346.894 5.53939 346.95 5.62294C346.984 5.67307 347.068 5.74325 347.152 5.74993C348.978 5.90031 350.804 6.04399 352.623 6.18769C352.895 6.14091 353.02 6.07408 352.965 5.99053C352.93 5.94041 352.846 5.87023 352.762 5.86354C351.856 5.78668 350.943 5.71649 350.03 5.64297Z" fill="#FFE492"/>
<path d="M490.728 24.2299C491.14 24.2366 491.572 24.3602 492.032 24.2667C492.122 24.25 492.248 24.1965 492.241 24.1664C492.227 24.1163 492.143 24.0528 492.053 24.0327C491.655 23.9492 491.161 23.9391 490.958 23.7052C490.861 23.5849 490.68 23.5448 490.436 23.5214C490.178 23.4947 489.997 23.5047 489.794 23.5749C489.53 23.6651 489.307 23.8322 488.888 23.7453C488.867 23.7988 488.819 23.8589 488.84 23.9091C488.861 23.9592 488.951 24.006 489.035 24.0427C489.111 24.0762 489.216 24.1062 489.314 24.1163C489.774 24.1564 490.234 24.1898 490.728 24.2299Z" fill="#FFE492"/>
<path d="M128.233 23.5755C127.891 23.5488 127.536 23.5354 127.201 23.4886C126.937 23.4519 126.769 23.4752 126.56 23.5554C126.205 23.6958 126.184 23.6825 125.313 23.7025C125.215 23.7059 125.096 23.756 125.041 23.7994C125.006 23.8228 125.055 23.8863 125.096 23.9197C125.159 23.9632 125.25 24.02 125.333 24.02C125.884 24.03 126.442 24.2272 126.978 23.9999C127.25 23.8863 127.55 23.8328 127.919 23.8829C128.142 23.913 128.379 23.9264 128.609 23.9398C128.832 23.9531 129.062 23.9164 129.202 23.8161C129.404 23.6691 129.285 23.6123 128.923 23.6223C128.693 23.629 128.463 23.5922 128.233 23.5755Z" fill="#FFE492"/>
<path d="M1.9095 46.6137C1.47039 46.5803 1.03135 46.5402 0.585268 46.5135C0.494658 46.5068 0.383029 46.5436 0.299389 46.567C-0.0351701 46.6672 0.0136675 46.8376 -0.000272533 46.988C-0.00724252 47.1451 0.766474 47.2721 1.09406 47.1651C1.4565 47.0448 1.78407 46.9078 2.28591 46.9814C2.48107 47.0081 2.7111 46.9479 2.83656 46.851C3.02475 46.7107 2.92011 46.6538 2.56464 46.6639C2.35554 46.6705 2.13254 46.6338 1.9095 46.6137Z" fill="#FFE492"/>
<path d="M223.193 1.06446C222.74 1.0278 222.287 0.97118 221.834 0.967847C221.569 0.964515 221.436 1.07446 221.499 1.15444C221.534 1.20443 221.618 1.27441 221.701 1.28108C222.607 1.36106 223.513 1.42772 224.42 1.50103C224.684 1.45438 224.817 1.38441 224.754 1.30443C224.719 1.25444 224.636 1.18779 224.552 1.17779C224.099 1.13114 223.646 1.10112 223.193 1.06446Z" fill="#FFE492"/>
<path d="M10.6036 35.7273C10.1644 35.694 9.71843 35.644 9.27932 35.6274C9.04931 35.6207 8.868 35.6973 8.84012 35.784C8.82618 35.824 8.93772 35.8939 9.02833 35.9106C9.65563 36.0239 10.3318 36.0373 10.9869 36.0939C11.196 36.1106 11.4191 36.0572 11.5446 35.9639C11.7328 35.8206 11.6281 35.7673 11.2726 35.7773C11.0496 35.7807 10.8266 35.744 10.6036 35.7273Z" fill="#FFE492"/>
<path d="M116.719 24.0054C116.496 23.9887 116.266 23.9452 116.05 23.9586C115.82 23.9753 115.673 24.0722 115.603 24.1691C115.527 24.2794 115.534 24.383 115.603 24.4766C115.715 24.637 115.827 24.6303 116.084 24.5234C116.482 24.3563 116.51 24.3763 117.297 24.383C117.388 24.383 117.499 24.3329 117.569 24.2894C117.673 24.2226 117.618 24.119 117.374 24.0588C117.193 24.0154 116.942 24.0221 116.719 24.0054Z" fill="#FFE492"/>
<path d="M26.9318 34.627C26.6042 34.601 26.2767 34.5587 25.9491 34.5587C25.7191 34.5554 25.5378 34.6302 25.5169 34.7116C25.5099 34.7506 25.6145 34.8157 25.6981 34.8352C26.0954 34.923 26.5416 34.9295 26.9737 34.9588C27.1758 34.9718 27.3989 34.9197 27.5243 34.8287C27.7125 34.692 27.6009 34.6302 27.2594 34.6497C27.1548 34.6563 27.0434 34.6368 26.9318 34.627Z" fill="#FFE492"/>
<path d="M78.4893 30.51C78.9772 30.549 79.4373 30.5002 79.4024 30.4157C79.3536 30.3051 79.1516 30.2335 78.9425 30.2139C78.6079 30.1814 78.2734 30.1554 77.9319 30.1359C77.7158 30.1229 77.5206 30.1717 77.3463 30.2562C77.4509 30.3603 77.6111 30.4351 77.8202 30.4579C78.0363 30.4807 78.2663 30.4937 78.4893 30.51Z" fill="#FFE492"/>
<path d="M81.6867 30.1045C81.3591 30.0785 81.0316 30.0362 80.704 30.0362C80.474 30.033 80.2927 30.1078 80.2718 30.1891C80.2648 30.2281 80.3694 30.2932 80.453 30.3127C80.8503 30.4005 81.2964 30.4071 81.7286 30.4363C81.9307 30.4493 82.1538 30.3973 82.2792 30.3062C82.4674 30.1696 82.3558 30.1078 82.0143 30.1273C81.9097 30.1338 81.7982 30.1143 81.6867 30.1045Z" fill="#FFE492"/>
<path d="M120.673 23.9672C120.345 23.9412 120.018 23.8989 119.69 23.8956C119.46 23.8924 119.279 23.9672 119.258 24.0485C119.251 24.0876 119.356 24.1494 119.439 24.1721C119.837 24.26 120.283 24.2665 120.715 24.2957C120.917 24.3088 121.14 24.2567 121.266 24.1656C121.454 24.029 121.342 23.9672 121.001 23.9867C120.896 23.9932 120.785 23.9737 120.673 23.9672Z" fill="#FFE492"/>
<path d="M122.505 23.7845C122.157 23.7585 122.045 23.7422 121.934 23.7422C121.725 23.7422 121.508 23.7812 121.383 23.8756C121.195 24.0122 121.306 24.0512 121.648 24.0577C122.087 24.0642 122.519 24.1326 122.958 24.1456C123.188 24.1521 123.37 24.074 123.383 23.9927C123.39 23.9536 123.286 23.8853 123.202 23.8723C122.909 23.8235 122.589 23.7942 122.505 23.7845Z" fill="#FFE492"/>
<path d="M84.5253 4.0932C84.7483 4.10986 84.9853 4.15652 85.1944 4.13986C85.4732 4.11653 85.5846 4.02657 85.5149 3.94326C85.4731 3.8966 85.3964 3.82996 85.3128 3.81996C84.8667 3.7733 84.4137 3.74329 83.9676 3.70996C83.7028 3.75995 83.5843 3.82992 83.654 3.91324C83.6958 3.95989 83.7725 4.02321 83.8562 4.03654C84.0722 4.06986 84.3022 4.07654 84.5253 4.0932Z" fill="#FFE492"/>
<path d="M355.03 6.01678C354.814 6.01352 354.619 6.05581 354.452 6.13713C354.557 6.24122 354.71 6.30953 354.919 6.3388C355.023 6.35182 355.142 6.36156 355.253 6.36481C355.47 6.37132 355.665 6.32578 355.832 6.24446C355.727 6.14037 355.567 6.07206 355.365 6.04278C355.261 6.02977 355.142 6.02653 355.03 6.01678Z" fill="#FFE492"/>
<path d="M12.9843 35.719C12.9913 35.6247 12.5662 35.5173 12.1828 35.5206C11.9807 35.5238 11.7716 35.5694 11.6531 35.6572C11.4719 35.7906 11.5765 35.8426 11.918 35.8328C12.1271 35.8263 12.3501 35.8816 12.5592 35.8719C12.7962 35.8686 12.9355 35.7971 12.9843 35.719Z" fill="#FFE492"/>
<path d="M114.697 24.4032C114.704 24.3674 114.739 24.3251 114.718 24.2926C114.586 24.1137 113.784 24.0584 113.575 24.2145C113.54 24.2438 113.526 24.2926 113.554 24.3219C113.596 24.3674 113.672 24.426 113.756 24.439C113.972 24.4715 114.195 24.4878 114.418 24.491C114.516 24.491 114.606 24.4357 114.697 24.4032Z" fill="#FFE492"/>
<path d="M488.25 23.6951C489.072 23.7634 489.086 23.7569 488.94 23.5942C488.807 23.4478 488.563 23.36 488.208 23.36C488.103 23.36 487.992 23.3535 487.901 23.3665C487.804 23.3828 487.664 23.4153 487.643 23.4543C487.601 23.5291 487.72 23.6105 487.929 23.6658C488.02 23.6918 488.138 23.6853 488.25 23.6951Z" fill="#FFE492"/>
<path d="M344.733 5.53392C344.977 5.58922 345.186 5.56972 345.34 5.46563C345.493 5.36153 345.249 5.23791 344.824 5.20864C344.712 5.20213 344.594 5.17613 344.489 5.18914C344.385 5.1989 344.28 5.2379 344.217 5.27694C344.106 5.34199 344.176 5.42984 344.399 5.50466C344.489 5.53393 344.622 5.52742 344.733 5.53392Z" fill="#FFE492"/>
<path d="M14.4376 35.4713C14.3748 35.429 14.3121 35.3867 14.2424 35.3477C13.9845 35.403 13.873 35.468 13.9427 35.5428C13.9845 35.5884 14.0682 35.6274 14.1309 35.6697C14.3888 35.6144 14.4933 35.5461 14.4376 35.4713Z" fill="#FFE492"/>
<path d="M477.207 61.8003C477.207 61.7613 477.109 61.6995 477.033 61.6865C476.886 61.6637 476.705 61.7092 476.58 61.8003C476.406 61.9305 476.51 61.9988 476.831 61.963C477.054 61.937 477.207 61.8719 477.207 61.8003Z" fill="#FFE492"/>
<path d="M111.86 21.2988C111.769 21.3289 111.679 21.359 111.595 21.3925C111.713 21.5163 111.86 21.5698 112.013 21.5363C112.111 21.5162 112.195 21.4761 112.285 21.446C112.167 21.3222 112.027 21.2754 111.86 21.2988Z" fill="#FFE492"/>
<path d="M114.273 21.1322C114.133 21.082 113.966 21.1088 113.771 21.2058C113.834 21.2493 113.889 21.2995 113.966 21.3329C114.099 21.3865 114.273 21.3597 114.461 21.2593C114.405 21.2192 114.342 21.1757 114.273 21.1322Z" fill="#FFE492"/>
<path d="M116.118 21.3C116.027 21.3301 115.937 21.3602 115.853 21.3936C115.971 21.5174 116.111 21.5709 116.271 21.5375C116.369 21.5174 116.452 21.4773 116.543 21.4471C116.424 21.3234 116.285 21.2732 116.118 21.3Z" fill="#FFE492"/>
<path d="M117.48 21.1018C117.375 21.1669 117.431 21.2449 117.633 21.3328C117.724 21.3035 117.828 21.2808 117.898 21.2417C118.009 21.1799 117.954 21.0986 117.744 21.0107C117.661 21.0433 117.57 21.0726 117.48 21.1018Z" fill="#FFE492"/>
</svg>
