<svg width="21" height="21" viewBox="0 0 21 21" fill="none" xmlns="http://www.w3.org/2000/svg">
<path fill-rule="evenodd" clip-rule="evenodd" d="M10.3587 18.998L11.0274 18.2445C11.7862 17.3754 12.4687 16.5509 13.076 15.7667L13.5773 15.1054C15.6703 12.2853 16.7174 10.047 16.7174 8.3927C16.7174 4.8615 13.8708 1.99902 10.3587 1.99902C6.84658 1.99902 4 4.8615 4 8.3927C4 10.047 5.04707 12.2853 7.14014 15.1054L7.64142 15.7667C8.50773 16.8767 9.41409 17.9538 10.3587 18.998Z" stroke="#F5A623" stroke-width="1.5" stroke-linecap="round" stroke-linejoin="round"/>
<path d="M10.3587 11.0069C11.8219 11.0069 13.0082 9.82073 13.0082 8.35747C13.0082 6.89421 11.8219 5.70801 10.3587 5.70801C8.89543 5.70801 7.70923 6.89421 7.70923 8.35747C7.70923 9.82073 8.89543 11.0069 10.3587 11.0069Z" stroke="#F5A623" stroke-width="1.5" stroke-linecap="round" stroke-linejoin="round"/>
</svg>
