<svg width="22" height="24" viewBox="0 0 22 24" fill="none" xmlns="http://www.w3.org/2000/svg">
<g clip-path="url(#clip0_240_4488)">
<path d="M0.0472412 23.2002L1.59412 17.293C0.64021 15.568 0.141772 13.6049 0.141772 11.5969C0.141772 5.3123 5.03591 0.200195 11.0472 0.200195C13.9648 0.200195 16.7019 1.39062 18.7601 3.54238C20.8183 5.69863 21.9527 8.56016 21.9527 11.6059C21.9484 17.8904 17.0586 23.0025 11.0472 23.0025H11.0429C9.21677 23.0025 7.42497 22.5219 5.83083 21.6145L0.0472412 23.2002ZM6.09724 19.5525L6.4281 19.7592C7.82029 20.6217 9.41443 21.0799 11.0429 21.0799H11.0472C16.0445 21.0799 20.1094 16.8303 20.1094 11.6059C20.1094 9.07676 19.1683 6.6959 17.4582 4.90352C15.748 3.11113 13.4707 2.12734 11.0515 2.12734C6.04998 2.12734 1.98513 6.37695 1.98513 11.6014C1.98513 13.3893 2.46209 15.1322 3.36873 16.6416L3.58357 17.001L2.66833 20.4959L6.09724 19.5525Z" fill="white"/>
<path d="M0.429688 22.8005L1.925 17.0999C1.00117 15.4333 0.515625 13.5376 0.515625 11.6015C0.519922 5.53252 5.24219 0.600098 11.043 0.600098C13.8574 0.600098 16.5043 1.74561 18.4895 3.82549C20.4789 5.90537 21.5746 8.66807 21.5703 11.6104C21.566 17.6749 16.8438 22.6118 11.043 22.6118H11.0387C9.27695 22.6118 7.54531 22.1491 6.00703 21.2731L0.429688 22.8005Z" fill="url(#paint0_linear_240_4488)"/>
<path d="M0.0472412 23.2002L1.59412 17.293C0.64021 15.568 0.141772 13.6049 0.141772 11.5969C0.141772 5.3123 5.03591 0.200195 11.0472 0.200195C13.9648 0.200195 16.7019 1.39062 18.7601 3.54238C20.8183 5.69863 21.9527 8.56016 21.9527 11.6059C21.9484 17.8904 17.0586 23.0025 11.0472 23.0025H11.0429C9.21677 23.0025 7.42497 22.5219 5.83083 21.6145L0.0472412 23.2002ZM6.09724 19.5525L6.4281 19.7592C7.82029 20.6217 9.41443 21.0799 11.0429 21.0799H11.0472C16.0445 21.0799 20.1094 16.8303 20.1094 11.6059C20.1094 9.07676 19.1683 6.6959 17.4582 4.90352C15.748 3.11113 13.4707 2.12734 11.0515 2.12734C6.04998 2.12734 1.98513 6.37695 1.98513 11.6014C1.98513 13.3893 2.46209 15.1322 3.36873 16.6416L3.58357 17.001L2.66833 20.4959L6.09724 19.5525Z" fill="url(#paint1_linear_240_4488)"/>
<path fill-rule="evenodd" clip-rule="evenodd" d="M8.31875 6.83081C8.1125 6.35464 7.89766 6.34565 7.7043 6.33667C7.54531 6.32769 7.36484 6.33218 7.18008 6.33218C6.99961 6.33218 6.70312 6.40405 6.45391 6.68706C6.20469 6.97007 5.5 7.66187 5.5 9.06343C5.5 10.465 6.47539 11.8216 6.61289 12.0103C6.75039 12.199 8.49922 15.1683 11.2664 16.3093C13.5695 17.2572 14.0379 17.0685 14.5363 17.0236C15.0348 16.9787 16.1477 16.3363 16.3754 15.6714C16.6031 15.0066 16.6031 14.4361 16.5344 14.3193C16.4656 14.2025 16.2852 14.1306 16.0102 13.9869C15.7395 13.8431 14.3988 13.1558 14.1496 13.0615C13.9004 12.9671 13.7199 12.9177 13.5352 13.2052C13.3547 13.4882 12.8305 14.1306 12.6715 14.3193C12.5125 14.508 12.3535 14.5349 12.0828 14.3912C11.8121 14.2474 10.9313 13.9464 9.89141 12.9761C9.0793 12.2214 8.53359 11.2871 8.37461 11.0041C8.21562 10.721 8.35742 10.5638 8.49492 10.4246C8.61523 10.2988 8.76562 10.0921 8.90312 9.92593C9.04062 9.75972 9.08359 9.64292 9.17383 9.44976C9.26406 9.26108 9.22109 9.09487 9.15234 8.95112C9.09219 8.80288 8.56367 7.39683 8.31875 6.83081Z" fill="white"/>
</g>
<defs>
<linearGradient id="paint0_linear_240_4488" x1="10.9999" y1="22.8023" x2="10.9999" y2="0.59857" gradientUnits="userSpaceOnUse">
<stop stop-color="#20B038"/>
<stop offset="1" stop-color="#60D66A"/>
</linearGradient>
<linearGradient id="paint1_linear_240_4488" x1="11" y1="23.2002" x2="11" y2="0.200195" gradientUnits="userSpaceOnUse">
<stop stop-color="#F9F9F9"/>
<stop offset="1" stop-color="white"/>
</linearGradient>
<clipPath id="clip0_240_4488">
<rect width="22" height="23" fill="white" transform="translate(0 0.200195)"/>
</clipPath>
</defs>
</svg>
