<svg width="197" height="203" viewBox="0 0 197 203" fill="none" xmlns="http://www.w3.org/2000/svg">
<g clip-path="url(#clip0_240_4622)">
<path d="M88.953 4.14483L88.9524 4.14425C86.0328 1.44011 82.6371 0.409753 79.5083 1.03118C76.3795 1.65263 73.6367 3.90231 71.9751 7.51739C68.944 14.1123 60.8687 17.4576 54.057 14.9467C50.3237 13.5632 46.7916 13.9127 44.1385 15.6869C41.4855 17.461 39.8119 20.5921 39.659 24.5685C39.3799 31.8236 33.199 38.0046 25.9438 38.2836C21.9675 38.4366 18.8363 40.1101 17.0623 42.7631C15.2881 45.4163 14.9385 48.9483 16.322 52.6817C18.846 59.4926 15.5015 67.5681 8.89317 70.5996L8.89273 70.5998C5.27798 72.2612 3.02487 75.0037 2.40161 78.1326C1.77834 81.2616 2.8088 84.6574 5.51959 87.5771C10.4536 92.9042 10.4536 101.641 5.51959 106.968C2.81545 109.888 1.78509 113.284 2.40652 116.412C3.02797 119.541 5.27765 122.284 8.89273 123.946C15.4876 126.977 18.833 135.052 16.322 141.864C14.9385 145.597 15.2881 149.129 17.0623 151.782C18.8363 154.435 21.9675 156.109 25.9438 156.262C33.199 156.541 39.3799 162.722 39.659 169.977C39.8119 173.953 41.4855 177.085 44.1385 178.859C46.7916 180.633 50.3237 180.982 54.057 179.599C60.868 177.075 68.9434 180.419 71.9749 187.028L71.9751 187.028C73.6365 190.643 76.3791 192.896 79.508 193.519C82.6371 194.143 86.0332 193.112 88.953 190.401C91.5338 188.004 94.9246 186.769 98.3521 186.7L98.375 186.724H98.6548C102.185 186.724 105.7 187.96 108.357 190.427L108.357 190.428C111.277 193.132 114.672 194.162 117.801 193.541C120.93 192.919 123.673 190.67 125.334 187.055C128.366 180.459 136.442 177.114 143.254 179.626C146.986 181.002 150.518 180.652 153.171 178.88C155.824 177.108 157.498 173.98 157.651 170.003C157.93 162.748 164.111 156.567 171.366 156.288C175.342 156.135 178.473 154.462 180.247 151.809C182.021 149.156 182.371 145.624 180.988 141.89C178.464 135.079 181.808 127.004 188.416 123.972L188.417 123.972C192.032 122.311 194.285 119.568 194.908 116.439C195.531 113.31 194.501 109.915 191.79 106.995C186.856 101.668 186.856 92.9307 191.79 87.6035L191.967 87.4124V87.3958C194.539 84.5205 195.511 81.2057 194.903 78.1461C194.282 75.0173 192.032 72.2745 188.417 70.6129C181.822 67.5817 178.476 59.5057 180.988 52.6938C182.371 48.9608 182.021 45.4292 180.247 42.7763C178.473 40.1233 175.342 38.4498 171.366 38.2968C164.111 38.0178 157.93 31.8368 157.651 24.5817C157.498 20.6053 155.824 17.4742 153.171 15.7001C150.518 13.9259 146.986 13.5764 143.253 14.9599C136.442 17.4839 128.366 14.1394 125.335 7.53101L125.334 7.53057C123.673 3.91582 120.93 1.6627 117.802 1.03944C114.672 0.41613 111.276 1.44678 108.357 4.158C105.772 6.55776 102.376 7.79295 98.9433 7.85849L98.9331 7.84807H98.6547C95.1249 7.84807 91.6098 6.61182 88.953 4.14483Z" fill="#33B8F5" stroke="#2BA4DB" stroke-width="1.32904"/>
<path d="M98.6546 178.072C54.1051 178.072 17.8621 141.829 17.8621 97.2791C17.8621 52.7296 54.1051 16.4866 98.6546 16.4866C143.204 16.4866 179.447 52.7296 179.447 97.2791C179.447 141.829 143.204 178.072 98.6546 178.072ZM98.6546 20.6465C56.4043 20.6465 22.022 55.0155 22.022 97.2791C22.022 139.543 56.391 173.912 98.6546 173.912C140.918 173.912 175.287 139.529 175.287 97.2791C175.287 55.0288 140.905 20.6465 98.6546 20.6465Z" fill="white"/>
<g style="mix-blend-mode:overlay">
<path d="M98.6682 96.7211V148.474L117.169 145.962L142.859 126.904L148.374 110.703V96.0964L98.6682 96.7211Z" fill="#707070"/>
</g>
<g style="mix-blend-mode:overlay">
<path d="M47.3671 97.3727L50.4903 113.281L57.1222 128.539L74.3865 142.308L95.7575 148.86L98.6681 148.474V96.7214L47.3671 97.3727Z" fill="#7D7D7D"/>
</g>
<path d="M175.74 79.0718H20.986V113.295H175.74V79.0718Z" fill="white"/>
<path d="M98.6684 42.895C68.6187 42.895 44.2706 67.2431 44.2706 97.2662C44.2706 127.289 68.6187 151.664 98.6684 151.664C128.718 151.664 153.04 127.316 153.04 97.2662C153.04 67.2165 128.691 42.895 98.6684 42.895ZM98.6684 145.976C71.7685 145.976 49.9722 124.179 49.9722 97.2795C49.9722 70.3796 71.7685 48.5966 98.6684 48.5966C125.568 48.5966 147.351 70.3929 147.351 97.2795C147.351 124.166 125.555 145.976 98.6684 145.976Z" fill="white"/>
<path d="M98.6678 53.0225C74.6121 53.0225 55.0885 72.2138 54.4506 96.11H142.859C142.234 72.2138 122.697 53.0225 98.6545 53.0225H98.6678Z" fill="white"/>
<path d="M175.739 79.0718H98.9072V113.295H175.739V79.0718Z" fill="white"/>
<path d="M162.768 96.1763C162.768 93.4783 164.961 91.2854 167.659 91.2854C170.357 91.2854 172.55 93.4783 172.55 96.1763C172.55 98.8742 170.357 101.067 167.659 101.067C164.961 101.067 162.768 98.8742 162.768 96.1763Z" fill="#2AAEDE"/>
<path d="M24.7732 96.1763C24.7732 93.4783 26.9661 91.2854 29.6641 91.2854C32.362 91.2854 34.555 93.4783 34.555 96.1763C34.555 98.8742 32.362 101.067 29.6641 101.067C26.9661 101.067 24.7732 98.8742 24.7732 96.1763Z" fill="#2AB5DB"/>
<path d="M129.848 151.855L131.741 160.701L133.405 160.345L131.512 151.499L129.848 151.855Z" fill="white"/>
<path d="M124.409 154.498L124.104 153.072L125.78 152.713L126.086 154.139L124.409 154.498Z" fill="white"/>
<path d="M113.067 155.021L113.26 156.467L114.959 156.241L114.767 154.795L113.067 155.021Z" fill="white"/>
<path fill-rule="evenodd" clip-rule="evenodd" d="M123.551 160.936L122.173 161.231L121.923 161.285L118.905 161.931L118.708 160.453C118.649 160.005 118.532 159.582 118.359 159.183C118.194 158.783 117.962 158.436 117.665 158.14C117.375 157.842 117.02 157.627 116.598 157.494C116.174 157.353 115.679 157.32 115.113 157.395C114.69 157.451 114.324 157.547 114.015 157.683C113.714 157.809 113.439 157.975 113.191 158.18C112.951 158.384 112.726 158.629 112.514 158.916C112.331 159.173 112.142 159.463 111.946 159.785L111.688 157.851L109.989 158.077L110.641 162.973L109.043 163.186C108.993 163.192 108.956 163.222 108.93 163.273C108.924 163.266 108.917 163.261 108.91 163.255C108.88 163.225 108.84 163.213 108.789 163.22L105.618 163.642C105.589 163.646 105.564 163.658 105.543 163.677L104.449 156.708L102.755 156.974L104.176 166.024C104.222 166.319 104.197 166.595 104.099 166.852C104.01 167.108 103.832 167.326 103.567 167.506C103.302 167.685 102.937 167.812 102.474 167.885C102.027 167.955 101.632 167.943 101.29 167.85C100.957 167.764 100.687 167.613 100.48 167.395C100.273 167.177 100.143 166.899 100.09 166.562C100.066 166.411 100.045 166.168 100.028 165.834C100.01 165.5 99.9938 165.097 99.98 164.624C99.9733 164.141 99.9719 163.61 99.976 163.031L98.2717 163.066C98.2741 163.411 98.2743 163.769 98.2722 164.141C98.2772 164.503 98.2816 164.86 98.2853 165.214C98.2974 165.566 98.3127 165.883 98.331 166.165C98.3494 166.447 98.3719 166.672 98.3983 166.841C98.4923 167.439 98.7407 167.948 99.1434 168.369C99.5462 168.789 100.055 169.085 100.669 169.256C101.292 169.434 101.971 169.466 102.704 169.351C103.403 169.241 104.007 169.017 104.515 168.678C105.025 168.347 105.399 167.93 105.64 167.426C105.888 166.921 105.965 166.365 105.87 165.758L105.769 165.114C105.783 165.116 105.798 165.115 105.814 165.113L108.985 164.691C109.036 164.684 109.072 164.662 109.092 164.625C109.096 164.62 109.1 164.615 109.103 164.61L109.109 164.615L109.118 164.622C109.148 164.652 109.188 164.664 109.239 164.657L118.96 163.363L118.97 163.371L118.977 163.376L118.983 163.38C119.015 163.408 119.056 163.416 119.106 163.406L122.234 162.736L122.484 162.683L129.491 161.183L128.146 154.902L125.319 155.507C124.61 155.659 124.052 155.905 123.645 156.245C123.236 156.577 122.969 157 122.844 157.516C122.727 158.029 122.741 158.628 122.888 159.312C123.036 160.002 123.257 160.544 123.551 160.936ZM112.169 161.461L112.34 162.747L117.198 162.1L117.009 160.679C116.945 160.197 116.83 159.821 116.665 159.551C116.499 159.271 116.284 159.081 116.021 158.978C115.766 158.874 115.47 158.845 115.131 158.89C114.768 158.938 114.431 159.056 114.12 159.244C113.818 159.431 113.542 159.657 113.294 159.922C113.045 160.187 112.82 160.467 112.618 160.761C112.452 161.002 112.302 161.236 112.169 161.461ZM126.35 160.337C125.984 160.415 125.689 160.439 125.465 160.409C125.239 160.37 125.059 160.243 124.925 160.027C124.79 159.803 124.67 159.445 124.564 158.953C124.468 158.503 124.436 158.147 124.467 157.888C124.497 157.62 124.607 157.417 124.795 157.281C124.984 157.145 125.262 157.037 125.629 156.959L126.78 156.712L127.503 160.09L126.35 160.337Z" fill="white"/>
<path fill-rule="evenodd" clip-rule="evenodd" d="M65.4434 158.239L65.5208 158.037L66.9355 158.579C66.9894 158.599 67.0367 158.597 67.0774 158.571C67.0849 158.568 67.0923 158.564 67.0997 158.56C67.1024 158.568 67.1054 158.576 67.1087 158.583C67.1219 158.629 67.1555 158.663 67.2094 158.683L70.5777 159.973C70.6316 159.993 70.6789 159.991 70.7196 159.965C70.7453 159.954 70.7698 159.938 70.7934 159.918L70.7932 159.942C70.7879 160.012 70.7967 160.072 70.8195 160.121C70.8333 160.167 70.8672 160.2 70.9214 160.22L73.2227 161.068C73.9266 161.328 74.627 161.458 75.3238 161.458C75.433 161.458 75.5415 161.456 75.6491 161.451C75.7281 161.525 75.8092 161.597 75.8923 161.668C76.4229 162.119 77.0401 162.475 77.744 162.734L79.9641 163.552L80.6112 163.862L85.2044 165.168C85.889 165.363 86.4829 165.401 86.9861 165.284C87.0681 165.265 87.1482 165.242 87.2262 165.214C87.3691 165.375 87.5243 165.521 87.692 165.65C88.0318 165.897 88.3914 166.074 88.7707 166.182L92.2538 167.172L93.3389 163.356C93.3993 163.143 93.4578 162.85 93.5141 162.476C93.5731 162.093 93.628 161.689 93.679 161.263C93.7419 160.831 93.7883 160.439 93.8182 160.088L91.9076 159.844C91.8777 160.266 91.8353 160.679 91.7803 161.083C91.7372 161.481 91.6862 161.836 91.6271 162.15C91.58 162.456 91.5353 162.683 91.4932 162.831L90.8659 165.038L89.2284 164.572C89.0526 164.522 88.8907 164.441 88.7426 164.329C88.6634 164.26 88.5831 164.177 88.5016 164.081C88.7583 163.662 88.9772 163.135 89.1584 162.497L89.9357 159.764L88.0762 159.235L87.2989 161.969C87.1437 162.515 86.9943 162.917 86.8506 163.176C86.7188 163.429 86.5611 163.579 86.3776 163.627C86.1966 163.665 85.9581 163.642 85.6621 163.558L84.5381 163.239L85.6587 159.298L83.7992 158.769L82.6786 162.71L81.5754 162.396C81.5754 162.396 81.4466 162.169 81.2488 162.113L81.2112 162.102C81.0271 162.049 80.6022 161.927 80.5409 161.982L77.8572 160.993C78.2834 160.829 78.6792 160.637 79.0445 160.415C79.5718 160.097 80.0116 159.752 80.3641 159.379C80.7199 158.998 80.966 158.622 81.1023 158.252L81.3867 157.481C81.0784 157.121 80.7298 156.788 80.3408 156.48C79.9608 156.176 79.5676 155.908 79.161 155.677C78.7577 155.436 78.3666 155.245 77.9876 155.106C77.6175 154.969 77.1965 154.86 76.7243 154.779C76.2645 154.691 75.7869 154.638 75.2915 154.62C74.8051 154.604 74.328 154.634 73.8601 154.707L73.5758 155.479C73.4394 155.849 73.3829 156.294 73.4061 156.815C73.4327 157.327 73.5388 157.874 73.7245 158.455C73.8649 158.863 74.0454 159.268 74.2657 159.669L71.5 158.65C71.4369 158.627 71.3739 158.644 71.3112 158.703C71.3059 158.707 71.3007 158.711 71.2954 158.715L71.2956 158.703C71.3051 158.624 71.2988 158.56 71.2766 158.51C71.2635 158.464 71.2299 158.43 71.176 158.41L67.8076 157.12C67.754 157.1 67.7002 157.109 67.6461 157.149C67.6429 157.137 67.639 157.126 67.6344 157.116C67.6212 157.07 67.5877 157.036 67.5338 157.016L66.119 156.474L68.1098 151.273L66.3044 150.582L63.638 157.548C63.4454 158.051 63.1881 158.4 62.8659 158.596C62.5527 158.796 62.221 158.828 61.8707 158.694C61.8078 158.67 61.7107 158.628 61.5794 158.567C61.4571 158.51 61.3258 158.45 61.1855 158.386L60.5302 159.896C60.667 159.969 60.8011 160.036 60.9324 160.096C61.0637 160.157 61.1877 160.209 61.3045 160.254C61.8883 160.478 62.4519 160.539 62.9952 160.438C63.535 160.346 64.0173 160.108 64.4421 159.725C64.8758 159.345 65.2096 158.85 65.4434 158.239ZM76.781 159.673C76.609 159.733 76.4341 159.781 76.2563 159.818C76.1428 159.674 76.0379 159.522 75.9417 159.364C75.7279 158.998 75.5632 158.625 75.4473 158.244C75.3347 157.854 75.269 157.476 75.25 157.11C75.2421 156.821 75.2702 156.557 75.3345 156.321C75.5393 156.321 75.7427 156.332 75.9447 156.352C76.4877 156.408 76.9757 156.516 77.4089 156.676C77.8511 156.839 78.2926 157.073 78.7334 157.379C78.9034 157.497 79.0687 157.624 79.2291 157.76C79.1229 157.98 78.9697 158.196 78.7696 158.407C78.5269 158.677 78.2317 158.922 77.8839 159.142C77.5486 159.357 77.1809 159.534 76.781 159.673Z" fill="white"/>
<path d="M45.0214 101.742C43.7332 101.742 42.6724 101.537 41.8389 101.128C41.0054 100.719 40.384 100.097 39.9748 99.2638C39.5808 98.4303 39.3838 97.3771 39.3838 96.1041C39.3838 94.8311 39.5808 93.7702 39.9748 92.9215C40.384 92.0577 41.0054 91.4136 41.8389 90.9893C42.6724 90.5498 43.7332 90.3301 45.0214 90.3301H50.1589V100.31H47.1128V92.3078L47.8629 92.967H45.0214C44.4 92.967 43.8999 93.0428 43.5211 93.1943C43.1422 93.3307 42.8618 93.6262 42.68 94.0809C42.5133 94.5204 42.4299 95.1948 42.4299 96.1041C42.4299 96.9679 42.5057 97.6195 42.6572 98.059C42.8239 98.4834 43.0967 98.7637 43.4756 98.9001C43.8545 99.0365 44.3697 99.1047 45.0214 99.1047H52.5458V101.742H45.0214ZM52.5458 101.742V99.1047C52.6367 99.1047 52.7049 99.135 52.7504 99.1957C52.811 99.2563 52.8565 99.3472 52.8868 99.4684C52.9322 99.5897 52.9625 99.7336 52.9777 99.9004C52.9928 100.052 53.0004 100.226 53.0004 100.423C53.0004 100.62 52.9928 100.802 52.9777 100.969C52.9625 101.135 52.9322 101.279 52.8868 101.401C52.8565 101.507 52.811 101.59 52.7504 101.651C52.7049 101.711 52.6367 101.742 52.5458 101.742ZM41.6343 88.2387V85.6472H44.5667V88.2387H41.6343ZM45.7716 88.2387V85.6472H48.704V88.2387H45.7716Z" fill="#2AB5DB"/>
<path d="M52.549 101.742V99.1047H56.709L54.9359 100.582V90.3301H57.982V101.742H52.549ZM52.549 101.742C52.458 101.742 52.3898 101.711 52.3444 101.651C52.2838 101.59 52.2383 101.507 52.208 101.401C52.1625 101.279 52.1322 101.135 52.1171 100.969C52.1019 100.802 52.0943 100.62 52.0943 100.423C52.0943 100.15 52.1095 99.9231 52.1398 99.7412C52.1701 99.5442 52.2231 99.3927 52.2989 99.2866C52.3595 99.1653 52.4429 99.1047 52.549 99.1047V101.742ZM54.9359 88.2387V85.6472H57.982V88.2387H54.9359Z" fill="#2AB5DB"/>
<path d="M64.6999 101.742V99.1047H67.2914V101.742H64.6999ZM61.6765 101.742V85.6699H64.6999V101.742H61.6765ZM67.2914 101.742V99.1047C67.3823 99.1047 67.4505 99.135 67.496 99.1957C67.5566 99.2563 67.6021 99.3472 67.6324 99.4684C67.6778 99.5897 67.7081 99.7336 67.7233 99.9004C67.7385 100.052 67.746 100.226 67.746 100.423C67.746 100.62 67.7385 100.802 67.7233 100.969C67.7081 101.135 67.6778 101.279 67.6324 101.401C67.6021 101.507 67.5566 101.59 67.496 101.651C67.4505 101.711 67.3823 101.742 67.2914 101.742Z" fill="#2AB5DB"/>
<path d="M73.9273 101.742V99.1047H76.7688V101.742H73.9273ZM76.7688 101.742V99.1047C76.8446 99.1047 76.9128 99.135 76.9734 99.1957C77.034 99.2563 77.0795 99.3472 77.1098 99.4684C77.1401 99.5897 77.1628 99.7336 77.178 99.9004C77.2083 100.052 77.2234 100.226 77.2234 100.423C77.2234 100.62 77.2083 100.802 77.178 100.969C77.1628 101.135 77.1401 101.279 77.1098 101.401C77.0795 101.507 77.034 101.59 76.9734 101.651C76.9279 101.711 76.8597 101.742 76.7688 101.742ZM67.2894 101.742C67.1985 101.742 67.1303 101.711 67.0848 101.651C67.0242 101.59 66.9788 101.507 66.9484 101.401C66.903 101.279 66.8727 101.135 66.8575 100.969C66.8424 100.802 66.8348 100.62 66.8348 100.423C66.8348 100.15 66.8499 99.9231 66.8802 99.7412C66.9106 99.5442 66.9636 99.3927 67.0394 99.2866C67.1 99.1653 67.1833 99.1047 67.2894 99.1047V101.742ZM67.2894 101.742V99.1047H72.677L70.9039 100.582V90.3301H73.9273V101.742H67.2894ZM68.1078 106.584V103.992H71.0403V106.584H68.1078ZM72.2451 106.584V103.992H75.1775V106.584H72.2451Z" fill="#2AB5DB"/>
<path d="M76.7688 101.742V99.1047H93.9542L91.3855 101.332V96.5587C91.3855 95.6949 91.2718 95.0053 91.0445 94.4901C90.8172 93.9597 90.4837 93.5732 90.0443 93.3307C89.6199 93.0882 89.1047 92.967 88.4985 92.967C87.8468 92.967 87.2255 93.0958 86.6344 93.3535C86.0585 93.6111 85.5205 93.9445 85.0204 94.3537C84.5203 94.7629 84.0581 95.2023 83.6338 95.6721C83.2094 96.1419 82.8305 96.5966 82.4971 97.0361C82.1637 97.4604 81.8758 97.8241 81.6333 98.1272L80.9514 95.9222C81.5424 95.2099 82.0728 94.5583 82.5426 93.9672C83.0124 93.3762 83.4595 92.8533 83.8838 92.3987C84.3233 91.9441 84.7779 91.5652 85.2477 91.2621C85.7327 90.959 86.2555 90.7317 86.8163 90.5801C87.3922 90.4134 88.059 90.3301 88.8167 90.3301C89.8321 90.3301 90.6959 90.5043 91.4082 90.8529C92.1205 91.1863 92.6964 91.6485 93.1358 92.2396C93.5905 92.8306 93.9163 93.4974 94.1133 94.24C94.3255 94.9826 94.4316 95.7555 94.4316 96.5587V101.742H76.7688ZM79.6329 99.1047V90.3301H82.679V99.1047H79.6329ZM76.7688 101.742C76.6779 101.742 76.6095 101.711 76.564 101.651C76.5034 101.59 76.4579 101.507 76.4276 101.401C76.3822 101.279 76.3519 101.135 76.3367 100.969C76.3215 100.802 76.314 100.62 76.314 100.423C76.314 100.15 76.3291 99.9231 76.3594 99.7412C76.3897 99.5442 76.4428 99.3927 76.5186 99.2866C76.5792 99.1653 76.6627 99.1047 76.7688 99.1047V101.742Z" fill="#2AB5DB"/>
<path d="M108.718 107.379C107.4 107.379 106.218 107.137 105.172 106.652C104.142 106.182 103.331 105.523 102.74 104.674C102.149 103.825 101.853 102.863 101.853 101.787C101.853 101.484 101.876 101.082 101.921 100.582C101.967 100.082 102.027 99.5215 102.103 98.9001C102.194 98.2788 102.285 97.6499 102.376 97.0134C102.482 96.3617 102.581 95.7328 102.672 95.1266L105.672 95.5358C105.505 96.5511 105.361 97.4832 105.24 98.3318C105.134 99.1653 105.051 99.8776 104.99 100.469C104.93 101.06 104.899 101.492 104.899 101.764C104.899 102.371 105.051 102.893 105.354 103.333C105.657 103.772 106.089 104.113 106.65 104.356C107.226 104.614 107.915 104.742 108.718 104.742C109.552 104.742 110.226 104.621 110.741 104.379C111.257 104.136 111.628 103.803 111.855 103.378C112.098 102.954 112.219 102.477 112.219 101.946V90.3301H115.265V101.946C115.265 103.037 114.977 103.992 114.401 104.811C113.841 105.629 113.068 106.258 112.083 106.697C111.098 107.152 109.976 107.379 108.718 107.379ZM107.059 89.5117V86.9202H110.105V89.5117H107.059Z" fill="#2AB5DB"/>
<path d="M121.908 101.742V99.1047H124.499V101.742H121.908ZM118.885 101.742V85.6699H121.908V101.742H118.885ZM124.499 101.742V99.1047C124.59 99.1047 124.659 99.135 124.704 99.1957C124.765 99.2563 124.81 99.3472 124.84 99.4684C124.886 99.5897 124.916 99.7336 124.931 99.9004C124.947 100.052 124.954 100.226 124.954 100.423C124.954 100.62 124.947 100.802 124.931 100.969C124.916 101.135 124.886 101.279 124.84 101.401C124.81 101.507 124.765 101.59 124.704 101.651C124.659 101.711 124.59 101.742 124.499 101.742Z" fill="#2AB5DB"/>
<path d="M137.932 101.742V99.1047H140.342V101.742H137.932ZM124.497 101.742C124.407 101.742 124.338 101.711 124.293 101.651C124.232 101.59 124.187 101.507 124.157 101.401C124.111 101.279 124.081 101.135 124.066 100.969C124.05 100.802 124.043 100.62 124.043 100.423C124.043 100.15 124.058 99.9231 124.088 99.7412C124.119 99.5442 124.172 99.3927 124.247 99.2866C124.308 99.1653 124.391 99.1047 124.497 99.1047V101.742ZM124.497 101.742V99.1047H136.296L134.909 100.287V96.1041C134.909 95.2857 134.818 94.6492 134.636 94.1946C134.454 93.7248 134.136 93.3989 133.681 93.2171C133.242 93.0201 132.628 92.9215 131.84 92.9215C131.219 92.9215 130.605 92.967 129.999 93.0579C129.408 93.1337 128.945 93.2398 128.612 93.3762L130.499 91.6031C130.408 91.9516 130.317 92.3911 130.226 92.9215C130.15 93.452 130.082 94.0203 130.021 94.6265C129.961 95.2175 129.931 95.801 129.931 96.3768C129.931 96.9073 129.953 97.4604 129.999 98.0363C130.059 98.6122 130.12 99.1199 130.181 99.5594C130.256 99.9989 130.317 100.302 130.362 100.469L127.475 101.264C127.415 101.052 127.339 100.704 127.248 100.219C127.157 99.7336 127.074 99.1578 126.998 98.491C126.937 97.8241 126.907 97.1194 126.907 96.3768C126.907 95.6191 126.945 94.8917 127.021 94.1946C127.097 93.4823 127.18 92.8458 127.271 92.285C127.377 91.7092 127.475 91.2469 127.566 90.8984C127.93 90.762 128.498 90.6256 129.271 90.4892C130.044 90.3528 130.9 90.2846 131.84 90.2846C133.204 90.2846 134.333 90.474 135.227 90.8529C136.136 91.2318 136.811 91.8455 137.25 92.6942C137.705 93.5429 137.932 94.6871 137.932 96.1268V101.742H124.497ZM140.342 101.742V99.1047C140.418 99.1047 140.486 99.135 140.546 99.1957C140.607 99.2563 140.653 99.3472 140.683 99.4684C140.713 99.5897 140.736 99.7336 140.751 99.9004C140.781 100.052 140.797 100.226 140.797 100.423C140.797 100.62 140.781 100.802 140.751 100.969C140.736 101.135 140.713 101.279 140.683 101.401C140.653 101.507 140.607 101.59 140.546 101.651C140.486 101.711 140.418 101.742 140.342 101.742Z" fill="#2AB5DB"/>
<path d="M140.348 101.742V99.1047H157.534L154.965 101.332V96.5587C154.965 95.6949 154.851 95.0053 154.624 94.4901C154.396 93.9597 154.063 93.5732 153.624 93.3307C153.199 93.0882 152.684 92.967 152.078 92.967C151.426 92.967 150.805 93.0958 150.214 93.3535C149.638 93.6111 149.1 93.9445 148.6 94.3537C148.1 94.7629 147.637 95.2023 147.213 95.6721C146.789 96.1419 146.41 96.5966 146.076 97.0361C145.743 97.4604 145.455 97.8241 145.213 98.1272L144.531 95.9222C145.122 95.2099 145.652 94.5583 146.122 93.9672C146.592 93.3762 147.039 92.8533 147.463 92.3987C147.903 91.9441 148.357 91.5652 148.827 91.2621C149.312 90.959 149.835 90.7317 150.396 90.5801C150.971 90.4134 151.638 90.3301 152.396 90.3301C153.411 90.3301 154.275 90.5043 154.988 90.8529C155.7 91.1863 156.276 91.6485 156.715 92.2396C157.17 92.8306 157.496 93.4974 157.693 94.24C157.905 94.9826 158.011 95.7555 158.011 96.5587V101.742H140.348ZM143.212 99.1047V90.3301H146.258V99.1047H143.212ZM140.348 101.742C140.257 101.742 140.189 101.711 140.143 101.651C140.083 101.59 140.037 101.507 140.007 101.401C139.961 101.279 139.931 101.135 139.916 100.969C139.901 100.802 139.893 100.62 139.893 100.423C139.893 100.15 139.908 99.9231 139.939 99.7412C139.969 99.5442 140.022 99.3927 140.098 99.2866C140.158 99.1653 140.242 99.1047 140.348 99.1047V101.742ZM149.35 88.2614V85.6699H152.396V88.2614H149.35Z" fill="#2AB5DB"/>
<path d="M80.6069 61.6206H80.793C81.4043 61.7535 81.71 62.0592 81.71 62.5376V75.0705C81.5904 75.7085 81.2714 76.0274 80.7265 76.0274H80.6601C80.0221 75.8945 79.7031 75.5888 79.7031 75.1237V63.9996C79.2779 64.1458 78.9456 64.2122 78.7064 64.2122C78.2545 64.2122 77.9488 63.9066 77.8026 63.2952V63.0693C77.8026 62.5509 78.3608 62.1788 79.4905 61.9529L80.6069 61.6206Z" fill="#2AAEDE"/>
<path d="M88.4617 61.6204C90.1629 61.6204 91.4653 62.5241 92.3691 64.3582C92.8475 65.8201 93.0868 67.1625 93.0868 68.3852V69.2225C93.0868 70.7376 92.7678 72.2793 92.1431 73.8343C91.1995 75.2962 89.9901 76.0272 88.5414 76.0272H88.4218C86.8402 76.0272 85.6042 75.2032 84.7138 73.5286C84.1689 72.1198 83.8898 70.5648 83.8898 68.8504V68.744C83.8898 66.9365 84.222 65.2885 84.8733 63.8133C85.8435 62.3513 87.0396 61.6204 88.475 61.6204H88.4617ZM85.7637 68.6377V69.0364C85.7637 70.6579 86.0561 72.0135 86.6276 73.1033C87.1459 73.7412 87.7307 74.0602 88.3952 74.0602H88.5015C89.9635 74.0602 90.8274 72.8774 91.0932 70.5249C91.1596 70.1395 91.2128 69.5547 91.2394 68.7839C91.2394 67.415 91.0002 66.1125 90.535 64.8632C89.9901 63.9993 89.3256 63.5741 88.5015 63.5741C87.5048 63.5741 86.7738 64.1322 86.2953 65.2354C85.9365 66.4049 85.7637 67.5479 85.7637 68.6377Z" fill="#2AAEDE"/>
<path d="M98.9609 61.6204C100.662 61.6204 101.965 62.5241 102.868 64.3582C103.347 65.8201 103.586 67.1625 103.586 68.3852V69.2225C103.586 70.7376 103.267 72.2793 102.642 73.8343C101.699 75.2962 100.489 76.0272 99.0407 76.0272H98.9211C97.3395 76.0272 96.1035 75.2032 95.213 73.5286C94.6681 72.1198 94.389 70.5648 94.389 68.8504V68.744C94.389 66.9365 94.7213 65.2885 95.3725 63.8133C96.3427 62.3513 97.5389 61.6204 98.9742 61.6204H98.9609ZM96.263 68.6377V69.0364C96.263 70.6579 96.5554 72.0135 97.1269 73.1033C97.6452 73.7412 98.23 74.0602 98.8945 74.0602H99.0008C100.476 74.0602 101.327 72.8774 101.592 70.5249C101.659 70.1395 101.712 69.5547 101.739 68.7839C101.739 67.415 101.499 66.1125 101.034 64.8632C100.489 63.9993 99.8248 63.5741 99.0008 63.5741C98.004 63.5741 97.2731 64.1322 96.7946 65.2354C96.4491 66.4049 96.263 67.5479 96.263 68.6377Z" fill="#2AAEDE"/>
<path d="M109.327 61.4348H109.514C110.683 61.4348 111.667 61.9664 112.477 63.0164C112.956 63.7208 113.195 64.4252 113.195 65.1561C113.195 66.7776 112.358 67.9604 110.67 68.7313C110.191 68.8642 109.793 68.9306 109.474 68.9306H109.407C107.945 68.9306 106.829 68.2262 106.045 66.8174C105.779 66.2725 105.646 65.7276 105.646 65.1827C105.646 63.5347 106.51 62.3519 108.238 61.6076C108.596 61.488 108.955 61.4348 109.314 61.4348H109.327ZM117.541 61.6209H117.674C118.285 61.7538 118.591 62.0728 118.591 62.5778V62.724C118.591 62.9233 118.126 63.6277 117.182 64.8372L108.876 75.8283C108.61 75.9613 108.397 76.0277 108.251 76.0277H108.184C107.547 75.8948 107.228 75.5891 107.228 75.124V74.9645C107.228 74.6987 107.586 74.1272 108.304 73.25L116.93 61.8601C117.156 61.7006 117.355 61.6342 117.541 61.6342V61.6209ZM107.653 65.1694V65.2226C107.653 66.0466 108.105 66.6048 109.022 66.9105L109.341 66.9371H109.514C110.311 66.9371 110.869 66.4719 111.162 65.5283L111.201 65.1694C111.201 64.3321 110.75 63.7606 109.859 63.455L109.434 63.3885C108.61 63.3885 108.038 63.8271 107.719 64.691L107.666 65.1561L107.653 65.1694ZM116.518 68.5718C117.993 68.5718 119.149 69.3293 119.986 70.8577C120.172 71.4159 120.265 71.9077 120.265 72.3197V72.4393C120.265 73.9145 119.495 75.0309 117.94 75.8283C117.461 76.0277 116.983 76.1207 116.504 76.1207H116.438C115.162 76.1207 114.099 75.5094 113.288 74.2734C112.929 73.6753 112.756 73.0772 112.756 72.4792V72.2532C112.756 70.9242 113.421 69.8609 114.723 69.0502C115.361 68.7313 115.946 68.5851 116.504 68.5851L116.518 68.5718ZM114.723 72.333C114.723 73.1437 115.149 73.7152 115.999 74.0474L116.464 74.1006H116.584C117.368 74.1006 117.913 73.6487 118.232 72.7583L118.259 72.4792V72.2532C118.259 71.4425 117.78 70.8843 116.81 70.6052L116.478 70.5653C115.614 70.5653 115.029 71.0571 114.737 72.0406L114.71 72.333H114.723Z" fill="#2AAEDE"/>
<path d="M104.861 138.015L98.6546 134.745L92.4347 137.988L93.6308 131.077L88.6071 126.173L95.558 125.176L98.6812 118.89L101.765 125.19L108.715 126.213L103.678 131.091L104.861 138.015Z" fill="white"/>
<path d="M126.83 128.645L123.029 126.638L119.228 128.632L119.959 124.405L116.902 121.402L121.142 120.79L123.043 116.949L124.943 120.804L129.183 121.428L126.113 124.419L126.83 128.645Z" fill="white"/>
<path d="M70.5196 128.645L74.3207 126.638L78.1218 128.632L77.3908 124.405L80.4609 121.402L76.2079 120.79L74.3074 116.949L72.4069 120.804L68.1672 121.428L71.2373 124.419L70.5196 128.645Z" fill="white"/>
<path d="M100.855 36.0329L101.785 32.5341C102.055 31.5168 102.432 30.7422 102.914 30.2103C103.399 29.6681 103.992 29.3416 104.692 29.2308C105.396 29.1096 106.205 29.1706 107.119 29.4136C108.044 29.6594 108.782 30.0094 109.332 30.4637C109.885 30.9077 110.238 31.4855 110.389 32.1969C110.544 32.8981 110.486 33.7574 110.216 34.7747L109.286 38.2735L100.855 36.0329ZM103.15 35.7187L102.409 34.5317L108.682 36.1988L107.466 36.8656L108.154 34.2761C108.318 33.6596 108.386 33.1551 108.358 32.7627C108.333 32.36 108.182 32.0393 107.904 31.8005C107.639 31.5541 107.219 31.3545 106.644 31.2016C106.079 31.0514 105.615 31.0162 105.253 31.0959C104.904 31.1681 104.618 31.3728 104.397 31.71C104.188 32.0396 104.002 32.5127 103.838 33.1292L103.15 35.7187ZM105.107 27.3607L105.574 25.6035L107.562 26.1319L107.095 27.8891L105.107 27.3607ZM107.912 28.1062L108.379 26.349L110.367 26.8774L109.901 28.6346L107.912 28.1062Z" fill="white"/>
<path d="M110.827 38.683L111.302 36.895L116.897 38.3819L115.171 39.2268L115.859 36.6374C116.053 35.9078 116.126 35.3221 116.078 34.8804C116.041 34.4415 115.87 34.0933 115.564 33.8361C115.268 33.5815 114.823 33.3751 114.227 33.2167L112.978 32.8849L113.453 31.0969L114.702 31.4287C115.647 31.68 116.408 32.0471 116.984 32.5301C117.57 33.0159 117.942 33.643 118.101 34.4113C118.273 35.172 118.214 36.097 117.924 37.1863L117.085 40.346L110.827 38.683Z" fill="white"/>
<path d="M126.088 42.7386L126.563 40.9506L128.181 41.3807L127.706 43.1687L126.088 42.7386ZM120.91 45.4552C120.53 45.3541 120.137 45.2168 119.732 45.0432C119.335 44.8826 118.912 44.6932 118.464 44.4751L119.211 42.9078C119.708 43.106 120.133 43.2683 120.484 43.3947C120.836 43.5211 121.135 43.6171 121.381 43.6826C122.121 43.8792 122.691 43.8876 123.091 43.7079C123.491 43.5281 123.761 43.171 123.903 42.6367L125.702 35.8701L126.112 36.3752L124.185 35.8632C123.764 35.7513 123.411 35.7125 123.127 35.747C122.846 35.7712 122.602 35.9211 122.397 36.1966C122.205 36.4645 122.027 36.9068 121.863 37.5233C121.707 38.109 121.641 38.5645 121.665 38.8898C121.701 39.2076 121.836 39.4469 122.068 39.6076C122.3 39.7684 122.637 39.9074 123.079 40.0249L124.497 40.4017L124.022 42.1897L122.604 41.8128C121.731 41.5807 121.048 41.2508 120.557 40.8232C120.065 40.3956 119.756 39.8623 119.629 39.2234C119.512 38.5873 119.568 37.8376 119.797 36.9744C120.027 36.1113 120.352 35.4275 120.772 34.923C121.205 34.4111 121.742 34.0863 122.384 33.9488C123.028 33.801 123.787 33.8431 124.66 34.0753L128.144 35.001L125.969 43.1856C125.783 43.8843 125.449 44.439 124.966 44.8497C124.49 45.2733 123.903 45.5355 123.205 45.6361C122.518 45.7394 121.753 45.6791 120.91 45.4552ZM127.706 43.1687L128.181 41.3807C128.243 41.3971 128.284 41.4299 128.304 41.4792C128.334 41.5313 128.348 41.6011 128.347 41.6888C128.356 41.7792 128.35 41.8822 128.331 41.998C128.314 42.1035 128.287 42.223 128.252 42.3566C128.216 42.4902 128.179 42.6121 128.138 42.7224C128.098 42.8327 128.051 42.9249 127.999 42.9989C127.959 43.0654 127.913 43.1137 127.861 43.1439C127.819 43.1768 127.768 43.1851 127.706 43.1687Z" fill="white"/>
<path d="M128.017 43.2512L128.492 41.4632L135.119 43.2246L134.274 43.6105L135.032 40.759C135.196 40.1425 135.125 39.6231 134.819 39.2007C134.524 38.7812 133.96 38.4608 133.127 38.2396C132.891 38.1768 132.562 38.1113 132.14 38.0432C131.721 37.9648 131.26 37.8974 130.758 37.8409L130.992 36.1539C131.461 36.1685 131.931 36.2 132.402 36.2482C132.884 36.2992 133.346 36.3833 133.787 36.5008C134.63 36.7247 135.33 37.0703 135.888 37.5376C136.449 37.9946 136.837 38.5432 137.052 39.1834C137.277 39.8264 137.287 40.5331 137.082 41.3038L136.001 45.373L128.017 43.2512ZM128.017 43.2512C127.955 43.2348 127.914 43.2019 127.894 43.1527C127.864 43.1006 127.848 43.0359 127.847 42.9585C127.838 42.8681 127.843 42.765 127.863 42.6493C127.883 42.5335 127.91 42.4088 127.946 42.2753C127.995 42.0903 128.046 41.9389 128.1 41.8211C128.156 41.6929 128.219 41.5997 128.289 41.5415C128.352 41.4702 128.42 41.4441 128.492 41.4632L128.017 43.2512ZM130.119 47.3248L130.586 45.5677L132.651 46.1166L132.184 47.8737L130.119 47.3248Z" fill="white"/>
<path d="M85.6327 38.2115L85.2349 36.4048L87.0105 36.0138L87.4083 37.8205L85.6327 38.2115ZM83.5612 38.6676L81.1365 27.6558L83.208 27.1997L85.6327 38.2115L83.5612 38.6676ZM87.4083 37.8205L87.0105 36.0138C87.0728 36.0001 87.1241 36.0106 87.1644 36.0452C87.2151 36.0776 87.2599 36.1331 87.299 36.2116C87.3484 36.2878 87.3909 36.3818 87.4265 36.4938C87.4597 36.5953 87.4912 36.7136 87.5209 36.8486C87.5506 36.9836 87.5729 37.1093 87.5877 37.2258C87.6024 37.3423 87.6034 37.4455 87.5905 37.5355C87.5858 37.6127 87.5672 37.6767 87.5348 37.7274C87.5128 37.7758 87.4706 37.8068 87.4083 37.8205Z" fill="white"/>
<path d="M90.5918 36.8583C89.9525 36.4765 89.4361 36.0349 89.0427 35.5337C88.6596 35.0301 88.3984 34.4616 88.2589 33.8282C88.124 33.2156 88.1147 32.6297 88.2312 32.0706C88.3453 31.5012 88.5585 30.9861 88.8707 30.5254C89.183 30.0647 89.577 29.6785 90.0527 29.3669C90.5366 29.0426 91.0692 28.8165 91.6507 28.6885C91.9622 28.6199 92.2962 28.579 92.6525 28.5658C93.0089 28.5527 93.3543 28.5637 93.6887 28.599L93.4395 30.4339C93.2054 30.4092 92.9748 30.4001 92.7476 30.4066C92.5308 30.4108 92.3237 30.4346 92.1264 30.4781C91.6695 30.5787 91.2875 30.7717 90.9801 31.0571C90.6705 31.3321 90.456 31.6678 90.3364 32.0643C90.2272 32.4585 90.223 32.8841 90.3236 33.3409C90.415 33.7563 90.5838 34.1274 90.83 34.4542C91.0865 34.7788 91.4078 35.051 91.7937 35.2709L90.5918 36.8583ZM87.7185 37.7522L87.3207 35.9455L95.0772 34.2376L95.475 36.0443L87.7185 37.7522ZM87.7185 37.7522C87.6562 37.766 87.6049 37.7555 87.5646 37.7208C87.5139 37.6884 87.4702 37.6382 87.4334 37.5701C87.384 37.4938 87.3415 37.3998 87.306 37.2878C87.2704 37.1759 87.2378 37.0525 87.2081 36.9175C87.1669 36.7306 87.143 36.5725 87.1363 36.4433C87.1274 36.3038 87.1409 36.1919 87.1768 36.1078C87.2 36.0156 87.248 35.9615 87.3207 35.9455L87.7185 37.7522Z" fill="white"/>
<path d="M65.3583 45.3123C64.5057 45.6122 63.756 45.7238 63.1091 45.647C62.4622 45.5703 61.9063 45.3037 61.4415 44.8474C60.9866 44.3875 60.611 43.7362 60.3146 42.8937C60.0183 42.0512 59.9017 41.3033 59.9648 40.6499C60.0345 39.9829 60.2958 39.412 60.7487 38.9371C61.198 38.4522 61.8489 38.0597 62.7014 37.7598L66.1015 36.5637L68.425 43.1684L66.409 43.8776L64.546 38.5818L65.196 38.8435L63.3154 39.505C62.9041 39.6497 62.5908 39.8163 62.3753 40.0048C62.1563 40.1833 62.0396 40.4441 62.0251 40.7873C62.0171 41.117 62.1189 41.5828 62.3306 42.1845C62.5317 42.7562 62.7336 43.1699 62.9362 43.4255C63.1454 43.6675 63.3912 43.7895 63.6737 43.7916C63.9562 43.7937 64.3131 43.7188 64.7443 43.5671L69.7242 41.8153L70.3381 43.5605L65.3583 45.3123ZM70.3381 43.5605L69.7242 41.8153C69.7843 41.7941 69.8365 41.7983 69.8807 41.8278C69.935 41.8538 69.9862 41.9034 70.0345 41.9766C70.0928 42.0463 70.1464 42.1345 70.1952 42.2413C70.2406 42.3381 70.2862 42.4516 70.332 42.582C70.3779 42.7124 70.4152 42.8345 70.444 42.9484C70.4728 43.0622 70.4862 43.1646 70.4844 43.2554C70.489 43.3327 70.4783 43.3984 70.4523 43.4527C70.4363 43.5034 70.3983 43.5393 70.3381 43.5605ZM59.9729 37.1643L59.3695 35.4492L61.3103 34.7665L61.9136 36.4816L59.9729 37.1643ZM62.711 36.2011L62.1077 34.486L64.0484 33.8032L64.6518 35.5183L62.711 36.2011Z" fill="white"/>
<path d="M75.0342 41.9085L74.4202 40.1633L76.3008 39.5017L76.9148 41.2469L75.0342 41.9085ZM76.9148 41.2469L76.3008 39.5017C76.351 39.4841 76.4032 39.4882 76.4574 39.5142C76.5116 39.5403 76.5629 39.5898 76.6112 39.663C76.6595 39.7362 76.708 39.8262 76.7569 39.933C76.8122 40.0262 76.8628 40.1381 76.9087 40.2684C76.9546 40.3988 76.9869 40.5227 77.0056 40.6401C77.0344 40.754 77.0529 40.8545 77.061 40.9418C77.0657 41.0191 77.055 41.0848 77.029 41.1391C77.013 41.1898 76.9749 41.2257 76.9148 41.2469ZM70.6411 43.4539C70.5809 43.475 70.5287 43.4709 70.4845 43.4413C70.4303 43.4153 70.3808 43.3707 70.336 43.3076C70.2777 43.2379 70.2241 43.1497 70.1753 43.0429C70.1265 42.9361 70.0791 42.8175 70.0332 42.6871C69.9697 42.5066 69.9268 42.3526 69.9046 42.2252C69.8787 42.0878 69.8786 41.9751 69.904 41.8873C69.9159 41.7929 69.957 41.7334 70.0272 41.7087L70.6411 43.4539ZM70.6411 43.4539L70.0272 41.7087L73.5928 40.4544L72.7633 41.8451L70.3764 35.0599L72.3773 34.356L75.0342 41.9085L70.6411 43.4539ZM72.31 46.4679L71.7067 44.7528L73.6474 44.07L74.2508 45.7851L72.31 46.4679ZM75.0482 45.5046L74.4448 43.7895L76.3856 43.1068L76.9889 44.8219L75.0482 45.5046Z" fill="white"/>
<path d="M78.9156 40.543L75.1738 29.9064L77.1898 29.1972L80.9316 39.8338L78.9156 40.543ZM77.2155 41.1411L76.6016 39.3959L78.3017 38.7978L78.9156 40.543L77.2155 41.1411ZM77.2155 41.1411C77.1554 41.1623 77.1032 41.1581 77.059 41.1285C77.0047 41.1025 76.9552 41.058 76.9105 40.9948C76.8522 40.9251 76.7986 40.8369 76.7497 40.7301C76.7009 40.6233 76.6535 40.5047 76.6077 40.3743C76.5442 40.1938 76.5013 40.0398 76.479 39.9124C76.4532 39.775 76.453 39.6623 76.4785 39.5745C76.4903 39.4801 76.5314 39.4206 76.6016 39.3959L77.2155 41.1411Z" fill="white"/>
</g>
<defs>
<clipPath id="clip0_240_4622">
<rect width="196.698" height="202.015" fill="white" transform="translate(0 0.192871)"/>
</clipPath>
</defs>
</svg>
